<?xml version="1.0" encoding="UTF-8" standalone="no"?>
<!-- Created with Inkscape (http://www.inkscape.org/) -->

<svg
   xmlns:dc="http://purl.org/dc/elements/1.1/"
   xmlns:cc="http://creativecommons.org/ns#"
   xmlns:rdf="http://www.w3.org/1999/02/22-rdf-syntax-ns#"
   xmlns:svg="http://www.w3.org/2000/svg"
   xmlns="http://www.w3.org/2000/svg"
   xmlns:sodipodi="http://sodipodi.sourceforge.net/DTD/sodipodi-0.dtd"
   xmlns:inkscape="http://www.inkscape.org/namespaces/inkscape"
   width="210mm"
   height="297mm"
   viewBox="0 0 210 297"
   version="1.1"
   id="svg8"
   inkscape:version="0.92.4 (5da689c313, 2019-01-14)"
   sodipodi:docname="MyWarehouseLogo.svg"
   inkscape:export-filename="C:\Work\_Portfolio\ASP.NETCore_and_Angular\MyWarehouse\src\WebUI\src\assets\logo-long-color.png"
   inkscape:export-xdpi="240"
   inkscape:export-ydpi="240">
  <defs
     id="defs2" />
  <sodipodi:namedview
     id="base"
     pagecolor="#ffffff"
     bordercolor="#666666"
     borderopacity="1.0"
     inkscape:pageopacity="0.0"
     inkscape:pageshadow="2"
     inkscape:zoom="1.4"
     inkscape:cx="532.69824"
     inkscape:cy="381.32941"
     inkscape:document-units="mm"
     inkscape:current-layer="layer1"
     showgrid="false"
     inkscape:snap-others="true"
     inkscape:snap-grids="false"
     inkscape:snap-to-guides="false"
     inkscape:snap-nodes="true"
     inkscape:window-width="2560"
     inkscape:window-height="1346"
     inkscape:window-x="-11"
     inkscape:window-y="-11"
     inkscape:window-maximized="1"
     showborder="false" />
  <metadata
     id="metadata5">
    <rdf:RDF>
      <cc:Work
         rdf:about="">
        <dc:format>image/svg+xml</dc:format>
        <dc:type
           rdf:resource="http://purl.org/dc/dcmitype/StillImage" />
        <dc:title />
      </cc:Work>
    </rdf:RDF>
  </metadata>
  <g
     inkscape:label="Layer 1"
     inkscape:groupmode="layer"
     id="layer1">
    <rect
       style="opacity:1;fill:#f2f2f2;fill-opacity:1;stroke:none;stroke-width:1.07358181;stroke-miterlimit:4;stroke-dasharray:none;stroke-dashoffset:0;stroke-opacity:0.63239435"
       id="rect914"
       width="283.2063"
       height="91.52092"
       x="10.253359"
       y="103.48258"
       ry="1.8733374"
       inkscape:export-filename="C:\Work\_Portfolio\ASP.NETCore_and_Angular\MyWarehouse\.github\demo-button.png"
       inkscape:export-xdpi="91.83976"
       inkscape:export-ydpi="91.83976" />
    <path
       inkscape:connector-curvature="0"
       id="path3906"
       d="m 152.55819,-198.28957 c -2.72101,0.0108 -5.33236,0.95574 -6.87813,2.5709 -3.19745,3.34092 -3.16104,10.22181 0.0718,13.55059 1.15827,1.19265 2.21367,1.76061 4.08089,2.19625 1.82138,0.42494 5.28277,0.2703 6.93084,-0.31006 1.81904,-0.64057 3.43131,-2.18756 4.32842,-4.15272 0.68975,-1.51101 0.76249,-1.94534 0.77049,-4.58473 0.008,-2.76935 -0.0348,-3.00389 -0.86041,-4.68137 -1.3292,-2.7008 -3.08197,-3.88949 -6.55412,-4.44417 -0.62782,-0.1003 -1.26188,-0.14719 -1.88981,-0.14469 z m 0.25063,4.14651 c 0.598,0.0153 1.18915,0.17226 1.70584,0.48731 1.33551,0.81431 1.74497,1.67316 1.87482,3.93619 0.14339,2.49934 -0.27169,4.14335 -1.28467,5.08962 -1.29939,1.21381 -3.6586,1.14128 -5.01003,-0.15348 -1.41071,-1.35154 -1.75597,-5.61546 -0.61495,-7.59179 0.66466,-1.15123 2.0134,-1.80159 3.32899,-1.76785 z"
       style="fill:#0a7952;fill-opacity:1;stroke-width:0.26458335" />
    <path
       inkscape:connector-curvature="0"
       id="path3902"
       d="m 171.07372,-179.87262 c -1.66722,-0.26342 -3.5286,-1.30564 -4.40543,-2.46668 -1.25539,-1.6623 -1.48964,-3.19796 -1.48964,-9.76556 v -6.03739 h 2.77812 2.77813 v 6.09855 c 0,7.70516 0.18443,8.18895 3.12192,8.18895 1.65141,0 2.57614,-0.68023 2.98666,-2.197 0.19492,-0.72021 0.26688,-3.01592 0.20481,-6.53425 l -0.0957,-5.42396 2.71198,-0.0754 2.71198,-0.0754 v 6.17894 c 0,7.42834 -0.18497,8.34102 -2.07042,10.21549 -0.68793,0.68392 -1.70657,1.38167 -2.2952,1.57216 -1.33535,0.43214 -5.12542,0.60782 -6.93722,0.32155 z"
       style="fill:#0a7952;fill-opacity:1;stroke-width:0.26458335" />
    <path
       inkscape:connector-curvature="0"
       id="path3900"
       d="m 190.64935,-179.88282 c -2.89164,-0.6162 -4.64112,-2.36589 -5.22811,-5.22874 l -0.1763,-0.8599 1.67466,-0.003 c 0.92107,-0.002 2.09873,-0.0731 2.61703,-0.15882 0.91287,-0.15103 0.95225,-0.12288 1.25864,0.89975 0.63941,2.13415 3.59433,2.90706 5.06772,1.32556 1.30436,-1.40006 0.24623,-2.58753 -3.13915,-3.52287 -5.01856,-1.38657 -6.65041,-2.80434 -6.63876,-5.76783 0.01,-2.53327 2.13227,-4.46375 5.41961,-4.92973 5.14119,-0.72876 8.39889,0.75412 9.41122,4.28391 0.267,0.93099 0.23875,0.94181 -2.73053,1.04534 -1.78788,0.0623 -2.31514,8e-4 -2.3151,-0.27035 1e-5,-0.1931 -0.34799,-0.69911 -0.77336,-1.12448 -0.62161,-0.62161 -1.00302,-0.7734 -1.94337,-0.7734 -0.79743,0 -1.3094,0.15407 -1.60785,0.48385 -1.07229,1.18486 -0.30823,1.89362 2.86941,2.66172 3.29432,0.79631 5.53502,1.92546 6.39266,3.22144 1.87042,2.8264 0.51178,6.72621 -2.84666,8.17098 -1.55148,0.66742 -5.39584,0.95475 -7.31176,0.54648 z"
       style="fill:#0a7952;fill-opacity:1;stroke-width:0.26458335" />
    <path
       inkscape:connector-curvature="0"
       id="path3898"
       d="m 39.798341,-188.5511 c -1.056675,-4.76581 -1.980468,-8.87347 -2.052874,-9.12813 -0.119071,-0.41879 0.120066,-0.46302 2.503333,-0.46302 2.513457,0 2.641631,0.0274 2.77918,0.59531 0.07931,0.32742 0.518753,2.55974 0.976541,4.96071 0.457789,2.40096 0.860924,4.39397 0.895858,4.42891 0.03493,0.0349 0.701455,-2.19739 1.481158,-4.96071 l 1.417643,-5.02422 h 2.587869 2.587868 l 0.273712,0.99219 c 1.974637,7.15792 2.593423,9.08453 2.731907,8.50587 0.08352,-0.34898 0.530745,-2.62882 0.993834,-5.06629 l 0.841981,-4.43177 h 2.621604 c 2.58436,0 2.619589,0.008 2.479699,0.59531 -0.330856,1.38798 -3.836924,17.40246 -3.836924,17.52572 0,0.0744 -1.23506,0.13522 -2.744577,0.13522 h -2.744576 l -1.584114,-5.59075 c -0.871263,-3.07491 -1.645712,-5.48592 -1.720999,-5.35781 -0.126024,0.21445 -2.146442,7.21463 -2.835464,9.82408 l -0.296917,1.12448 h -2.717257 -2.717258 z"
       style="fill:#0a7952;fill-opacity:1;stroke-width:0.26458335" />
    <path
       inkscape:connector-curvature="0"
       id="path3896"
       d="m 72.945485,-198.1423 c -1.659252,0 -3.016869,0.049 -3.016869,0.10852 0,0.0595 -1.534954,4.16667 -3.411162,9.12761 l -3.411162,9.02012 h 2.846856 2.847369 l 0.447519,-1.59525 0.448035,-1.59577 3.216341,0.0744 3.215825,0.0739 0.437698,1.45521 0.4377,1.45521 2.936256,0.0749 2.936253,0.0744 -0.629417,-1.66192 c -0.346149,-0.91423 -1.782506,-4.69853 -3.192055,-8.4093 -1.40955,-3.71079 -2.682164,-7.07429 -2.827735,-7.47448 l -0.264583,-0.72761 z m -0.03204,4.89479 1.015442,3.175 c 0.558491,1.74625 1.018024,3.20475 1.021125,3.24115 0.0031,0.0363 -0.887285,0.0661 -1.978689,0.0661 -1.091406,0 -1.984375,-0.0806 -1.984375,-0.17932 0,-0.0987 0.433475,-1.55719 0.963247,-3.24115 z"
       style="fill:#0a7952;fill-opacity:1;stroke-width:0.26458335" />
    <path
       inkscape:connector-curvature="0"
       id="path3892"
       d="m 84.745282,-198.1609 v 9.13742 9.13743 h 2.778125 2.778125 v -3.70416 -3.70417 h 0.765845 c 1.068003,0 1.705411,0.75884 3.580659,4.26227 l 1.613339,3.01377 3.105753,0.0744 c 1.708012,0.041 3.105242,-0.004 3.105242,-0.0992 0,-0.31963 -2.728967,-5.25451 -3.396696,-6.14227 -0.362181,-0.48151 -1.004734,-1.05451 -1.427822,-1.2733 l -0.769461,-0.39791 1.359607,-0.67748 c 1.556766,-0.77577 2.539962,-2.06623 2.792592,-3.66593 0.37587,-2.38 -1.088499,-4.83119 -3.204453,-5.36349 -0.573294,-0.14422 -3.750985,-0.33775 -7.061584,-0.42995 z m 5.55625,3.72277 h 1.948717 c 1.57081,0 2.083882,0.10625 2.645834,0.54828 0.882221,0.69396 0.900321,1.65353 0.04754,2.50631 -0.57476,0.57473 -0.878975,0.64958 -2.645834,0.64958 h -1.99626 v -1.85209 z"
       style="fill:#0a7952;fill-opacity:1;stroke-width:0.26458335" />
    <path
       inkscape:connector-curvature="0"
       id="path3888"
       d="m 104.38715,-188.94798 0.0696,-9.06198 7.47448,-0.0703 7.47448,-0.0703 v 1.98849 1.9885 h -4.7625 -4.7625 v 1.45521 1.45521 h 4.36563 4.36562 v 1.85208 1.85208 h -4.37771 -4.37772 l 0.0782,1.78594 0.0782,1.78594 4.82865,0.0721 4.82865,0.0721 v 1.9784 1.97841 h -7.6764 -7.67639 z"
       style="fill:#0a7952;fill-opacity:1;stroke-width:0.26458335" />
    <path
       inkscape:connector-curvature="0"
       id="path3886"
       d="m 122.84531,-189.01408 v -9.12812 h 2.77813 2.77812 v 3.30729 3.30729 h 3.04271 3.04271 v -3.30729 -3.30729 h 2.77812 2.77813 v 9.12812 9.12813 h -2.77813 -2.77812 v -3.70417 -3.70416 h -3.04271 -3.04271 v 3.70416 3.70417 h -2.77812 -2.77813 z"
       style="fill:#0a7952;fill-opacity:1;stroke-width:0.26458335" />
    <path
       inkscape:connector-curvature="0"
       id="path3884"
       d="m 204.60156,-189.01408 v -9.12812 h 7.54063 7.54062 v 1.98437 1.98438 h -4.7625 -4.7625 v 1.45521 1.45521 h 4.36563 4.36562 v 1.85208 1.85208 h -4.36562 -4.36563 v 1.85209 1.85208 h 4.8948 4.89479 v 1.98437 1.98438 h -7.67292 -7.67292 z"
       style="fill:#0a7952;fill-opacity:1;stroke-width:0.26458335" />
    <text
       transform="scale(1.2242872,0.8168018)"
       id="text906"
       y="-247.08632"
       x="50.100063"
       style="font-style:italic;font-variant:normal;font-weight:bold;font-stretch:normal;font-size:30.94270325px;line-height:1.25;font-family:'Century Gothic';-inkscape-font-specification:'Century Gothic, Bold Italic';font-variant-ligatures:normal;font-variant-caps:normal;font-variant-numeric:normal;font-feature-settings:normal;text-align:start;letter-spacing:0px;word-spacing:0px;writing-mode:lr-tb;text-anchor:start;fill:#000000;fill-opacity:1;stroke:none;stroke-width:0.5801757"
       xml:space="preserve"><tspan
         style="font-style:normal;font-variant:normal;font-weight:bold;font-stretch:normal;font-size:30.94274902px;font-family:'Century Gothic';-inkscape-font-specification:'Century Gothic, Bold';font-variant-ligatures:normal;font-variant-caps:normal;font-variant-numeric:normal;font-feature-settings:normal;text-align:start;writing-mode:lr-tb;text-anchor:start;stroke-width:0.5801757"
         y="-247.08632"
         x="50.100063"
         id="tspan904"
         sodipodi:role="line">Y</tspan></text>
    <path
       inkscape:connector-curvature="0"
       id="path887"
       d="m 39.482844,-211.39807 c -1.056675,4.76581 -1.980468,8.87347 -2.052874,9.12813 -0.119071,0.41879 0.120066,0.46302 2.503333,0.46302 2.513456,0 2.64163,-0.0274 2.779179,-0.59531 0.07931,-0.32742 0.518753,-2.55974 0.976541,-4.96071 0.457789,-2.40096 0.860924,-4.39397 0.895858,-4.42891 0.03493,-0.0349 0.701455,2.19739 1.481158,4.96071 l 1.417643,5.02422 h 2.587869 2.587869 l 0.273712,-0.99219 c 1.974637,-7.15792 2.593423,-9.08453 2.731907,-8.50587 0.08352,0.34898 0.530745,2.62882 0.993834,5.06629 l 0.841981,4.43177 h 2.621604 c 2.58436,0 2.619589,-0.008 2.479699,-0.59531 -0.330856,-1.38798 -3.836924,-17.40246 -3.836924,-17.52572 0,-0.0744 -1.23506,-0.13522 -2.744577,-0.13522 H 53.27608 l -1.584114,5.59075 c -0.871264,3.07491 -1.645713,5.48592 -1.721,5.35781 -0.126024,-0.21445 -2.146442,-7.21463 -2.835465,-9.82408 l -0.296917,-1.12448 H 44.121328 41.40407 Z"
       style="fill:#1a1a1a;fill-opacity:1;stroke-width:0.26458341" />
    <text
       xml:space="preserve"
       style="font-style:italic;font-variant:normal;font-weight:bold;font-stretch:normal;font-size:30.94270325px;line-height:1.25;font-family:'Century Gothic';-inkscape-font-specification:'Century Gothic, Bold Italic';font-variant-ligatures:normal;font-variant-caps:normal;font-variant-numeric:normal;font-feature-settings:normal;text-align:start;letter-spacing:0px;word-spacing:0px;writing-mode:lr-tb;text-anchor:start;fill:#000000;fill-opacity:1;stroke:none;stroke-width:0.5801757"
       x="7.1073799"
       y="-83.741837"
       id="text1086"
       transform="scale(1.2242872,0.8168018)"><tspan
         sodipodi:role="line"
         id="tspan1084"
         x="7.1073799"
         y="-83.741837"
         style="font-style:normal;font-variant:normal;font-weight:bold;font-stretch:normal;font-size:30.94274902px;font-family:'Century Gothic';-inkscape-font-specification:'Century Gothic, Bold';font-variant-ligatures:normal;font-variant-caps:normal;font-variant-numeric:normal;font-feature-settings:normal;text-align:start;writing-mode:lr-tb;text-anchor:start;stroke-width:0.5801757">MY</tspan></text>
    <path
       style="fill:#333333;fill-opacity:1;stroke:#ffffff;stroke-width:0.11857602;stroke-miterlimit:4;stroke-dasharray:none"
       d="m 23.051129,42.121924 c -1.343,5.272227 -2.517125,9.816368 -2.609143,10.098089 -0.151335,0.46329 0.152593,0.51222 3.181665,0.51222 3.194541,0 3.357441,-0.03031 3.532264,-0.658568 0.100788,-0.362211 0.659317,-2.831738 1.241156,-5.487836 0.581839,-2.656087 1.094219,-4.860875 1.138614,-4.899528 0.04436,-0.03861 0.891524,2.430886 1.882514,5.487837 l 1.801783,5.558095 h 3.289113 3.289114 l 0.347878,-1.09762 c 2.509715,-7.918523 3.296167,-10.049855 3.472184,-9.409707 0.106127,0.386063 0.674557,2.90816 1.263132,5.604636 l 1.070134,4.902691 h 3.331996 c 3.284652,0 3.329416,-0.0088 3.151619,-0.658568 -0.420501,-1.535467 -4.876622,-19.251652 -4.876622,-19.388009 0,-0.08231 -1.569728,-0.149589 -3.488288,-0.149589 h -3.488275 l -2.013374,6.184826 C 37.461245,42.122544 36.47694,44.789749 36.381248,44.648026 36.22108,44.410788 33.65318,36.666767 32.777455,33.780035 L 32.400077,32.536067 H 28.946525 25.49296 Z"
       id="path1088"
       inkscape:connector-curvature="0"
       inkscape:export-filename="C:\Work\_Portfolio\ASP.NETCore_and_Angular\MyWarehouse\.github\logo.png"
       inkscape:export-xdpi="240"
       inkscape:export-ydpi="240" />
    <path
       style="fill:#0a7952;fill-opacity:1;stroke:#ffffff;stroke-width:0.1;stroke-miterlimit:4;stroke-dasharray:none"
       d="m 205.7387,33.033444 c -2.72101,0.0108 -5.33236,0.95574 -6.87813,2.5709 -3.19745,3.340921 -3.16104,10.221811 0.0718,13.550591 1.15827,1.19265 2.21367,1.76061 4.08089,2.19625 1.82138,0.42494 5.28277,0.2703 6.93084,-0.31006 1.81904,-0.64057 3.43131,-2.18756 4.32842,-4.15272 0.68975,-1.51101 0.76249,-1.94534 0.77049,-4.58473 0.008,-2.76935 -0.0348,-3.00389 -0.86041,-4.68137 -1.3292,-2.700801 -3.08197,-3.889491 -6.55412,-4.444171 -0.62782,-0.1003 -1.26188,-0.14719 -1.88981,-0.14469 z m 0.25063,4.146511 c 0.598,0.0153 1.18915,0.17226 1.70584,0.48731 1.33551,0.81431 1.74497,1.67316 1.87482,3.93619 0.14339,2.49934 -0.27169,4.14335 -1.28467,5.08962 -1.29939,1.21381 -3.6586,1.14128 -5.01003,-0.15348 -1.41071,-1.35154 -1.75597,-5.61546 -0.61495,-7.59179 0.66466,-1.15123 2.0134,-1.80159 3.32899,-1.76785 z"
       id="path1090"
       inkscape:connector-curvature="0"
       inkscape:export-filename="C:\Work\_Portfolio\ASP.NETCore_and_Angular\MyWarehouse\.github\logo.png"
       inkscape:export-xdpi="240"
       inkscape:export-ydpi="240" />
    <path
       style="fill:#0a7952;fill-opacity:1;stroke:#ffffff;stroke-width:0.1;stroke-miterlimit:4;stroke-dasharray:none"
       d="m 224.25423,51.450395 c -1.66722,-0.26342 -3.5286,-1.30564 -4.40543,-2.46668 -1.25539,-1.6623 -1.48964,-3.19796 -1.48964,-9.76556 v -6.037391 h 2.77812 2.77813 v 6.098551 c 0,7.70516 0.18443,8.18895 3.12192,8.18895 1.65141,0 2.57614,-0.68023 2.98666,-2.197 0.19492,-0.72021 0.26688,-3.01592 0.20481,-6.53425 l -0.0957,-5.423961 2.71198,-0.0754 2.71198,-0.0754 v 6.178941 c 0,7.42834 -0.18497,8.34102 -2.07042,10.21549 -0.68793,0.68392 -1.70657,1.38167 -2.2952,1.57216 -1.33535,0.43214 -5.12542,0.60782 -6.93722,0.32155 z"
       id="path1092"
       inkscape:connector-curvature="0"
       inkscape:export-filename="C:\Work\_Portfolio\ASP.NETCore_and_Angular\MyWarehouse\.github\logo.png"
       inkscape:export-xdpi="240"
       inkscape:export-ydpi="240" />
    <path
       style="fill:#0a7952;fill-opacity:1;stroke:#ffffff;stroke-width:0.1;stroke-miterlimit:4;stroke-dasharray:none"
       d="m 243.82986,51.440195 c -2.89164,-0.6162 -4.64112,-2.36589 -5.22811,-5.22874 l -0.1763,-0.8599 1.67466,-0.003 c 0.92107,-0.002 2.09873,-0.0731 2.61703,-0.15882 0.91287,-0.15103 0.95225,-0.12288 1.25864,0.89975 0.63941,2.13415 3.59433,2.90706 5.06772,1.32556 1.30436,-1.40006 0.24623,-2.58753 -3.13915,-3.52287 -5.01856,-1.38657 -6.65041,-2.80434 -6.63876,-5.76783 0.01,-2.533271 2.13227,-4.463751 5.41961,-4.929731 5.14119,-0.72876 8.39889,0.75412 9.41122,4.283911 0.267,0.93099 0.23875,0.94181 -2.73053,1.04534 -1.78788,0.0623 -2.31514,8e-4 -2.3151,-0.27035 1e-5,-0.1931 -0.34799,-0.69911 -0.77336,-1.12448 -0.62161,-0.62161 -1.00302,-0.773401 -1.94337,-0.773401 -0.79743,0 -1.3094,0.154071 -1.60785,0.483851 -1.07229,1.18486 -0.30823,1.89362 2.86941,2.66172 3.29432,0.79631 5.53502,1.92546 6.39266,3.22144 1.87042,2.8264 0.51178,6.72621 -2.84666,8.17098 -1.55148,0.66742 -5.39584,0.95475 -7.31176,0.54648 z"
       id="path1094"
       inkscape:connector-curvature="0"
       inkscape:export-filename="C:\Work\_Portfolio\ASP.NETCore_and_Angular\MyWarehouse\.github\logo.png"
       inkscape:export-xdpi="240"
       inkscape:export-ydpi="240" />
    <path
       style="fill:#0a7952;fill-opacity:1;stroke:#ffffff;stroke-width:0.1;stroke-miterlimit:4;stroke-dasharray:none"
       d="m 92.978839,42.771915 c -1.05668,-4.76581 -1.98047,-8.873471 -2.05288,-9.128131 -0.11907,-0.41879 0.12007,-0.46302 2.50334,-0.46302 2.51345,0 2.64163,0.0274 2.77918,0.59531 0.0793,0.32742 0.51875,2.55974 0.97654,4.960711 0.45779,2.40096 0.86092,4.39397 0.89586,4.42891 0.0349,0.0349 0.70145,-2.19739 1.48115,-4.96071 l 1.417661,-5.024221 h 2.58787 2.58786 l 0.27372,0.99219 c 1.97463,7.157921 2.59342,9.084531 2.7319,8.505871 0.0835,-0.34898 0.53075,-2.62882 0.99384,-5.06629 l 0.84198,-4.431771 h 2.6216 c 2.58436,0 2.61959,0.008 2.4797,0.59531 -0.33086,1.38798 -3.83692,17.402461 -3.83692,17.525721 0,0.0744 -1.23506,0.13522 -2.74458,0.13522 h -2.74458 l -1.58411,-5.59075 c -0.87126,-3.07491 -1.64571,-5.48592 -1.721,-5.35781 -0.12602,0.21445 -2.14644,7.21463 -2.83546,9.82408 l -0.29692,1.12448 h -2.717271 -2.71725 z"
       id="path1096"
       inkscape:connector-curvature="0"
       inkscape:export-filename="C:\Work\_Portfolio\ASP.NETCore_and_Angular\MyWarehouse\.github\logo.png"
       inkscape:export-xdpi="240"
       inkscape:export-ydpi="240" />
    <path
       style="fill:#0a7952;fill-opacity:1;stroke:#ffffff;stroke-width:0.1;stroke-miterlimit:4;stroke-dasharray:none"
       d="m 126.12599,33.180714 c -1.65925,0 -3.01686,0.049 -3.01686,0.10852 0,0.0595 -1.53496,4.166671 -3.41117,9.127611 l -3.41116,9.02012 h 2.84685 2.84737 l 0.44752,-1.59525 0.44804,-1.59577 3.21634,0.0744 3.21582,0.0739 0.4377,1.45521 0.4377,1.45521 2.93626,0.0749 2.93625,0.0744 -0.62942,-1.66192 c -0.34615,-0.91423 -1.7825,-4.69853 -3.19205,-8.4093 -1.40955,-3.71079 -2.68217,-7.074291 -2.82774,-7.474481 l -0.26458,-0.72761 z m -0.032,4.894791 1.01544,3.175 c 0.55849,1.74625 1.01803,3.20475 1.02113,3.24115 0.003,0.0363 -0.88729,0.0661 -1.97869,0.0661 -1.09141,0 -1.98438,-0.0806 -1.98438,-0.17932 0,-0.0987 0.43348,-1.55719 0.96325,-3.24115 z"
       id="path1098"
       inkscape:connector-curvature="0"
       inkscape:export-filename="C:\Work\_Portfolio\ASP.NETCore_and_Angular\MyWarehouse\.github\logo.png"
       inkscape:export-xdpi="240"
       inkscape:export-ydpi="240" />
    <path
       style="fill:#0a7952;fill-opacity:1;stroke:#ffffff;stroke-width:0.1;stroke-miterlimit:4;stroke-dasharray:none"
       d="m 137.92579,33.162114 v 9.137421 9.13743 h 2.77812 2.77813 v -3.70416 -3.70417 h 0.76584 c 1.06801,0 1.70541,0.75884 3.58066,4.26227 l 1.61334,3.01377 3.10575,0.0744 c 1.70801,0.041 3.10524,-0.004 3.10524,-0.0992 0,-0.31963 -2.72896,-5.25451 -3.39669,-6.14227 -0.36218,-0.48151 -1.00473,-1.05451 -1.42782,-1.2733 l -0.76946,-0.39791 1.3596,-0.67748 c 1.55677,-0.77577 2.53997,-2.06623 2.7926,-3.66593 0.37586,-2.38 -1.0885,-4.831191 -3.20446,-5.363491 -0.57329,-0.14422 -3.75098,-0.33775 -7.06158,-0.42995 z m 5.55625,3.722771 h 1.94872 c 1.57081,0 2.08388,0.10625 2.64583,0.54828 0.88222,0.69396 0.90032,1.65353 0.0475,2.50631 -0.57476,0.57473 -0.87898,0.64958 -2.64583,0.64958 H 143.482 v -1.85209 z"
       id="path1100"
       inkscape:connector-curvature="0"
       inkscape:export-filename="C:\Work\_Portfolio\ASP.NETCore_and_Angular\MyWarehouse\.github\logo.png"
       inkscape:export-xdpi="240"
       inkscape:export-ydpi="240" />
    <path
       style="fill:#0a7952;fill-opacity:1;stroke:#ffffff;stroke-width:0.1;stroke-miterlimit:4;stroke-dasharray:none"
       d="m 157.56766,42.375035 0.0696,-9.061981 7.47448,-0.0703 7.47448,-0.0703 v 1.98849 1.988501 h -4.7625 -4.7625 v 1.45521 1.45521 h 4.36562 4.36563 v 1.85208 1.85208 h -4.37772 -4.37771 l 0.0782,1.78594 0.0782,1.78594 4.82865,0.0721 4.82864,0.0721 v 1.9784 1.97841 h -7.67639 -7.67639 z"
       id="path1102"
       inkscape:connector-curvature="0"
       inkscape:export-filename="C:\Work\_Portfolio\ASP.NETCore_and_Angular\MyWarehouse\.github\logo.png"
       inkscape:export-xdpi="240"
       inkscape:export-ydpi="240" />
    <path
       style="fill:#0a7952;fill-opacity:1;stroke:#ffffff;stroke-width:0.1;stroke-miterlimit:4;stroke-dasharray:none"
       d="m 176.02582,42.308935 v -9.128121 h 2.77813 2.77812 v 3.30729 3.307291 h 3.04271 3.04271 v -3.307291 -3.30729 h 2.77812 2.77813 v 9.128121 9.12813 h -2.77813 -2.77812 v -3.70417 -3.70416 h -3.04271 -3.04271 v 3.70416 3.70417 h -2.77812 -2.77813 z"
       id="path1104"
       inkscape:connector-curvature="0"
       inkscape:export-filename="C:\Work\_Portfolio\ASP.NETCore_and_Angular\MyWarehouse\.github\logo.png"
       inkscape:export-xdpi="240"
       inkscape:export-ydpi="240" />
    <path
       style="fill:#0a7952;fill-opacity:1;stroke:#ffffff;stroke-width:0.1;stroke-miterlimit:4;stroke-dasharray:none"
       d="m 257.78207,42.308935 v -9.128121 h 7.54063 7.54062 v 1.98437 1.984381 h -4.7625 -4.7625 v 1.45521 1.45521 h 4.36563 4.36562 v 1.85208 1.85208 h -4.36562 -4.36563 v 1.85209 1.85208 h 4.8948 4.89479 v 1.98437 1.98438 h -7.67292 -7.67292 z"
       id="path1106"
       inkscape:connector-curvature="0"
       inkscape:export-filename="C:\Work\_Portfolio\ASP.NETCore_and_Angular\MyWarehouse\.github\logo.png"
       inkscape:export-xdpi="240"
       inkscape:export-ydpi="240" />
    <path
       style="opacity:1;fill:#e6e6e6;fill-opacity:1;stroke:none;stroke-width:0.54767495;stroke-miterlimit:4;stroke-dasharray:none;stroke-dashoffset:0;stroke-opacity:0.63239435"
       d="m 77.749163,211.38281 v 15.15235 H 240.79492 l -22.9043,-15.15235 z m 248.029857,0 -24.83204,15.15235 h 730.90932 v -15.15235 z"
       transform="scale(0.26458333)"
       id="rect897"
       inkscape:connector-curvature="0"
       sodipodi:nodetypes="cccccccccc"
       inkscape:export-filename="C:\Work\_Portfolio\ASP.NETCore_and_Angular\MyWarehouse\.github\logo.png"
       inkscape:export-xdpi="240"
       inkscape:export-ydpi="240" />
    <path
       inkscape:connector-curvature="0"
       id="path1110"
       d="m 63.735208,54.124275 -6.68073,-4.00157 v -7.891 -7.891001 l 6.63303,3.984391 c 3.64817,2.19141 6.68613,4.12277 6.75104,4.29191 0.0649,0.16913 0.0864,3.72782 0.0477,7.90818 l -0.0703,7.600669 z m 9.45885,-3.8678 v -7.89016 l 6.38652,-3.29599 c 3.51258,-1.8128 6.48914,-3.335681 6.61458,-3.384191 0.12544,-0.0485 0.22807,3.431331 0.22807,7.732961 v 7.82116 l -0.59532,0.36712 c -0.32742,0.20192 -3.30398,1.75586 -6.61458,3.45319 l -6.01927,3.086069 z m -7.89152,-14.075551 c -3.39445,-2.1529 -6.16698,-4.01809 -6.16118,-4.14486 0.0181,-0.39672 11.98727,-6.485148 12.42147,-6.318528 0.69796,0.26783 13.00845,7.649608 13.00564,7.798608 -0.004,0.18706 -12.55386,6.630341 -12.85847,6.601481 -0.12965,-0.0123 -3.01301,-1.7838 -6.40746,-3.936701 z"
       style="fill:#333333;stroke-width:0.26458332"
       sodipodi:nodetypes="cccccccccccccscccccsccccs"
       inkscape:export-filename="C:\Work\_Portfolio\ASP.NETCore_and_Angular\MyWarehouse\.github\logo.png"
       inkscape:export-xdpi="240"
       inkscape:export-ydpi="240" />
    <text
       xml:space="preserve"
       style="font-style:normal;font-weight:normal;font-size:14.11111069px;line-height:1.25;font-family:sans-serif;letter-spacing:0px;word-spacing:0px;fill:#000000;fill-opacity:1;stroke:none;stroke-width:0.26458332"
       x="76.706352"
       y="167.37428"
       id="text1116"><tspan
         sodipodi:role="line"
         id="tspan1114"
         x="76.706352"
         y="180.24828"
         style="stroke-width:0.26458332" /></text>
    <flowRoot
       xml:space="preserve"
       id="flowRoot1118"
       style="fill:black;fill-opacity:1;stroke:none;font-family:sans-serif;font-style:normal;font-weight:normal;font-size:53.33333333px;line-height:1.25;letter-spacing:0px;word-spacing:0px"><flowRegion
         id="flowRegion1120"><rect
           id="rect1122"
           width="793.97992"
           height="294.96454"
           x="244.45691"
           y="645.72766" /></flowRegion><flowPara
         id="flowPara1124" /></flowRoot>    <path
       sodipodi:nodetypes="cccccccccccccscccccsccccs"
       style="fill:#333333;stroke-width:0.26458332"
       d="m 78.503114,-66.296268 -6.680731,-4.00157 v -7.891004 -7.890996 l 6.633031,3.984386 c 3.64817,2.19141 6.686129,4.12277 6.751039,4.29191 0.0649,0.16913 0.0864,3.727824 0.0477,7.908184 l -0.0703,7.60067 z m 9.458849,-3.8678 v -7.890164 l 6.386517,-3.29599 c 3.51258,-1.8128 6.48915,-3.335676 6.61459,-3.384186 0.12544,-0.0485 0.22807,3.431326 0.22807,7.732956 v 7.821164 l -0.59532,0.36712 c -0.32742,0.20192 -3.30399,1.75586 -6.61459,3.45319 l -6.019267,3.08607 z m -7.891519,-14.07555 c -3.39445,-2.1529 -6.16698,-4.01809 -6.16118,-4.14486 0.0181,-0.39672 11.987269,-6.48515 12.421469,-6.31853 0.69796,0.26783 13.008457,7.64961 13.005647,7.79861 -0.004,0.18706 -12.553867,6.630336 -12.858477,6.601476 -0.12965,-0.0123 -3.01301,-1.7838 -6.407459,-3.936696 z"
       id="path1126"
       inkscape:connector-curvature="0" />
    <text
       transform="scale(1.2242872,0.8168018)"
       id="text1130"
       y="-153.00862"
       x="55.604717"
       style="font-style:italic;font-variant:normal;font-weight:bold;font-stretch:normal;font-size:30.94270325px;line-height:1.25;font-family:'Century Gothic';-inkscape-font-specification:'Century Gothic, Bold Italic';font-variant-ligatures:normal;font-variant-caps:normal;font-variant-numeric:normal;font-feature-settings:normal;text-align:start;letter-spacing:0px;word-spacing:0px;writing-mode:lr-tb;text-anchor:start;fill:#000000;fill-opacity:1;stroke:none;stroke-width:0.5801757"
       xml:space="preserve"><tspan
         style="font-style:normal;font-variant:normal;font-weight:bold;font-stretch:normal;font-size:30.94274902px;font-family:'Century Gothic';-inkscape-font-specification:'Century Gothic, Bold';font-variant-ligatures:normal;font-variant-caps:normal;font-variant-numeric:normal;font-feature-settings:normal;text-align:start;writing-mode:lr-tb;text-anchor:start;stroke-width:0.5801757"
         y="-153.00862"
         x="55.604717"
         id="tspan1128"
         sodipodi:role="line"
         dx="0 -3.2199988 -1.1800001 -0.9600001 -1.0700001 -0.9600001 -1.1800001 -1.0700001 -1.3">WAREHOUSE</tspan></text>
    <path
       inkscape:connector-curvature="0"
       id="path1132"
       d="m 222.89882,-87.23858 c -2.72101,0.0108 -5.33236,0.95574 -6.87813,2.5709 -3.19745,3.340921 -3.16104,10.221811 0.0718,13.550591 1.15827,1.19265 2.21367,1.76061 4.08089,2.19625 1.82138,0.42494 5.28277,0.2703 6.93084,-0.31006 1.81904,-0.64057 3.43131,-2.18756 4.32842,-4.15272 0.68975,-1.51101 0.76249,-1.94534 0.77049,-4.58473 0.008,-2.76935 -0.0348,-3.00389 -0.86041,-4.68137 -1.3292,-2.700801 -3.08197,-3.889491 -6.55412,-4.444171 -0.62782,-0.1003 -1.26188,-0.14719 -1.88981,-0.14469 z m 0.25063,4.14651 c 0.598,0.0153 1.18915,0.17226 1.70584,0.487311 1.33551,0.81431 1.74497,1.67316 1.87482,3.93619 0.14339,2.49934 -0.27169,4.14335 -1.28467,5.08962 -1.29939,1.21381 -3.6586,1.14128 -5.01003,-0.15348 -1.41071,-1.35154 -1.75597,-5.61546 -0.61495,-7.59179 0.66466,-1.15123 2.0134,-1.801591 3.32899,-1.767851 z"
       style="fill:#0a7952;fill-opacity:1;stroke:#ffffff;stroke-width:0.1;stroke-miterlimit:4;stroke-dasharray:none" />
    <path
       inkscape:connector-curvature="0"
       id="path1134"
       d="m 241.41435,-68.821629 c -1.66722,-0.26342 -3.5286,-1.30564 -4.40543,-2.46668 -1.25539,-1.6623 -1.48964,-3.19796 -1.48964,-9.76556 v -6.037391 h 2.77812 2.77813 v 6.098551 c 0,7.70516 0.18443,8.18895 3.12192,8.18895 1.65141,0 2.57614,-0.68023 2.98666,-2.197 0.19492,-0.72021 0.26688,-3.01592 0.20481,-6.53425 l -0.0957,-5.423961 2.71198,-0.0754 2.71198,-0.0754 v 6.178941 c 0,7.42834 -0.18497,8.34102 -2.07042,10.21549 -0.68793,0.68392 -1.70657,1.38167 -2.2952,1.57216 -1.33535,0.43214 -5.12542,0.60782 -6.93722,0.32155 z"
       style="fill:#0a7952;fill-opacity:1;stroke:#ffffff;stroke-width:0.1;stroke-miterlimit:4;stroke-dasharray:none" />
    <path
       inkscape:connector-curvature="0"
       id="path1136"
       d="m 260.98998,-68.831829 c -2.89164,-0.6162 -4.64112,-2.36589 -5.22811,-5.22874 l -0.1763,-0.8599 1.67466,-0.003 c 0.92107,-0.002 2.09873,-0.0731 2.61703,-0.15882 0.91287,-0.15103 0.95225,-0.12288 1.25864,0.89975 0.63941,2.13415 3.59433,2.90706 5.06772,1.32556 1.30436,-1.40006 0.24623,-2.58753 -3.13915,-3.52287 -5.01856,-1.38657 -6.65041,-2.80434 -6.63876,-5.76783 0.01,-2.533271 2.13227,-4.463751 5.41961,-4.929731 5.14119,-0.72876 8.39889,0.75412 9.41122,4.28391 0.267,0.930991 0.23875,0.941811 -2.73053,1.045341 -1.78788,0.0623 -2.31514,8e-4 -2.3151,-0.27035 10e-6,-0.1931 -0.34799,-0.699111 -0.77336,-1.124481 -0.62161,-0.62161 -1.00302,-0.7734 -1.94337,-0.7734 -0.79743,0 -1.3094,0.15407 -1.60785,0.48385 -1.07229,1.184861 -0.30823,1.893621 2.86941,2.661721 3.29432,0.79631 5.53502,1.92546 6.39266,3.22144 1.87042,2.8264 0.51178,6.72621 -2.84666,8.17098 -1.55148,0.66742 -5.39584,0.95475 -7.31176,0.54648 z"
       style="fill:#0a7952;fill-opacity:1;stroke:#ffffff;stroke-width:0.1;stroke-miterlimit:4;stroke-dasharray:none" />
    <path
       inkscape:connector-curvature="0"
       id="path1138"
       d="m 110.13896,-77.500109 c -1.05668,-4.76581 -1.98047,-8.873471 -2.05288,-9.128131 -0.11907,-0.41879 0.12007,-0.46302 2.50334,-0.46302 2.51346,0 2.64164,0.0274 2.77919,0.59531 0.0793,0.32742 0.51875,2.55974 0.97654,4.960711 0.45779,2.40096 0.86092,4.39397 0.89586,4.42891 0.0349,0.0349 0.70145,-2.19739 1.48115,-4.96071 l 1.41765,-5.024221 h 2.58787 2.58786 l 0.27372,0.99219 c 1.97463,7.157921 2.59342,9.084531 2.7319,8.505871 0.0835,-0.34898 0.53075,-2.62882 0.99384,-5.06629 l 0.84198,-4.431771 h 2.6216 c 2.58436,0 2.61959,0.008 2.4797,0.59531 -0.33086,1.38798 -3.83692,17.402461 -3.83692,17.525721 0,0.0744 -1.23506,0.13522 -2.74458,0.13522 h -2.74458 l -1.58411,-5.59075 c -0.87126,-3.07491 -1.64571,-5.48592 -1.721,-5.35781 -0.12602,0.21445 -2.14644,7.21463 -2.83546,9.82408 l -0.29692,1.12448 h -2.71726 -2.71725 z"
       style="fill:#0a7952;fill-opacity:1;stroke:#ffffff;stroke-width:0.1;stroke-miterlimit:4;stroke-dasharray:none" />
    <path
       inkscape:connector-curvature="0"
       id="path1140"
       d="m 143.28611,-87.09131 c -1.65925,0 -3.01686,0.049 -3.01686,0.10852 0,0.0595 -1.53496,4.16667 -3.41117,9.127611 l -3.41116,9.02012 h 2.84685 2.84737 l 0.44752,-1.59525 0.44804,-1.59577 3.21634,0.0744 3.21582,0.0739 0.4377,1.45521 0.4377,1.45521 2.93626,0.0749 2.93625,0.0744 -0.62942,-1.66192 c -0.34615,-0.91423 -1.7825,-4.69853 -3.19205,-8.4093 -1.40955,-3.71079 -2.68217,-7.074291 -2.82774,-7.474481 l -0.26458,-0.72761 z m -0.032,4.894791 1.01544,3.175 c 0.55849,1.74625 1.01803,3.20475 1.02113,3.24115 0.003,0.0363 -0.88729,0.0661 -1.97869,0.0661 -1.09141,0 -1.98438,-0.0806 -1.98438,-0.17932 0,-0.0987 0.43348,-1.55719 0.96325,-3.24115 z"
       style="fill:#0a7952;fill-opacity:1;stroke:#ffffff;stroke-width:0.1;stroke-miterlimit:4;stroke-dasharray:none" />
    <path
       inkscape:connector-curvature="0"
       id="path1142"
       d="m 155.08591,-87.10991 v 9.137421 9.13743 h 2.77812 2.77813 v -3.70416 -3.70417 h 0.76584 c 1.06801,0 1.70541,0.75884 3.58066,4.26227 l 1.61334,3.01377 3.10575,0.0744 c 1.70801,0.041 3.10524,-0.004 3.10524,-0.0992 0,-0.31963 -2.72896,-5.25451 -3.39669,-6.14227 -0.36218,-0.48151 -1.00473,-1.05451 -1.42782,-1.2733 l -0.76946,-0.39791 1.3596,-0.67748 c 1.55677,-0.77577 2.53997,-2.06623 2.7926,-3.66593 0.37586,-2.380001 -1.0885,-4.831191 -3.20446,-5.363491 -0.57329,-0.14422 -3.75098,-0.33775 -7.06158,-0.42995 z m 5.55625,3.72277 h 1.94872 c 1.57081,0 2.08388,0.10625 2.64583,0.54828 0.88222,0.693961 0.90032,1.653531 0.0475,2.506311 -0.57476,0.57473 -0.87898,0.64958 -2.64583,0.64958 h -1.99626 v -1.85209 z"
       style="fill:#0a7952;fill-opacity:1;stroke:#ffffff;stroke-width:0.1;stroke-miterlimit:4;stroke-dasharray:none" />
    <path
       inkscape:connector-curvature="0"
       id="path1144"
       d="m 174.72778,-77.896989 0.0696,-9.061981 7.47448,-0.0703 7.47448,-0.0703 v 1.98849 1.9885 h -4.7625 -4.7625 v 1.455211 1.45521 h 4.36562 4.36563 v 1.85208 1.85208 h -4.37772 -4.37771 l 0.0782,1.78594 0.0782,1.78594 4.82865,0.0721 4.82864,0.0721 v 1.9784 1.97841 h -7.67639 -7.67639 z"
       style="fill:#0a7952;fill-opacity:1;stroke:#ffffff;stroke-width:0.1;stroke-miterlimit:4;stroke-dasharray:none" />
    <path
       inkscape:connector-curvature="0"
       id="path1146"
       d="m 193.18594,-77.963089 v -9.128121 h 2.77813 2.77812 v 3.30729 3.307291 h 3.04271 3.04271 v -3.307291 -3.30729 h 2.77812 2.77813 v 9.128121 9.12813 h -2.77813 -2.77812 v -3.70417 -3.70416 h -3.04271 -3.04271 v 3.70416 3.70417 h -2.77812 -2.77813 z"
       style="fill:#0a7952;fill-opacity:1;stroke:#ffffff;stroke-width:0.1;stroke-miterlimit:4;stroke-dasharray:none" />
    <path
       inkscape:connector-curvature="0"
       id="path1148"
       d="m 274.94219,-77.963089 v -9.128121 h 7.54063 7.54062 v 1.98437 1.98438 h -4.7625 -4.7625 v 1.455211 1.45521 h 4.36563 4.36562 v 1.85208 1.85208 h -4.36562 -4.36563 v 1.85209 1.85208 h 4.8948 4.89479 v 1.98437 1.98438 h -7.67292 -7.67292 z"
       style="fill:#0a7952;fill-opacity:1;stroke:#ffffff;stroke-width:0.1;stroke-miterlimit:4;stroke-dasharray:none" />
    <flowRoot
       xml:space="preserve"
       id="flowRoot1154"
       style="font-style:normal;font-weight:normal;font-size:53.33333206px;line-height:1.25;font-family:sans-serif;letter-spacing:0px;word-spacing:0px;fill:#666666;fill-opacity:1;stroke:none"
       transform="matrix(0.26433577,0,0,0.26458333,155.08001,193.50135)"
       inkscape:export-filename="C:\Work\_Portfolio\ASP.NETCore_and_Angular\MyWarehouse\.github\logo.png"
       inkscape:export-xdpi="240"
       inkscape:export-ydpi="240"><flowRegion
         id="flowRegion1156"
         style="fill:#666666"><rect
           id="rect1158"
           width="1084.5881"
           height="79.408241"
           x="-507.14285"
           y="-516.05176"
           style="fill:#666666" /></flowRegion><flowPara
         id="flowPara1160"
         style="font-style:italic;font-variant:normal;font-weight:normal;font-stretch:normal;font-size:40px;font-family:Calibri;-inkscape-font-specification:'Calibri, Italic';font-variant-ligatures:normal;font-variant-caps:normal;font-variant-numeric:normal;font-feature-settings:normal;text-align:start;writing-mode:lr-tb;text-anchor:start;fill:#666666">A Clean Architecture + DDD sample project in ASP.NET Core</flowPara></flowRoot>    <path
       inkscape:connector-curvature="0"
       id="path1162"
       d="m 29.8547,-19.488196 c -1.343,5.272227 -2.517125,9.8163685 -2.609143,10.0980895 -0.151335,0.46329 0.152593,0.51222 3.181665,0.51222 3.194541,0 3.357441,-0.03031 3.532264,-0.658568 0.100788,-0.362211 0.659317,-2.8317385 1.241156,-5.4878365 0.581839,-2.656087 1.094219,-4.860875 1.138614,-4.899528 0.04436,-0.03861 0.891524,2.430886 1.882514,5.487837 l 1.801783,5.5580955 h 3.289113 3.289114 l 0.347878,-1.09762 c 2.509715,-7.9185235 3.296167,-10.0498555 3.472184,-9.4097075 0.106127,0.386063 0.674557,2.90816 1.263132,5.604636 l 1.070134,4.9026915 h 3.331996 c 3.284652,0 3.329416,-0.0088 3.151619,-0.658568 -0.420501,-1.5354675 -4.876622,-19.2516515 -4.876622,-19.3880085 0,-0.08231 -1.569728,-0.149589 -3.488288,-0.149589 h -3.488275 l -2.013374,6.184825 c -1.107348,3.401651 -2.091653,6.068856 -2.187345,5.927133 -0.160168,-0.237238 -2.728068,-7.981259 -3.603793,-10.86799 l -0.377378,-1.243968 h -3.453552 -3.453565 z"
       style="fill:#333333;fill-opacity:1;stroke:#ffffff;stroke-width:0.11857602;stroke-miterlimit:4;stroke-dasharray:none"
       inkscape:export-xdpi="240"
       inkscape:export-ydpi="240" />
    <path
       inkscape:connector-curvature="0"
       id="path1164"
       d="m 212.54227,-28.576675 c -2.72101,0.0108 -5.33236,0.95574 -6.87813,2.5709 -3.19745,3.34092 -3.16104,10.22181 0.0718,13.55059 1.15827,1.19265 2.21367,1.76061 4.08089,2.19625 1.82138,0.4249405 5.28277,0.2703005 6.93084,-0.31006 1.81904,-0.64057 3.43131,-2.18756 4.32842,-4.15272 0.68975,-1.51101 0.76249,-1.94534 0.77049,-4.58473 0.008,-2.76935 -0.0348,-3.00389 -0.86041,-4.68137 -1.3292,-2.7008 -3.08197,-3.88949 -6.55412,-4.44417 -0.62782,-0.1003 -1.26188,-0.14719 -1.88981,-0.14469 z m 0.25063,4.14651 c 0.598,0.0153 1.18915,0.17226 1.70584,0.48731 1.33551,0.81431 1.74497,1.67316 1.87482,3.93619 0.14339,2.49934 -0.27169,4.14335 -1.28467,5.08962 -1.29939,1.21381 -3.6586,1.14128 -5.01003,-0.15348 -1.41071,-1.35154 -1.75597,-5.61546 -0.61495,-7.59179 0.66466,-1.15123 2.0134,-1.80159 3.32899,-1.76785 z"
       style="fill:#0a7952;fill-opacity:1;stroke:#ffffff;stroke-width:0.1;stroke-miterlimit:4;stroke-dasharray:none"
       inkscape:export-xdpi="240"
       inkscape:export-ydpi="240" />
    <path
       inkscape:connector-curvature="0"
       id="path1166"
       d="m 231.0578,-10.159725 c -1.66722,-0.26342 -3.5286,-1.30564 -4.40543,-2.46668 -1.25539,-1.6623 -1.48964,-3.19796 -1.48964,-9.76556 v -6.03739 h 2.77812 2.77813 v 6.09855 c 0,7.70516 0.18443,8.18895 3.12192,8.18895 1.65141,0 2.57614,-0.68023 2.98666,-2.197 0.19492,-0.72021 0.26688,-3.01592 0.20481,-6.53425 l -0.0957,-5.42396 2.71198,-0.0754 2.71198,-0.0754 v 6.17894 c 0,7.42834 -0.18497,8.34102 -2.07042,10.21549 -0.68793,0.68392 -1.70657,1.38167 -2.2952,1.57216 -1.33535,0.43214 -5.12542,0.6078205 -6.93722,0.32155 z"
       style="fill:#0a7952;fill-opacity:1;stroke:#ffffff;stroke-width:0.1;stroke-miterlimit:4;stroke-dasharray:none"
       inkscape:export-xdpi="240"
       inkscape:export-ydpi="240" />
    <path
       inkscape:connector-curvature="0"
       id="path1168"
       d="m 250.63343,-10.169925 c -2.89164,-0.6162 -4.64112,-2.36589 -5.22811,-5.22874 l -0.1763,-0.8599 1.67466,-0.003 c 0.92107,-0.002 2.09873,-0.0731 2.61703,-0.15882 0.91287,-0.15103 0.95225,-0.12288 1.25864,0.89975 0.63941,2.13415 3.59433,2.90706 5.06772,1.32556 1.30436,-1.40006 0.24623,-2.58753 -3.13915,-3.52287 -5.01856,-1.38657 -6.65041,-2.80434 -6.63876,-5.76783 0.01,-2.53327 2.13227,-4.46375 5.41961,-4.92973 5.14119,-0.72876 8.39889,0.75412 9.41122,4.28391 0.267,0.93099 0.23875,0.94181 -2.73053,1.04534 -1.78788,0.0623 -2.31514,8e-4 -2.3151,-0.27035 10e-6,-0.1931 -0.34799,-0.69911 -0.77336,-1.12448 -0.62161,-0.62161 -1.00302,-0.7734 -1.94337,-0.7734 -0.79743,0 -1.3094,0.15407 -1.60785,0.48385 -1.07229,1.18486 -0.30823,1.89362 2.86941,2.66172 3.29432,0.79631 5.53502,1.92546 6.39266,3.22144 1.87042,2.8264 0.51178,6.72621 -2.84666,8.17098 -1.55148,0.66742 -5.39584,0.9547505 -7.31176,0.54648 z"
       style="fill:#0a7952;fill-opacity:1;stroke:#ffffff;stroke-width:0.1;stroke-miterlimit:4;stroke-dasharray:none"
       inkscape:export-xdpi="240"
       inkscape:export-ydpi="240" />
    <path
       inkscape:connector-curvature="0"
       id="path1170"
       d="m 99.78241,-18.838205 c -1.05668,-4.76581 -1.98047,-8.87347 -2.05288,-9.12813 -0.11907,-0.41879 0.12007,-0.46302 2.50334,-0.46302 2.51345,0 2.64163,0.0274 2.77918,0.59531 0.0793,0.32742 0.51875,2.55974 0.97654,4.96071 0.45779,2.40096 0.86092,4.39397 0.89586,4.42891 0.0349,0.0349 0.70145,-2.19739 1.48115,-4.96071 l 1.41766,-5.02422 h 2.58787 2.58786 l 0.27372,0.99219 c 1.97463,7.15792 2.59342,9.08453 2.7319,8.50587 0.0835,-0.34898 0.53075,-2.62882 0.99384,-5.06629 l 0.84198,-4.43177 h 2.6216 c 2.58436,0 2.61959,0.008 2.4797,0.59531 -0.33086,1.38798 -3.83692,17.40246 -3.83692,17.52572 0,0.0744 -1.23506,0.13522 -2.74458,0.13522 h -2.74458 l -1.58411,-5.59075 c -0.87126,-3.07491 -1.64571,-5.48592 -1.721,-5.35781 -0.12602,0.21445 -2.14644,7.21463 -2.83546,9.82408 l -0.29692,1.12448 h -2.71727 -2.71725 z"
       style="fill:#0a7952;fill-opacity:1;stroke:#ffffff;stroke-width:0.1;stroke-miterlimit:4;stroke-dasharray:none"
       inkscape:export-xdpi="240"
       inkscape:export-ydpi="240" />
    <path
       inkscape:connector-curvature="0"
       id="path1172"
       d="m 132.92956,-28.429405 c -1.65925,0 -3.01686,0.049 -3.01686,0.10852 0,0.0595 -1.53496,4.16667 -3.41117,9.12761 l -3.41116,9.02012 h 2.84685 2.84737 l 0.44752,-1.59525 0.44804,-1.59577 3.21634,0.0744 3.21582,0.0739 0.4377,1.45521 0.4377,1.45521 2.93626,0.0749 2.93625,0.0744 -0.62942,-1.66192 c -0.34615,-0.91423 -1.7825,-4.69853 -3.19205,-8.4093 -1.40955,-3.71079 -2.68217,-7.07429 -2.82774,-7.47448 l -0.26458,-0.72761 z m -0.032,4.89479 1.01544,3.175 c 0.55849,1.74625 1.01803,3.20475 1.02113,3.24115 0.003,0.0363 -0.88729,0.0661 -1.97869,0.0661 -1.09141,0 -1.98438,-0.0806 -1.98438,-0.17932 0,-0.0987 0.43348,-1.55719 0.96325,-3.24115 z"
       style="fill:#0a7952;fill-opacity:1;stroke:#ffffff;stroke-width:0.1;stroke-miterlimit:4;stroke-dasharray:none"
       inkscape:export-xdpi="240"
       inkscape:export-ydpi="240" />
    <path
       inkscape:connector-curvature="0"
       id="path1174"
       d="m 144.72936,-28.448005 v 9.13742 9.13743 h 2.77812 2.77813 v -3.70416 -3.70417 h 0.76584 c 1.06801,0 1.70541,0.75884 3.58066,4.26227 l 1.61334,3.01377 3.10575,0.0744 c 1.70801,0.041 3.10524,-0.004 3.10524,-0.0992 0,-0.31963 -2.72896,-5.25451 -3.39669,-6.14227 -0.36218,-0.48151 -1.00473,-1.05451 -1.42782,-1.2733 l -0.76946,-0.39791 1.3596,-0.67748 c 1.55677,-0.77577 2.53997,-2.06623 2.7926,-3.66593 0.37586,-2.38 -1.0885,-4.83119 -3.20446,-5.36349 -0.57329,-0.14422 -3.75098,-0.33775 -7.06158,-0.42995 z m 5.55625,3.72277 h 1.94872 c 1.57081,0 2.08388,0.10625 2.64583,0.54828 0.88222,0.69396 0.90032,1.65353 0.0475,2.50631 -0.57476,0.57473 -0.87898,0.64958 -2.64583,0.64958 h -1.99626 v -1.85209 z"
       style="fill:#0a7952;fill-opacity:1;stroke:#ffffff;stroke-width:0.1;stroke-miterlimit:4;stroke-dasharray:none"
       inkscape:export-xdpi="240"
       inkscape:export-ydpi="240" />
    <path
       inkscape:connector-curvature="0"
       id="path1176"
       d="m 164.37123,-19.235085 0.0696,-9.06198 7.47448,-0.0703 7.47448,-0.0703 v 1.98849 1.9885 h -4.7625 -4.7625 v 1.45521 1.45521 h 4.36562 4.36563 v 1.85208 1.85208 h -4.37772 -4.37771 l 0.0782,1.78594 0.0782,1.78594 4.82865,0.0721 4.82864,0.0721 v 1.9784 1.97841 h -7.67639 -7.67639 z"
       style="fill:#0a7952;fill-opacity:1;stroke:#ffffff;stroke-width:0.1;stroke-miterlimit:4;stroke-dasharray:none"
       inkscape:export-xdpi="240"
       inkscape:export-ydpi="240" />
    <path
       inkscape:connector-curvature="0"
       id="path1178"
       d="m 182.82939,-19.301185 v -9.12812 h 2.77813 2.77812 v 3.30729 3.30729 h 3.04271 3.04271 v -3.30729 -3.30729 h 2.77812 2.77813 v 9.12812 9.12813 h -2.77813 -2.77812 v -3.70417 -3.70416 h -3.04271 -3.04271 v 3.70416 3.70417 h -2.77812 -2.77813 z"
       style="fill:#0a7952;fill-opacity:1;stroke:#ffffff;stroke-width:0.1;stroke-miterlimit:4;stroke-dasharray:none"
       inkscape:export-xdpi="240"
       inkscape:export-ydpi="240" />
    <path
       inkscape:connector-curvature="0"
       id="path1180"
       d="m 264.58564,-19.301185 v -9.12812 h 7.54063 7.54062 v 1.98437 1.98438 h -4.7625 -4.7625 v 1.45521 1.45521 h 4.36563 4.36562 v 1.85208 1.85208 h -4.36562 -4.36563 v 1.85209 1.85208 h 4.8948 4.89479 v 1.98437 1.98438 h -7.67292 -7.67292 z"
       style="fill:#0a7952;fill-opacity:1;stroke:#ffffff;stroke-width:0.1;stroke-miterlimit:4;stroke-dasharray:none"
       inkscape:export-xdpi="240"
       inkscape:export-ydpi="240" />
    <path
       sodipodi:nodetypes="cccccccccccccscccccsccccs"
       style="fill:#333333;stroke-width:0.26458332"
       d="m 70.538779,-7.4858445 -6.68073,-4.0015705 v -7.891 -7.891 l 6.63303,3.98439 c 3.64817,2.19141 6.68613,4.12277 6.75104,4.29191 0.0649,0.16913 0.0864,3.72782 0.0477,7.90818 l -0.0703,7.6006705 z m 9.45885,-3.8678005 v -7.89016 l 6.38652,-3.29599 c 3.51258,-1.8128 6.48914,-3.33568 6.61458,-3.38419 0.12544,-0.0485 0.22807,3.43133 0.22807,7.73296 v 7.82116 l -0.59532,0.36712 c -0.32742,0.2019205 -3.30398,1.7558605 -6.61458,3.4531905 l -6.01927,3.08607 z m -7.89152,-14.07555 c -3.39445,-2.1529 -6.16698,-4.01809 -6.16118,-4.14486 0.0181,-0.39672 11.98727,-6.485148 12.42147,-6.318528 0.69796,0.26783 13.00845,7.649608 13.00564,7.798608 -0.004,0.18706 -12.55386,6.63034 -12.85847,6.60148 -0.12965,-0.0123 -3.01301,-1.7838 -6.40746,-3.9367 z"
       id="path1182"
       inkscape:connector-curvature="0"
       inkscape:export-xdpi="240"
       inkscape:export-ydpi="240" />
    <path
       inkscape:export-ydpi="240"
       inkscape:export-xdpi="240"
       inkscape:export-filename="C:\Work\_Portfolio\ASP.NETCore_and_Angular\MyWarehouse\.github\logo.png"
       inkscape:connector-curvature="0"
       id="path890"
       d="m 30.247391,125.90847 c -1.343,5.27223 -2.51712,9.81637 -2.60914,10.09809 -0.15133,0.46329 0.15259,0.51222 3.18167,0.51222 3.19454,0 3.35744,-0.0303 3.53226,-0.65857 0.10079,-0.36221 0.65932,-2.83174 1.24116,-5.48784 0.58184,-2.65608 1.09422,-4.86087 1.13861,-4.89952 0.0444,-0.0386 0.89152,2.43088 1.88251,5.48783 l 1.80179,5.5581 h 3.28911 3.28911 l 0.34788,-1.09762 c 2.50972,-7.91852 3.29617,-10.04986 3.47219,-9.40971 0.10612,0.38606 0.67455,2.90816 1.26313,5.60464 l 1.07013,4.90269 h 3.332 c 3.28465,0 3.32941,-0.009 3.15162,-0.65857 -0.4205,-1.53547 -4.87662,-19.25165 -4.87662,-19.38801 0,-0.0823 -1.56973,-0.14959 -3.48829,-0.14959 h -3.48828 l -2.01337,6.18483 c -1.10735,3.40165 -2.09165,6.06885 -2.18735,5.92713 -0.16016,-0.23724 -2.72806,-7.98126 -3.60379,-10.86799 l -0.37738,-1.24397 h -3.45355 -3.45356 z"
       style="fill:#333333;fill-opacity:1;stroke:#ffffff;stroke-width:0.11857602;stroke-miterlimit:4;stroke-dasharray:none" />
    <path
       inkscape:export-ydpi="240"
       inkscape:export-xdpi="240"
       inkscape:export-filename="C:\Work\_Portfolio\ASP.NETCore_and_Angular\MyWarehouse\.github\logo.png"
       inkscape:connector-curvature="0"
       id="path892"
       d="m 212.93497,116.81999 c -2.72101,0.0108 -5.33236,0.95574 -6.87813,2.5709 -3.19745,3.34092 -3.16104,10.22181 0.0718,13.55059 1.15827,1.19265 2.21367,1.76061 4.08089,2.19625 1.82138,0.42494 5.28277,0.2703 6.93084,-0.31006 1.81904,-0.64057 3.43131,-2.18756 4.32842,-4.15272 0.68975,-1.51101 0.76249,-1.94534 0.77049,-4.58473 0.008,-2.76935 -0.0348,-3.00389 -0.86041,-4.68137 -1.3292,-2.7008 -3.08197,-3.88949 -6.55412,-4.44417 -0.62782,-0.1003 -1.26188,-0.14719 -1.88981,-0.14469 z m 0.25063,4.14651 c 0.598,0.0153 1.18915,0.17226 1.70584,0.48731 1.33551,0.81431 1.74497,1.67316 1.87482,3.93619 0.14339,2.49934 -0.27169,4.14335 -1.28467,5.08962 -1.29939,1.21381 -3.6586,1.14128 -5.01003,-0.15348 -1.41071,-1.35154 -1.75597,-5.61546 -0.61495,-7.59179 0.66466,-1.15123 2.0134,-1.80159 3.32899,-1.76785 z"
       style="fill:#0a7952;fill-opacity:1;stroke:#ffffff;stroke-width:0.1;stroke-miterlimit:4;stroke-dasharray:none" />
    <path
       inkscape:export-ydpi="240"
       inkscape:export-xdpi="240"
       inkscape:export-filename="C:\Work\_Portfolio\ASP.NETCore_and_Angular\MyWarehouse\.github\logo.png"
       inkscape:connector-curvature="0"
       id="path894"
       d="m 231.4505,135.23694 c -1.66722,-0.26342 -3.5286,-1.30564 -4.40543,-2.46668 -1.25539,-1.6623 -1.48964,-3.19796 -1.48964,-9.76556 v -6.03739 h 2.77812 2.77813 v 6.09855 c 0,7.70516 0.18443,8.18895 3.12192,8.18895 1.65141,0 2.57614,-0.68023 2.98666,-2.197 0.19492,-0.72021 0.26688,-3.01592 0.20481,-6.53425 l -0.0957,-5.42396 2.71198,-0.0754 2.71198,-0.0754 v 6.17894 c 0,7.42834 -0.18497,8.34102 -2.07042,10.21549 -0.68793,0.68392 -1.70657,1.38167 -2.2952,1.57216 -1.33535,0.43214 -5.12542,0.60782 -6.93722,0.32155 z"
       style="fill:#0a7952;fill-opacity:1;stroke:#ffffff;stroke-width:0.1;stroke-miterlimit:4;stroke-dasharray:none" />
    <path
       inkscape:export-ydpi="240"
       inkscape:export-xdpi="240"
       inkscape:export-filename="C:\Work\_Portfolio\ASP.NETCore_and_Angular\MyWarehouse\.github\logo.png"
       inkscape:connector-curvature="0"
       id="path896"
       d="m 251.02613,135.22674 c -2.89164,-0.6162 -4.64112,-2.36589 -5.22811,-5.22874 l -0.1763,-0.8599 1.67466,-0.003 c 0.92107,-0.002 2.09873,-0.0731 2.61703,-0.15882 0.91287,-0.15103 0.95225,-0.12288 1.25864,0.89975 0.63941,2.13415 3.59433,2.90706 5.06772,1.32556 1.30436,-1.40006 0.24623,-2.58753 -3.13915,-3.52287 -5.01856,-1.38657 -6.65041,-2.80434 -6.63876,-5.76783 0.01,-2.53327 2.13227,-4.46375 5.41961,-4.92973 5.14119,-0.72876 8.39889,0.75412 9.41122,4.28391 0.267,0.93099 0.23875,0.94181 -2.73053,1.04534 -1.78788,0.0623 -2.31514,8e-4 -2.3151,-0.27035 1e-5,-0.1931 -0.34799,-0.69911 -0.77336,-1.12448 -0.62161,-0.62161 -1.00302,-0.7734 -1.94337,-0.7734 -0.79743,0 -1.3094,0.15407 -1.60785,0.48385 -1.07229,1.18486 -0.30823,1.89362 2.86941,2.66172 3.29432,0.79631 5.53502,1.92546 6.39266,3.22144 1.87042,2.8264 0.51178,6.72621 -2.84666,8.17098 -1.55148,0.66742 -5.39584,0.95475 -7.31176,0.54648 z"
       style="fill:#0a7952;fill-opacity:1;stroke:#ffffff;stroke-width:0.1;stroke-miterlimit:4;stroke-dasharray:none" />
    <path
       inkscape:export-ydpi="240"
       inkscape:export-xdpi="240"
       inkscape:export-filename="C:\Work\_Portfolio\ASP.NETCore_and_Angular\MyWarehouse\.github\logo.png"
       inkscape:connector-curvature="0"
       id="path898"
       d="m 100.1751,126.55846 c -1.056679,-4.76581 -1.980469,-8.87347 -2.052879,-9.12813 -0.11907,-0.41879 0.12007,-0.46302 2.503339,-0.46302 2.51346,0 2.64164,0.0274 2.77919,0.59531 0.0793,0.32742 0.51875,2.55974 0.97654,4.96071 0.45779,2.40096 0.86092,4.39397 0.89586,4.42891 0.0349,0.0349 0.70145,-2.19739 1.48115,-4.96071 l 1.41766,-5.02422 h 2.58787 2.58786 l 0.27372,0.99219 c 1.97463,7.15792 2.59342,9.08453 2.7319,8.50587 0.0835,-0.34898 0.53075,-2.62882 0.99384,-5.06629 l 0.84198,-4.43177 h 2.62161 c 2.58436,0 2.61959,0.008 2.4797,0.59531 -0.33086,1.38798 -3.83693,17.40246 -3.83693,17.52572 0,0.0744 -1.23506,0.13522 -2.74458,0.13522 h -2.74458 l -1.58411,-5.59075 c -0.87126,-3.07491 -1.64571,-5.48592 -1.721,-5.35781 -0.12602,0.21445 -2.14644,7.21463 -2.83546,9.82408 l -0.29692,1.12448 h -2.71727 -2.71726 z"
       style="fill:#0a7952;fill-opacity:1;stroke:#ffffff;stroke-width:0.1;stroke-miterlimit:4;stroke-dasharray:none" />
    <path
       inkscape:export-ydpi="240"
       inkscape:export-xdpi="240"
       inkscape:export-filename="C:\Work\_Portfolio\ASP.NETCore_and_Angular\MyWarehouse\.github\logo.png"
       inkscape:connector-curvature="0"
       id="path900"
       d="m 133.32227,116.96726 c -1.65925,0 -3.01686,0.049 -3.01686,0.10852 0,0.0595 -1.53496,4.16667 -3.41117,9.12761 l -3.41116,9.02012 h 2.84685 2.84737 l 0.44752,-1.59525 0.44804,-1.59577 3.21634,0.0744 3.21582,0.0739 0.4377,1.45521 0.4377,1.45521 2.93626,0.0749 2.93625,0.0744 -0.62942,-1.66192 c -0.34615,-0.91423 -1.7825,-4.69853 -3.19205,-8.4093 -1.40955,-3.71079 -2.68217,-7.07429 -2.82774,-7.47448 l -0.26458,-0.72761 z m -0.032,4.89479 1.01544,3.175 c 0.55849,1.74625 1.01803,3.20475 1.02113,3.24115 0.003,0.0363 -0.88729,0.0661 -1.97869,0.0661 -1.09141,0 -1.98438,-0.0806 -1.98438,-0.17932 0,-0.0987 0.43348,-1.55719 0.96325,-3.24115 z"
       style="fill:#0a7952;fill-opacity:1;stroke:#ffffff;stroke-width:0.1;stroke-miterlimit:4;stroke-dasharray:none" />
    <path
       inkscape:export-ydpi="240"
       inkscape:export-xdpi="240"
       inkscape:export-filename="C:\Work\_Portfolio\ASP.NETCore_and_Angular\MyWarehouse\.github\logo.png"
       inkscape:connector-curvature="0"
       id="path902"
       d="m 145.12207,116.94866 v 9.13742 9.13743 h 2.77812 2.77813 v -3.70416 -3.70417 h 0.76584 c 1.06801,0 1.70541,0.75884 3.58066,4.26227 l 1.61334,3.01377 3.10575,0.0744 c 1.70801,0.041 3.10524,-0.004 3.10524,-0.0992 0,-0.31963 -2.72896,-5.25451 -3.39669,-6.14227 -0.36218,-0.48151 -1.00473,-1.05451 -1.42782,-1.2733 l -0.76946,-0.39791 1.3596,-0.67748 c 1.55677,-0.77577 2.53997,-2.06623 2.7926,-3.66593 0.37586,-2.38 -1.0885,-4.83119 -3.20446,-5.36349 -0.57329,-0.14422 -3.75098,-0.33775 -7.06158,-0.42995 z m 5.55625,3.72277 h 1.94872 c 1.57081,0 2.08388,0.10625 2.64583,0.54828 0.88222,0.69396 0.90032,1.65353 0.0475,2.50631 -0.57476,0.57473 -0.87898,0.64958 -2.64583,0.64958 h -1.99626 v -1.85209 z"
       style="fill:#0a7952;fill-opacity:1;stroke:#ffffff;stroke-width:0.1;stroke-miterlimit:4;stroke-dasharray:none" />
    <path
       inkscape:export-ydpi="240"
       inkscape:export-xdpi="240"
       inkscape:export-filename="C:\Work\_Portfolio\ASP.NETCore_and_Angular\MyWarehouse\.github\logo.png"
       inkscape:connector-curvature="0"
       id="path904"
       d="m 164.76394,126.16158 0.0696,-9.06198 7.47448,-0.0703 7.47448,-0.0703 v 1.98849 1.9885 h -4.7625 -4.7625 v 1.45521 1.45521 h 4.36562 4.36563 v 1.85208 1.85208 h -4.37772 -4.37771 l 0.0782,1.78594 0.0782,1.78594 4.82865,0.0721 4.82864,0.0721 v 1.9784 1.97841 h -7.67639 -7.67639 z"
       style="fill:#0a7952;fill-opacity:1;stroke:#ffffff;stroke-width:0.1;stroke-miterlimit:4;stroke-dasharray:none" />
    <path
       inkscape:export-ydpi="240"
       inkscape:export-xdpi="240"
       inkscape:export-filename="C:\Work\_Portfolio\ASP.NETCore_and_Angular\MyWarehouse\.github\logo.png"
       inkscape:connector-curvature="0"
       id="path906"
       d="m 183.22209,126.09548 v -9.12812 h 2.77813 2.77812 v 3.30729 3.30729 h 3.04271 3.04271 v -3.30729 -3.30729 h 2.77812 2.77813 v 9.12812 9.12813 h -2.77813 -2.77812 v -3.70417 -3.70416 h -3.04271 -3.04271 v 3.70416 3.70417 h -2.77812 -2.77813 z"
       style="fill:#0a7952;fill-opacity:1;stroke:#ffffff;stroke-width:0.1;stroke-miterlimit:4;stroke-dasharray:none" />
    <path
       inkscape:export-ydpi="240"
       inkscape:export-xdpi="240"
       inkscape:export-filename="C:\Work\_Portfolio\ASP.NETCore_and_Angular\MyWarehouse\.github\logo.png"
       inkscape:connector-curvature="0"
       id="path908"
       d="m 264.97834,126.09548 v -9.12812 h 7.54063 7.54062 v 1.98437 1.98438 h -4.7625 -4.7625 v 1.45521 1.45521 h 4.36563 4.36562 v 1.85208 1.85208 h -4.36562 -4.36563 v 1.85209 1.85208 h 4.8948 4.89479 v 1.98437 1.98438 h -7.67292 -7.67292 z"
       style="fill:#0a7952;fill-opacity:1;stroke:#ffffff;stroke-width:0.1;stroke-miterlimit:4;stroke-dasharray:none" />
    <path
       inkscape:export-ydpi="240"
       inkscape:export-xdpi="240"
       inkscape:export-filename="C:\Work\_Portfolio\ASP.NETCore_and_Angular\MyWarehouse\.github\logo.png"
       sodipodi:nodetypes="cccccccccc"
       inkscape:connector-curvature="0"
       id="path910"
       d="m 27.767401,139.71491 v 4.00906 h 43.13919 l -6.0601,-4.00906 z m 65.62456,0 -6.57014,4.00906 H 280.20825 v -4.00906 z"
       style="opacity:1;fill:#000000;fill-opacity:0.11764706;stroke:none;stroke-width:0.14490566;stroke-miterlimit:4;stroke-dasharray:none;stroke-dashoffset:0;stroke-opacity:0.63239435" />
    <path
       inkscape:export-ydpi="240"
       inkscape:export-xdpi="240"
       inkscape:export-filename="C:\Work\_Portfolio\ASP.NETCore_and_Angular\MyWarehouse\.github\logo.png"
       sodipodi:nodetypes="cccccccccccccscccccsccccs"
       style="fill:#333333;stroke-width:0.26458332"
       d="m 70.931471,137.91082 -6.68073,-4.00157 v -7.891 -7.891 l 6.63303,3.98439 c 3.64817,2.19141 6.68613,4.12277 6.75104,4.29191 0.0649,0.16913 0.0864,3.72782 0.0477,7.90818 l -0.0703,7.60067 z m 9.45885,-3.8678 v -7.89016 l 6.38652,-3.29599 c 3.51258,-1.8128 6.48914,-3.33568 6.61458,-3.38419 0.12544,-0.0485 0.22807,3.43133 0.22807,7.73296 v 7.82116 l -0.59532,0.36712 c -0.32742,0.20192 -3.30398,1.75586 -6.61458,3.45319 l -6.01927,3.08607 z m -7.89152,-14.07555 c -3.39445,-2.1529 -6.16698,-4.01809 -6.16118,-4.14486 0.0181,-0.39672 11.98727,-6.48515 12.42147,-6.31853 0.69796,0.26783 13.00845,7.64961 13.00564,7.79861 -0.004,0.18706 -12.55386,6.63034 -12.85847,6.60148 -0.12965,-0.0123 -3.01301,-1.7838 -6.40746,-3.9367 z"
       id="path912"
       inkscape:connector-curvature="0" />
    <text
       xml:space="preserve"
       style="font-style:normal;font-weight:normal;font-size:14.11111069px;line-height:1.25;font-family:sans-serif;letter-spacing:0px;word-spacing:0px;fill:#000000;fill-opacity:0.78431373;stroke:none;stroke-width:0.26458332"
       x="29.528572"
       y="171.78337"
       id="text918"><tspan
         sodipodi:role="line"
         x="29.528572"
         y="171.78337"
         style="font-style:normal;font-variant:normal;font-weight:normal;font-stretch:normal;font-size:9.17222214px;line-height:0em;font-family:Consolas;-inkscape-font-specification:'Consolas, Normal';font-variant-ligatures:normal;font-variant-caps:normal;font-variant-numeric:normal;font-feature-settings:normal;text-align:start;writing-mode:lr-tb;text-anchor:start;fill:#000000;fill-opacity:0.78431373;stroke-width:0.26458332"
         id="tspan920">Username: User</tspan></text>
    <text
       id="text926"
       y="182.36656"
       x="29.528572"
       style="font-style:normal;font-weight:normal;font-size:14.11111069px;line-height:1.25;font-family:sans-serif;letter-spacing:0px;word-spacing:0px;fill:#000000;fill-opacity:0.78431373;stroke:none;stroke-width:0.26458332"
       xml:space="preserve"><tspan
         id="tspan924"
         style="font-style:normal;font-variant:normal;font-weight:normal;font-stretch:normal;font-size:9.17222214px;line-height:0em;font-family:Consolas;-inkscape-font-specification:'Consolas, Normal';font-variant-ligatures:normal;font-variant-caps:normal;font-variant-numeric:normal;font-feature-settings:normal;text-align:start;writing-mode:lr-tb;text-anchor:start;fill:#000000;fill-opacity:0.78431373;stroke-width:0.26458332"
         y="182.36656"
         x="29.528572"
         sodipodi:role="line">Password: Warehouse!1</tspan></text>
    <path
       style="fill:#000000;fill-opacity:0.31372549;stroke:none;stroke-width:0.09295035"
       d="m 188.90987,260.186 c -0.3409,-0.1482 -0.67503,-0.63209 -0.67503,-0.9776 0,-0.28619 0.2976,-0.79066 0.54429,-0.9227 0.15903,-0.0851 0.16956,-0.13396 0.08,-0.37118 -0.0777,-0.20576 -0.0748,-0.33536 0.0118,-0.52514 0.10159,-0.22295 0.0903,-0.27809 -0.0983,-0.47879 -0.18688,-0.19893 -0.21309,-0.32189 -0.21309,-0.99966 0,-0.86713 0.10994,-1.07905 0.68628,-1.32283 0.43071,-0.18218 2.61346,-0.0739 2.61346,0.12963 0,0.0724 -0.12528,0.17534 -0.27838,0.22872 -0.24468,0.0853 -0.27,0.12692 -0.20915,0.34373 0.13118,0.4673 0.0652,1.2142 -0.13091,1.4817 -0.26917,0.36722 -0.74679,0.5772 -1.3132,0.57737 -0.35988,1e-4 -0.50583,0.039 -0.54681,0.14582 -0.096,0.25023 0.11409,0.34163 1.06999,0.46541 0.99512,0.12887 1.24607,0.23152 1.40184,0.5734 0.28461,0.62463 -0.0491,1.35593 -0.73955,1.6205 -0.51933,0.19902 -1.77661,0.21706 -2.20318,0.0316 z m 2.18653,-0.57671 c 0.18762,-0.13953 0.25868,-0.28182 0.27953,-0.55962 0.0258,-0.34391 0.004,-0.38224 -0.27755,-0.49906 -0.16995,-0.0704 -0.64274,-0.12781 -1.06562,-0.12941 -0.67855,-0.002 -0.78593,0.0213 -1.00052,0.22247 -0.40192,0.37676 -0.2916,0.94471 0.22437,1.155 0.0767,0.0313 0.4654,0.0435 0.86382,0.0272 0.54793,-0.0223 0.78569,-0.0751 0.97597,-0.21664 z m -0.70225,-2.82218 c 0.19111,-0.053 0.38979,-0.17558 0.44151,-0.27223 0.12059,-0.22532 0.12173,-0.98499 0.002,-1.20906 -0.21503,-0.40177 -1.29437,-0.46222 -1.63006,-0.0913 -0.20676,0.22847 -0.27193,0.90759 -0.11549,1.20352 0.22398,0.42372 0.66022,0.54735 1.30222,0.36906 z m -31.95059,1.57649 c -0.60688,-0.15024 -1.08229,-0.54294 -1.39317,-1.15081 -0.26776,-0.52356 -0.27993,-0.59862 -0.27993,-1.72521 0,-1.1625 0.004,-1.18611 0.32532,-1.81625 0.29473,-0.57839 0.37721,-0.66491 0.87704,-0.92012 0.49228,-0.25137 0.63746,-0.28098 1.34778,-0.27494 0.43784,0.004 0.95699,0.0606 1.15366,0.12638 l 0.35758,0.1196 -0.063,0.41998 c -0.0976,0.65125 -0.10799,0.66321 -0.49522,0.57325 -0.57662,-0.13397 -1.25096,-0.0971 -1.59445,0.0871 -0.48902,0.26225 -0.66519,0.69374 -0.66782,1.63552 -0.004,1.35885 0.38064,1.86366 1.37134,1.80077 l 0.45511,-0.0289 0.0279,-0.53446 0.0279,-0.53447 h -0.42292 -0.42291 v -0.5577 -0.5577 h 1.02245 1.02246 v 1.49244 1.49243 l -0.44151,0.19644 c -0.50493,0.22464 -1.61477,0.3034 -2.20758,0.15665 z m 6.3155,0.002 c -0.15618,-0.0454 -0.38623,-0.19126 -0.51123,-0.32414 -0.21163,-0.22501 -0.22937,-0.32102 -0.25807,-1.3963 l -0.0308,-1.15467 h -0.31775 c -0.31432,0 -0.31775,-0.005 -0.31775,-0.41563 0,-0.39095 0.0179,-0.42024 0.3021,-0.49354 0.2959,-0.0763 0.30265,-0.0898 0.32987,-0.65763 l 0.0277,-0.57969 0.57639,0.0275 0.5764,0.0275 0.0278,0.53446 0.0279,0.53447 h 0.41363 0.41364 v 0.51123 0.51122 h -0.41828 -0.41827 v 0.86444 c 0,0.96387 0.0603,1.08752 0.52981,1.08752 0.30507,0 0.30674,0.002 0.30674,0.45313 0,0.43315 -0.0128,0.45569 -0.29047,0.51123 -0.36688,0.0734 -0.61091,0.063 -0.96948,-0.0412 z m 7.34821,-0.003 c -0.72268,-0.22199 -0.79008,-0.41927 -0.79008,-2.31261 v -1.5907 l 0.58093,0.0277 0.58094,0.0277 0.0259,1.34145 c 0.0154,0.79555 0.0673,1.39132 0.12758,1.46398 0.12141,0.14629 0.57736,0.16076 0.82862,0.0263 0.1655,-0.0886 0.17979,-0.20716 0.17979,-1.49164 v -1.39542 l 0.58095,0.0277 0.58093,0.0277 v 1.90549 1.90548 l -0.39504,0.0286 c -0.31797,0.023 -0.39504,-0.002 -0.39504,-0.12613 0,-0.11165 -0.0453,-0.13552 -0.16266,-0.0857 -0.7879,0.33408 -1.20197,0.38642 -1.74281,0.22029 z m 4.9037,0.0166 c -0.16584,-0.042 -0.36583,-0.12978 -0.44442,-0.19501 -0.11793,-0.0979 -0.16336,-0.0906 -0.25989,0.0414 -0.0845,0.11561 -0.21911,0.15166 -0.48509,0.12998 l -0.3681,-0.0301 -0.0246,-2.81175 -0.0246,-2.81175 h 0.59291 0.5929 l 0.0591,0.43125 c 0.0325,0.23718 0.0591,0.65994 0.0591,0.93945 0,0.44844 0.0191,0.50005 0.16266,0.43885 0.0895,-0.0381 0.40083,-0.0893 0.69193,-0.11369 1.06809,-0.0895 1.51706,0.5098 1.51364,2.02045 -0.002,0.98677 -0.16813,1.46904 -0.61849,1.79798 -0.2776,0.20274 -0.97841,0.28161 -1.44708,0.16285 z m 0.6668,-1.05985 c 0.12625,-0.0923 0.17841,-0.28435 0.20828,-0.76683 0.0618,-0.99758 -0.16498,-1.26097 -0.95755,-1.11228 l -0.31314,0.0587 v 0.8742 c 0,0.73451 0.026,0.88934 0.16266,0.96894 0.23053,0.13428 0.70127,0.12236 0.89975,-0.0228 z m 8.0226,1.01277 c -0.47845,-0.17073 -0.60836,-0.29613 -0.73108,-0.70576 -0.19025,-0.63501 0.0356,-1.1713 0.61578,-1.46215 0.10224,-0.0512 0.51007,-0.1228 0.90627,-0.15898 l 0.72036,-0.0658 v -0.27703 c 0,-0.15236 -0.042,-0.35539 -0.0932,-0.45116 -0.12244,-0.22877 -0.77789,-0.32574 -1.36105,-0.20137 -0.33298,0.071 -0.46637,0.0674 -0.51805,-0.014 -0.11373,-0.17906 -0.031,-0.28894 0.30616,-0.40642 0.77571,-0.27033 1.83531,-0.0454 2.08798,0.44317 0.19365,0.37448 0.1993,3.33931 0.006,3.33931 -0.0712,0 -0.15153,-0.0574 -0.17847,-0.12766 -0.0403,-0.10529 -0.1358,-0.0977 -0.54441,0.0434 -0.58837,0.2032 -0.75445,0.20925 -1.21666,0.0443 z m 0.95363,-0.4257 c 0.17893,-0.051 0.38145,-0.12883 0.45004,-0.17291 0.15554,-0.0999 0.23764,-0.66863 0.1579,-1.09368 l -0.0602,-0.32081 -0.57596,0.0629 c -0.63869,0.0698 -1.03483,0.23234 -1.1224,0.46056 -0.17467,0.45516 0.0476,1.01827 0.43106,1.09222 0.35416,0.0683 0.38499,0.0671 0.71955,-0.0283 z m 6.56409,0.46813 c -0.38167,-0.12244 -0.68005,-0.43376 -0.85515,-0.89225 -0.20021,-0.52426 -0.1508,-1.8001 0.0887,-2.28972 0.43853,-0.89655 2.09252,-0.97063 2.58559,-0.1158 0.0899,0.15584 0.19143,0.58457 0.22565,0.95274 l 0.0622,0.6694 h -1.26819 c -1.21288,0 -1.26817,0.008 -1.26817,0.18888 0,0.31768 0.25138,0.81233 0.47313,0.93101 0.14022,0.075 0.48263,0.0969 1.03032,0.0656 0.7514,-0.0428 0.82031,-0.0324 0.82031,0.12418 0,0.094 -0.0797,0.21361 -0.17703,0.26572 -0.25242,0.13508 -1.39995,0.20205 -1.71736,0.10022 z m 1.4833,-2.53542 c -0.0867,-0.54319 -0.26358,-0.7778 -0.63139,-0.83749 -0.70953,-0.11515 -1.16661,0.19511 -1.25467,0.85159 l -0.0511,0.38094 h 1.0001 1.0001 z m 1.85182,2.58017 c -0.0512,-0.017 -0.20798,-0.0563 -0.34857,-0.0874 -0.19232,-0.0424 -0.25561,-0.1117 -0.25561,-0.27981 0,-0.22048 0.009,-0.22276 0.6869,-0.17149 1.05687,0.0799 1.45096,-0.0908 1.45096,-0.62848 0,-0.34216 -0.24822,-0.50812 -0.95043,-0.63545 -0.61775,-0.11201 -1.04761,-0.31221 -1.1297,-0.5261 -0.11033,-0.28754 -0.0568,-0.88682 0.1007,-1.12719 0.21667,-0.33069 0.66252,-0.49705 1.30255,-0.48601 0.79682,0.0138 0.9968,0.0909 1.03248,0.39837 0.0291,0.25081 0.0183,0.25825 -0.27885,0.1928 -0.46271,-0.10188 -1.37489,-0.0682 -1.52499,0.0564 -0.0726,0.0602 -0.13192,0.2666 -0.13192,0.45862 0,0.39776 0.16601,0.50122 0.95434,0.59482 0.9075,0.10775 1.24063,0.47169 1.15428,1.26102 -0.0528,0.482 -0.33066,0.77595 -0.87718,0.92772 -0.32907,0.0914 -0.98125,0.12008 -1.18496,0.0521 z m -34.80992,-1.99923 v -1.96083 l 0.58095,0.0277 0.58094,0.0277 v 1.90549 1.90548 l -0.58094,0.0278 -0.58095,0.0277 z m 4.89539,1.88999 c -0.0341,-0.0341 -0.062,-1.30983 -0.062,-2.83498 v -2.77303 h 0.60418 0.60418 v 1.02246 1.02245 h 0.83655 0.83655 v -1.02245 -1.02246 h 0.60418 0.60418 v 2.835 2.83498 h -0.60148 -0.60149 l -0.0259,-1.2274 -0.026,-1.22737 -0.60418,0.0141 c -0.33229,0.008 -0.69829,0.0163 -0.81331,0.019 -0.2059,0.005 -0.20914,0.0236 -0.20914,1.21333 v 1.20835 h -0.54221 c -0.29822,0 -0.5701,-0.0279 -0.60418,-0.062 z m 14.15945,-2.76508 v -2.83938 l 0.24514,-0.0615 c 0.37907,-0.0951 2.11185,0.0305 2.46702,0.17893 0.66612,0.27832 0.97953,0.91895 0.89253,1.82435 -0.0949,0.98788 -0.71813,1.39566 -2.13787,1.39887 l -0.9034,0.002 -0.0261,1.13865 -0.0261,1.13863 -0.25561,0.0294 -0.25561,0.0294 v -2.83938 z m 2.58168,-0.14776 c 0.36461,-0.2223 0.48568,-0.50407 0.48568,-1.13035 0,-0.4083 -0.0403,-0.50832 -0.31604,-0.78403 l -0.31603,-0.31603 h -0.9388 -0.9388 v 1.20835 1.20835 l 0.85979,-3.4e-4 c 0.69531,-2.8e-4 0.91804,-0.0359 1.1642,-0.18595 z m -21.49093,-1.42572 c -0.30106,-0.30107 -0.30492,-0.65379 -0.0104,-0.94835 0.44472,-0.44471 1.11033,-0.16996 1.11033,0.45833 0,0.39832 -0.16092,0.58845 -0.56672,0.66961 -0.2386,0.0478 -0.34008,0.0135 -0.53322,-0.17959 z m 11.55097,-4.31706 c -1.67894,-0.85156 -2.70431,-1.77002 -3.75279,-3.36152 -1.91019,-2.89949 -1.94046,-6.93682 -0.0745,-9.93314 0.92889,-1.49157 2.65738,-2.9686 4.24975,-3.6315 1.2413,-0.51676 2.23877,-0.69982 3.77546,-0.69292 1.13848,0.005 1.48788,0.0432 2.24994,0.24487 3.33028,0.88153 5.77558,3.31954 6.69152,6.67153 0.18452,0.67525 0.21411,1.0024 0.21386,2.36387 -2.7e-4,1.38066 -0.0283,1.67991 -0.22158,2.37024 -0.80705,2.88129 -2.76962,5.13377 -5.43765,6.24087 -0.69791,0.2896 -1.00397,0.3291 -1.15356,0.14885 -0.0574,-0.0692 -0.10945,-0.85474 -0.12765,-1.92872 -0.0282,-1.66117 -0.0481,-1.8463 -0.24014,-2.22518 -0.11518,-0.22729 -0.17788,-0.44026 -0.13934,-0.47328 0.0386,-0.033 0.32105,-0.11372 0.62779,-0.17935 1.15551,-0.24724 2.2202,-0.87555 2.66107,-1.57037 0.6158,-0.97053 0.88774,-2.70152 0.60071,-3.82378 -0.085,-0.33231 -0.29841,-0.8216 -0.4743,-1.08734 -0.31292,-0.4728 -0.3177,-0.49442 -0.22257,-1.009 0.0972,-0.52576 0.0607,-1.03013 -0.11543,-1.59844 -0.0841,-0.27133 -0.1296,-0.30209 -0.44657,-0.30209 -0.4566,0 -0.93101,0.17201 -1.66683,0.60436 -0.55634,0.32689 -0.61441,0.34177 -0.9295,0.23809 -0.58801,-0.19346 -2.65258,-0.23348 -3.52247,-0.0683 l -0.76967,0.14618 -0.55346,-0.32438 c -1.02697,-0.6019 -1.96905,-0.79105 -2.08711,-0.41906 -0.16342,0.5149 -0.22015,1.26475 -0.13183,1.74254 0.0874,0.47274 0.077,0.54336 -0.12535,0.85485 -0.58302,0.89727 -0.74813,1.65756 -0.62509,2.87812 0.22249,2.20696 1.10866,3.21261 3.29612,3.74052 0.43942,0.10605 0.64451,0.19864 0.63173,0.28517 -0.0252,0.17051 -0.35984,1.09561 -0.41702,1.15279 -0.0248,0.0248 -0.28076,0.0886 -0.56889,0.14184 -0.89407,0.16529 -1.60836,-0.17053 -2.11851,-0.99596 -0.31557,-0.51062 -0.872,-0.86765 -1.35221,-0.86765 -0.53321,0 -0.52341,0.14935 0.041,0.62527 0.284,0.23948 0.55699,0.59549 0.75349,0.98262 0.31051,0.61176 0.58031,0.92441 1.06111,1.22962 0.20999,0.13331 0.45262,0.16484 1.23159,0.16006 l 0.97008,-0.006 0.01,0.38644 c 0.0408,1.65398 -0.004,1.82717 -0.47419,1.82717 -0.14079,0 -0.73326,-0.24208 -1.3166,-0.53794 z"
       id="path939"
       inkscape:connector-curvature="0" />
    <path
       style="fill:#000000;fill-opacity:0.31372549;stroke-width:0.0508943"
       d="m 235.9272,182.92923 c 0.43465,-0.0831 1.86058,-0.33764 3.46082,-0.61772 0.3219,-0.0563 0.82576,-0.14557 1.11967,-0.19829 0.29391,-0.0527 0.80922,-0.14432 1.14512,-0.20357 0.3359,-0.0592 0.85121,-0.15106 1.14512,-0.20402 0.29392,-0.053 0.74638,-0.13393 1.00546,-0.17996 0.25909,-0.046 0.4796,-0.0984 0.49001,-0.1165 0.0104,-0.0181 -0.28173,-0.3903 -0.6492,-0.8272 -0.74355,-0.88404 -2.10444,-2.50491 -3.24886,-3.86952 -0.41407,-0.49375 -0.75285,-0.92139 -0.75285,-0.95032 0,-0.0474 0.26167,-0.79752 0.50933,-1.4601 0.0523,-0.13996 0.47253,-1.29653 0.93381,-2.57016 0.46127,-1.27363 0.86437,-2.3825 0.89576,-2.46416 l 0.0571,-0.14846 0.079,0.11274 c 0.0846,0.12072 0.35764,0.59333 6.80265,11.77253 0.57603,0.99915 1.07252,1.86372 1.10332,1.92126 l 0.056,0.10462 -7.31785,-0.004 c -7.22179,-0.004 -7.3115,-0.006 -6.83435,-0.0968 z m 32.26782,-1.43234 c -0.94293,-0.14054 -1.52657,-0.74301 -1.70857,-1.76369 -0.0516,-0.2895 -0.0705,-0.93742 -0.0718,-2.46658 l -0.002,-2.07394 h 0.4499 0.4499 l 0.0335,1.25963 c 0.0184,0.6928 0.0335,1.62976 0.0336,2.08214 1e-4,0.90223 0.0679,1.24788 0.31647,1.61367 0.3581,0.52699 1.08832,0.72841 1.75568,0.48429 0.38397,-0.14046 0.80911,-0.56907 0.98478,-0.9928 0.12348,-0.29785 0.12403,-0.30733 0.13889,-2.37299 l 0.0149,-2.07394 h 0.48134 0.48135 v 3.10455 3.10456 h -0.48349 -0.4835 v -0.4835 c 0,-0.26592 -0.018,-0.4835 -0.0399,-0.4835 -0.022,0 -0.0772,0.0632 -0.12281,0.14032 -0.41098,0.69573 -1.29415,1.06105 -2.22847,0.92178 z m 11.29322,-0.0668 c -0.41049,-0.11324 -0.84926,-0.38476 -1.16198,-0.71906 -0.50335,-0.53808 -0.74776,-1.20644 -0.80191,-2.19287 -0.0264,-0.48144 -0.0139,-0.64272 0.0822,-1.0587 0.31965,-1.38329 1.20305,-2.27298 2.41011,-2.42727 1.24554,-0.15921 2.24424,0.40788 2.65902,1.50985 0.11385,0.30246 0.12515,0.40598 0.12515,1.14565 v 0.81315 h -2.13455 c -1.40052,0 -2.14563,0.0179 -2.16675,0.0521 -0.0177,0.0286 -0.007,0.21243 0.0231,0.40841 0.15779,1.01696 0.84993,1.68115 1.83826,1.764 0.56627,0.0475 1.44208,-0.18218 1.87771,-0.49237 0.24071,-0.1714 0.26242,-0.14382 0.2462,0.31274 l -0.0148,0.41624 -0.33302,0.16844 c -0.53645,0.27132 -1.03046,0.37396 -1.77451,0.36867 -0.35242,-0.002 -0.74584,-0.0335 -0.87427,-0.069 z m 2.44741,-3.89851 c 0,-0.0852 -0.0366,-0.30083 -0.0814,-0.47913 -0.22016,-0.87645 -0.92673,-1.34905 -1.79317,-1.19937 -0.18661,0.0322 -0.43223,0.1128 -0.5458,0.17903 -0.44218,0.25782 -0.90499,0.93678 -0.97205,1.42605 l -0.0313,0.22837 h 1.71188 1.71187 z m -29.92585,3.82109 c 0,-0.027 0.19726,-0.57097 0.43835,-1.20874 0.2411,-0.63778 0.53757,-1.42297 0.65882,-1.74488 0.12126,-0.3219 0.32574,-0.86011 0.45441,-1.19601 0.12867,-0.33591 0.31189,-0.81686 0.40716,-1.06878 0.0953,-0.25193 0.2646,-0.69853 0.3763,-0.99244 0.1117,-0.29392 0.3535,-0.93107 0.53732,-1.41589 0.18383,-0.48483 0.35788,-0.9257 0.38679,-0.97972 0.0465,-0.0868 0.11073,-0.0982 0.55378,-0.0982 0.43298,0 0.50495,0.0121 0.52861,0.0891 0.0151,0.049 0.0941,0.26083 0.17565,0.47077 0.0815,0.20994 0.33784,0.87411 0.56957,1.47594 0.23173,0.60182 0.49653,1.2889 0.58845,1.52683 0.0919,0.23793 0.34282,0.89065 0.55756,1.45048 0.21474,0.55984 0.444,1.1553 0.50947,1.32326 0.50091,1.28493 0.89191,2.32194 0.89191,2.36551 0,0.032 -0.20041,0.0518 -0.52167,0.0516 l -0.52167,-4.1e-4 -0.46044,-1.23377 -0.46044,-1.23377 h -1.87407 -1.87407 l -0.19636,0.53439 c -0.108,0.29391 -0.30558,0.8493 -0.43907,1.23418 l -0.2427,0.6998 h -0.52183 c -0.30161,0 -0.52183,-0.0207 -0.52183,-0.0491 z m 5.29301,-3.37441 c 0,-0.0355 -0.30799,-0.90657 -0.68442,-1.93572 -0.37643,-1.02916 -0.70317,-1.96596 -0.72607,-2.08179 -0.0562,-0.28419 -0.1455,-0.29847 -0.18465,-0.0295 -0.0175,0.11998 -0.34133,1.06236 -0.71969,2.09418 -0.37836,1.03182 -0.68793,1.90784 -0.68793,1.94671 0,0.0587 0.25428,0.0707 1.50138,0.0707 1.17851,0 1.50138,-0.0139 1.50138,-0.0645 z m 2.79919,3.25279 c 0,-0.14391 0.28737,-0.56611 1.82734,-2.68466 1.00504,-1.38264 1.81672,-2.53108 1.80374,-2.55208 -0.013,-0.021 -0.76657,-0.0382 -1.67466,-0.0382 h -1.65106 v -0.38171 -0.38171 h 2.39203 2.39204 v 0.12552 c 0,0.0841 -0.60293,0.96009 -1.82878,2.65689 -1.00583,1.39226 -1.81751,2.5496 -1.80375,2.57188 0.0138,0.0223 0.82527,0.0405 1.80334,0.0405 h 1.77829 v 0.40715 0.40716 h -2.51927 -2.51926 z m 13.53788,-2.93379 v -3.10455 h 0.45805 0.45805 v 0.58228 c 0,0.32026 0.0194,0.59426 0.0431,0.60889 0.0237,0.0146 0.0981,-0.0918 0.16541,-0.23661 0.37051,-0.7971 0.96511,-1.16137 1.76369,-1.08047 l 0.31809,0.0322 v 0.50558 0.50557 l -0.19085,-0.0839 c -0.11267,-0.0495 -0.32638,-0.0841 -0.52167,-0.0844 -0.38573,-5.6e-4 -0.76656,0.1623 -0.98411,0.42083 -0.16726,0.19878 -0.41891,0.72321 -0.48942,1.01992 -0.0298,0.12519 -0.069,1.08073 -0.0872,2.12342 l -0.0331,1.89582 h -0.44996 -0.44997 z m -42.88659,3.01549 c 0.0128,-0.021 0.89306,-1.54973 1.95607,-3.39719 1.06302,-1.84747 2.158,-3.74944 2.4333,-4.22661 l 0.50054,-0.86758 2.0582,-1.72803 c 1.13201,-0.95041 2.39114,-2.0081 2.79806,-2.35042 0.40691,-0.34231 0.7478,-0.61443 0.75753,-0.60471 0.0176,0.0176 -0.16951,0.42665 -1.41668,3.09664 -0.19961,0.42733 -0.42605,0.91438 -0.5032,1.08233 -0.13453,0.29287 -0.64493,1.38836 -1.74283,3.74073 -0.28088,0.60183 -0.58633,1.25749 -0.67878,1.45703 -0.0924,0.19954 -0.33216,0.71485 -0.53271,1.14512 -0.38537,0.8268 -0.67355,1.44826 -1.02841,2.21782 l -0.21604,0.4685 -2.20418,0.002 c -1.2123,0.001 -2.19369,-0.0149 -2.18087,-0.0359 z"
       id="path973"
       inkscape:connector-curvature="0" />
    <path
       style="fill:#000000;stroke-width:0.26458332"
       d=""
       id="path969"
       inkscape:connector-curvature="0" />
    <path
       style="fill:#000000;stroke-width:0.26458332"
       d=""
       id="path967"
       inkscape:connector-curvature="0" />
    <path
       style="fill:#000000;stroke-width:0.26458332"
       d=""
       id="path965"
       inkscape:connector-curvature="0" />
    <path
       style="fill:#000000;stroke-width:0.26458332"
       d=""
       id="path963"
       inkscape:connector-curvature="0" />
    <path
       inkscape:connector-curvature="0"
       id="path975"
       d="m 212.69686,182.93437 c -0.3409,-0.1482 -0.67503,-0.63209 -0.67503,-0.9776 0,-0.28619 0.2976,-0.79066 0.54429,-0.9227 0.15903,-0.0851 0.16956,-0.13396 0.08,-0.37118 -0.0777,-0.20576 -0.0748,-0.33536 0.0118,-0.52514 0.10159,-0.22295 0.0903,-0.27809 -0.0983,-0.47879 -0.18688,-0.19893 -0.21309,-0.32189 -0.21309,-0.99966 0,-0.86713 0.10994,-1.07905 0.68628,-1.32283 0.43071,-0.18218 2.61346,-0.0739 2.61346,0.12963 0,0.0724 -0.12528,0.17534 -0.27838,0.22872 -0.24468,0.0853 -0.27,0.12692 -0.20915,0.34373 0.13118,0.4673 0.0652,1.2142 -0.13091,1.4817 -0.26917,0.36722 -0.74679,0.5772 -1.3132,0.57737 -0.35988,1e-4 -0.50583,0.039 -0.54681,0.14582 -0.096,0.25023 0.11409,0.34163 1.06999,0.46541 0.99512,0.12887 1.24607,0.23152 1.40184,0.5734 0.28461,0.62463 -0.0491,1.35593 -0.73955,1.6205 -0.51933,0.19902 -1.77661,0.21706 -2.20318,0.0316 z m 2.18653,-0.57671 c 0.18762,-0.13953 0.25868,-0.28182 0.27953,-0.55962 0.0258,-0.34391 0.004,-0.38224 -0.27755,-0.49906 -0.16995,-0.0704 -0.64274,-0.12781 -1.06562,-0.12941 -0.67855,-0.002 -0.78593,0.0213 -1.00052,0.22247 -0.40192,0.37676 -0.2916,0.94471 0.22437,1.155 0.0767,0.0313 0.4654,0.0435 0.86382,0.0272 0.54793,-0.0223 0.78569,-0.0751 0.97597,-0.21664 z m -0.70225,-2.82218 c 0.19111,-0.053 0.38979,-0.17558 0.44151,-0.27223 0.12059,-0.22532 0.12173,-0.98499 0.002,-1.20906 -0.21503,-0.40177 -1.29437,-0.46222 -1.63006,-0.0913 -0.20676,0.22847 -0.27193,0.90759 -0.11549,1.20352 0.22398,0.42372 0.66022,0.54735 1.30222,0.36906 z m -31.95059,1.57649 c -0.60688,-0.15024 -1.08229,-0.54294 -1.39317,-1.15081 -0.26776,-0.52356 -0.27993,-0.59862 -0.27993,-1.72521 0,-1.1625 0.004,-1.18611 0.32532,-1.81625 0.29473,-0.57839 0.37721,-0.66491 0.87704,-0.92012 0.49228,-0.25137 0.63746,-0.28098 1.34778,-0.27494 0.43784,0.004 0.95699,0.0606 1.15366,0.12638 l 0.35758,0.1196 -0.063,0.41998 c -0.0976,0.65125 -0.10799,0.66321 -0.49522,0.57325 -0.57662,-0.13397 -1.25096,-0.0971 -1.59445,0.0871 -0.48902,0.26225 -0.66519,0.69374 -0.66782,1.63552 -0.004,1.35885 0.38064,1.86366 1.37134,1.80077 l 0.45511,-0.0289 0.0279,-0.53446 0.0279,-0.53447 h -0.42292 -0.42291 v -0.5577 -0.5577 h 1.02245 1.02246 v 1.49244 1.49243 l -0.44151,0.19644 c -0.50493,0.22464 -1.61477,0.3034 -2.20758,0.15665 z m 6.3155,0.002 c -0.15618,-0.0454 -0.38623,-0.19126 -0.51123,-0.32414 -0.21163,-0.22501 -0.22937,-0.32102 -0.25807,-1.3963 l -0.0308,-1.15467 h -0.31775 c -0.31432,0 -0.31775,-0.005 -0.31775,-0.41563 0,-0.39095 0.0179,-0.42024 0.3021,-0.49354 0.2959,-0.0763 0.30265,-0.0898 0.32987,-0.65763 l 0.0277,-0.57969 0.57639,0.0275 0.5764,0.0275 0.0278,0.53446 0.0279,0.53447 h 0.41363 0.41364 v 0.51123 0.51122 h -0.41828 -0.41827 v 0.86444 c 0,0.96387 0.0603,1.08752 0.52981,1.08752 0.30507,0 0.30674,0.002 0.30674,0.45313 0,0.43315 -0.0128,0.45569 -0.29047,0.51123 -0.36688,0.0734 -0.61091,0.063 -0.96948,-0.0412 z m 7.34821,-0.003 c -0.72268,-0.22199 -0.79008,-0.41927 -0.79008,-2.31261 v -1.5907 l 0.58093,0.0277 0.58094,0.0277 0.0259,1.34145 c 0.0154,0.79555 0.0673,1.39132 0.12758,1.46398 0.12141,0.14629 0.57736,0.16076 0.82862,0.0263 0.1655,-0.0886 0.17979,-0.20716 0.17979,-1.49164 v -1.39542 l 0.58095,0.0277 0.58093,0.0277 v 1.90549 1.90548 l -0.39504,0.0286 c -0.31797,0.023 -0.39504,-0.002 -0.39504,-0.12613 0,-0.11165 -0.0453,-0.13552 -0.16266,-0.0857 -0.7879,0.33408 -1.20197,0.38642 -1.74281,0.22029 z m 4.9037,0.0166 c -0.16584,-0.042 -0.36583,-0.12978 -0.44442,-0.19501 -0.11793,-0.0979 -0.16336,-0.0906 -0.25989,0.0414 -0.0845,0.11561 -0.21911,0.15166 -0.48509,0.12998 l -0.3681,-0.0301 -0.0246,-2.81175 -0.0246,-2.81175 h 0.59291 0.5929 l 0.0591,0.43125 c 0.0325,0.23718 0.0591,0.65994 0.0591,0.93945 0,0.44844 0.0191,0.50005 0.16266,0.43885 0.0895,-0.0381 0.40083,-0.0893 0.69193,-0.11369 1.06809,-0.0895 1.51706,0.5098 1.51364,2.02045 -0.002,0.98677 -0.16813,1.46904 -0.61849,1.79798 -0.2776,0.20274 -0.97841,0.28161 -1.44708,0.16285 z m 0.6668,-1.05985 c 0.12625,-0.0923 0.17841,-0.28435 0.20828,-0.76683 0.0618,-0.99758 -0.16498,-1.26097 -0.95755,-1.11228 l -0.31314,0.0587 v 0.8742 c 0,0.73451 0.026,0.88934 0.16266,0.96894 0.23053,0.13428 0.70127,0.12236 0.89975,-0.0228 z m 8.0226,1.01277 c -0.47845,-0.17073 -0.60836,-0.29613 -0.73108,-0.70576 -0.19025,-0.63501 0.0356,-1.1713 0.61578,-1.46215 0.10224,-0.0512 0.51007,-0.1228 0.90627,-0.15898 l 0.72036,-0.0658 v -0.27703 c 0,-0.15236 -0.042,-0.35539 -0.0932,-0.45116 -0.12244,-0.22877 -0.77789,-0.32574 -1.36105,-0.20137 -0.33298,0.071 -0.46637,0.0674 -0.51805,-0.014 -0.11373,-0.17906 -0.031,-0.28894 0.30616,-0.40642 0.77571,-0.27033 1.83531,-0.0454 2.08798,0.44317 0.19365,0.37448 0.1993,3.33931 0.006,3.33931 -0.0712,0 -0.15153,-0.0574 -0.17847,-0.12766 -0.0403,-0.10529 -0.1358,-0.0977 -0.54441,0.0434 -0.58837,0.2032 -0.75445,0.20925 -1.21666,0.0443 z m 0.95363,-0.4257 c 0.17893,-0.051 0.38145,-0.12883 0.45004,-0.17291 0.15554,-0.0999 0.23764,-0.66863 0.1579,-1.09368 l -0.0602,-0.32081 -0.57596,0.0629 c -0.63869,0.0698 -1.03483,0.23234 -1.1224,0.46056 -0.17467,0.45516 0.0476,1.01827 0.43106,1.09222 0.35416,0.0683 0.38499,0.0671 0.71955,-0.0283 z m 6.56409,0.46813 c -0.38167,-0.12244 -0.68005,-0.43376 -0.85515,-0.89225 -0.20021,-0.52426 -0.1508,-1.8001 0.0887,-2.28972 0.43853,-0.89655 2.09252,-0.97063 2.58559,-0.1158 0.0899,0.15584 0.19143,0.58457 0.22565,0.95274 l 0.0622,0.6694 h -1.26819 c -1.21288,0 -1.26817,0.008 -1.26817,0.18888 0,0.31768 0.25138,0.81233 0.47313,0.93101 0.14022,0.075 0.48263,0.0969 1.03032,0.0656 0.7514,-0.0428 0.82031,-0.0324 0.82031,0.12418 0,0.094 -0.0797,0.21361 -0.17703,0.26572 -0.25242,0.13508 -1.39995,0.20205 -1.71736,0.10022 z m 1.4833,-2.53542 c -0.0867,-0.54319 -0.26358,-0.7778 -0.63139,-0.83749 -0.70953,-0.11515 -1.16661,0.19511 -1.25467,0.85159 l -0.0511,0.38094 h 1.0001 1.0001 z m 1.85182,2.58017 c -0.0512,-0.017 -0.20798,-0.0563 -0.34857,-0.0874 -0.19232,-0.0424 -0.25561,-0.1117 -0.25561,-0.27981 0,-0.22048 0.009,-0.22276 0.6869,-0.17149 1.05687,0.0799 1.45096,-0.0908 1.45096,-0.62848 0,-0.34216 -0.24822,-0.50812 -0.95043,-0.63545 -0.61775,-0.11201 -1.04761,-0.31221 -1.1297,-0.5261 -0.11033,-0.28754 -0.0568,-0.88682 0.1007,-1.12719 0.21667,-0.33069 0.66252,-0.49705 1.30255,-0.48601 0.79682,0.0138 0.9968,0.0909 1.03248,0.39837 0.0291,0.25081 0.0183,0.25825 -0.27885,0.1928 -0.46271,-0.10188 -1.37489,-0.0682 -1.52499,0.0564 -0.0726,0.0602 -0.13192,0.2666 -0.13192,0.45862 0,0.39776 0.16601,0.50122 0.95434,0.59482 0.9075,0.10775 1.24063,0.47169 1.15428,1.26102 -0.0528,0.482 -0.33066,0.77595 -0.87718,0.92772 -0.32907,0.0914 -0.98125,0.12008 -1.18496,0.0521 z m -34.80992,-1.99923 v -1.96083 l 0.58095,0.0277 0.58094,0.0277 v 1.90549 1.90548 l -0.58094,0.0278 -0.58095,0.0277 z m 4.89539,1.88999 c -0.0341,-0.0341 -0.062,-1.30983 -0.062,-2.83498 v -2.77303 h 0.60418 0.60418 v 1.02246 1.02245 h 0.83655 0.83655 v -1.02245 -1.02246 h 0.60418 0.60418 v 2.835 2.83498 h -0.60148 -0.60149 l -0.0259,-1.2274 -0.026,-1.22737 -0.60418,0.0141 c -0.33229,0.008 -0.69829,0.0163 -0.81331,0.019 -0.2059,0.005 -0.20914,0.0236 -0.20914,1.21333 v 1.20835 h -0.54221 c -0.29822,0 -0.5701,-0.0279 -0.60418,-0.062 z m 14.15945,-2.76508 v -2.83938 l 0.24514,-0.0615 c 0.37907,-0.0951 2.11185,0.0305 2.46702,0.17893 0.66612,0.27832 0.97953,0.91895 0.89253,1.82435 -0.0949,0.98788 -0.71813,1.39566 -2.13787,1.39887 l -0.9034,0.002 -0.0261,1.13865 -0.0261,1.13863 -0.25561,0.0294 -0.25561,0.0294 v -2.83938 z m 2.58168,-0.14776 c 0.36461,-0.2223 0.48568,-0.50407 0.48568,-1.13035 0,-0.4083 -0.0403,-0.50832 -0.31604,-0.78403 l -0.31603,-0.31603 h -0.9388 -0.9388 v 1.20835 1.20835 l 0.85979,-3.4e-4 c 0.69531,-2.8e-4 0.91804,-0.0359 1.1642,-0.18595 z m -21.49093,-1.42572 c -0.30106,-0.30107 -0.30492,-0.65379 -0.0104,-0.94835 0.44472,-0.44471 1.11033,-0.16996 1.11033,0.45833 0,0.39832 -0.16092,0.58845 -0.56672,0.66961 -0.2386,0.0478 -0.34008,0.0135 -0.53322,-0.17959 z m -22.28607,8.51188 c -1.67894,-0.85156 -2.70431,-1.77002 -3.75279,-3.36152 -1.91019,-2.89949 -1.94046,-6.93682 -0.0745,-9.93314 0.92889,-1.49157 2.65738,-2.9686 4.24975,-3.6315 1.2413,-0.51676 2.23877,-0.69982 3.77546,-0.69292 1.13848,0.005 1.48788,0.0432 2.24994,0.24487 3.33028,0.88153 5.77558,3.31954 6.69152,6.67153 0.18452,0.67525 0.21411,1.0024 0.21386,2.36387 -2.7e-4,1.38066 -0.0283,1.67991 -0.22158,2.37024 -0.80705,2.88129 -2.76962,5.13377 -5.43765,6.24087 -0.69791,0.2896 -1.00397,0.3291 -1.15356,0.14885 -0.0574,-0.0692 -0.10945,-0.85474 -0.12765,-1.92872 -0.0282,-1.66117 -0.0481,-1.8463 -0.24014,-2.22518 -0.11518,-0.22729 -0.17788,-0.44026 -0.13934,-0.47328 0.0386,-0.033 0.32105,-0.11372 0.62779,-0.17935 1.15551,-0.24724 2.2202,-0.87555 2.66107,-1.57037 0.6158,-0.97053 0.88774,-2.70152 0.60071,-3.82378 -0.085,-0.33231 -0.29841,-0.8216 -0.4743,-1.08734 -0.31292,-0.4728 -0.3177,-0.49442 -0.22257,-1.009 0.0972,-0.52576 0.0607,-1.03013 -0.11543,-1.59844 -0.0841,-0.27133 -0.1296,-0.30209 -0.44657,-0.30209 -0.4566,0 -0.93101,0.17201 -1.66683,0.60436 -0.55634,0.32689 -0.61441,0.34177 -0.9295,0.23809 -0.58801,-0.19346 -2.65258,-0.23348 -3.52247,-0.0683 l -0.76967,0.14618 -0.55346,-0.32438 c -1.02697,-0.6019 -1.96905,-0.79105 -2.08711,-0.41906 -0.16342,0.5149 -0.22015,1.26475 -0.13183,1.74254 0.0874,0.47274 0.077,0.54336 -0.12535,0.85485 -0.58302,0.89727 -0.74813,1.65756 -0.62509,2.87812 0.22249,2.20696 1.10866,3.21261 3.29612,3.74052 0.43942,0.10605 0.64451,0.19864 0.63173,0.28517 -0.0252,0.17051 -0.35984,1.09561 -0.41702,1.15279 -0.0248,0.0248 -0.28076,0.0886 -0.56889,0.14184 -0.89407,0.16529 -1.60836,-0.17053 -2.11851,-0.99596 -0.31557,-0.51062 -0.872,-0.86765 -1.35221,-0.86765 -0.53321,0 -0.52341,0.14935 0.041,0.62527 0.284,0.23948 0.55699,0.59549 0.75349,0.98262 0.31051,0.61176 0.58031,0.92441 1.06111,1.22962 0.20999,0.13331 0.45262,0.16484 1.23159,0.16006 l 0.97008,-0.006 0.01,0.38644 c 0.0408,1.65398 -0.004,1.82717 -0.47419,1.82717 -0.14079,0 -0.73326,-0.24208 -1.3166,-0.53794 z"
       style="fill:#000000;fill-opacity:0.31372549;stroke:none;stroke-width:0.09295035"
       sodipodi:nodetypes="csccccscsccccccccccccccccccccccccccccsccccccccccccccccccccccccccccsscccccccccccccsssccccsccccccsccccccscccccccccccccsccccccccccsccccccccscccccscccccccccccccccccccssccsccccccccccccscscccccccssccccccccccccccscccccccccccccccccccscsccccscccccccccccsccccccccccscccccccccccccccccccccccscccccccccccsccsccccccscc" />
  </g>
</svg>
