<?xml version="1.0" encoding="UTF-8" standalone="no"?>
<!-- Created with Inkscape (http://www.inkscape.org/) -->

<svg
   xmlns:dc="http://purl.org/dc/elements/1.1/"
   xmlns:cc="http://creativecommons.org/ns#"
   xmlns:rdf="http://www.w3.org/1999/02/22-rdf-syntax-ns#"
   xmlns:svg="http://www.w3.org/2000/svg"
   xmlns="http://www.w3.org/2000/svg"
   xmlns:sodipodi="http://sodipodi.sourceforge.net/DTD/sodipodi-0.dtd"
   xmlns:inkscape="http://www.inkscape.org/namespaces/inkscape"
   width="210mm"
   height="297mm"
   viewBox="0 0 210 297"
   version="1.1"
   id="svg8"
   inkscape:version="0.92.4 (5da689c313, 2019-01-14)"
   sodipodi:docname="MyWarehouseLogo.svg"
   inkscape:export-filename="C:\Work\_Portfolio\ASP.NETCore_and_Angular\MyWarehouse\src\WebUI\src\assets\logo-long-color.png"
   inkscape:export-xdpi="240"
   inkscape:export-ydpi="240">
  <defs
     id="defs2" />
  <sodipodi:namedview
     id="base"
     pagecolor="#ffffff"
     bordercolor="#666666"
     borderopacity="1.0"
     inkscape:pageopacity="0.0"
     inkscape:pageshadow="2"
     inkscape:zoom="0.7"
     inkscape:cx="422.67822"
     inkscape:cy="668.06558"
     inkscape:document-units="mm"
     inkscape:current-layer="layer1"
     showgrid="false"
     inkscape:snap-others="true"
     inkscape:snap-grids="false"
     inkscape:snap-to-guides="false"
     inkscape:snap-nodes="true"
     inkscape:window-width="2560"
     inkscape:window-height="1346"
     inkscape:window-x="-11"
     inkscape:window-y="-11"
     inkscape:window-maximized="1"
     showborder="false" />
  <metadata
     id="metadata5">
    <rdf:RDF>
      <cc:Work
         rdf:about="">
        <dc:format>image/svg+xml</dc:format>
        <dc:type
           rdf:resource="http://purl.org/dc/dcmitype/StillImage" />
        <dc:title></dc:title>
      </cc:Work>
    </rdf:RDF>
  </metadata>
  <g
     inkscape:label="Layer 1"
     inkscape:groupmode="layer"
     id="layer1">
    <path
       inkscape:connector-curvature="0"
       id="path3906"
       d="m 152.55819,-198.28957 c -2.72101,0.0108 -5.33236,0.95574 -6.87813,2.5709 -3.19745,3.34092 -3.16104,10.22181 0.0718,13.55059 1.15827,1.19265 2.21367,1.76061 4.08089,2.19625 1.82138,0.42494 5.28277,0.2703 6.93084,-0.31006 1.81904,-0.64057 3.43131,-2.18756 4.32842,-4.15272 0.68975,-1.51101 0.76249,-1.94534 0.77049,-4.58473 0.008,-2.76935 -0.0348,-3.00389 -0.86041,-4.68137 -1.3292,-2.7008 -3.08197,-3.88949 -6.55412,-4.44417 -0.62782,-0.1003 -1.26188,-0.14719 -1.88981,-0.14469 z m 0.25063,4.14651 c 0.598,0.0153 1.18915,0.17226 1.70584,0.48731 1.33551,0.81431 1.74497,1.67316 1.87482,3.93619 0.14339,2.49934 -0.27169,4.14335 -1.28467,5.08962 -1.29939,1.21381 -3.6586,1.14128 -5.01003,-0.15348 -1.41071,-1.35154 -1.75597,-5.61546 -0.61495,-7.59179 0.66466,-1.15123 2.0134,-1.80159 3.32899,-1.76785 z"
       style="fill:#0a7952;fill-opacity:1;stroke-width:0.26458335" />
    <path
       inkscape:connector-curvature="0"
       id="path3902"
       d="m 171.07372,-179.87262 c -1.66722,-0.26342 -3.5286,-1.30564 -4.40543,-2.46668 -1.25539,-1.6623 -1.48964,-3.19796 -1.48964,-9.76556 v -6.03739 h 2.77812 2.77813 v 6.09855 c 0,7.70516 0.18443,8.18895 3.12192,8.18895 1.65141,0 2.57614,-0.68023 2.98666,-2.197 0.19492,-0.72021 0.26688,-3.01592 0.20481,-6.53425 l -0.0957,-5.42396 2.71198,-0.0754 2.71198,-0.0754 v 6.17894 c 0,7.42834 -0.18497,8.34102 -2.07042,10.21549 -0.68793,0.68392 -1.70657,1.38167 -2.2952,1.57216 -1.33535,0.43214 -5.12542,0.60782 -6.93722,0.32155 z"
       style="fill:#0a7952;fill-opacity:1;stroke-width:0.26458335" />
    <path
       inkscape:connector-curvature="0"
       id="path3900"
       d="m 190.64935,-179.88282 c -2.89164,-0.6162 -4.64112,-2.36589 -5.22811,-5.22874 l -0.1763,-0.8599 1.67466,-0.003 c 0.92107,-0.002 2.09873,-0.0731 2.61703,-0.15882 0.91287,-0.15103 0.95225,-0.12288 1.25864,0.89975 0.63941,2.13415 3.59433,2.90706 5.06772,1.32556 1.30436,-1.40006 0.24623,-2.58753 -3.13915,-3.52287 -5.01856,-1.38657 -6.65041,-2.80434 -6.63876,-5.76783 0.01,-2.53327 2.13227,-4.46375 5.41961,-4.92973 5.14119,-0.72876 8.39889,0.75412 9.41122,4.28391 0.267,0.93099 0.23875,0.94181 -2.73053,1.04534 -1.78788,0.0623 -2.31514,8e-4 -2.3151,-0.27035 1e-5,-0.1931 -0.34799,-0.69911 -0.77336,-1.12448 -0.62161,-0.62161 -1.00302,-0.7734 -1.94337,-0.7734 -0.79743,0 -1.3094,0.15407 -1.60785,0.48385 -1.07229,1.18486 -0.30823,1.89362 2.86941,2.66172 3.29432,0.79631 5.53502,1.92546 6.39266,3.22144 1.87042,2.8264 0.51178,6.72621 -2.84666,8.17098 -1.55148,0.66742 -5.39584,0.95475 -7.31176,0.54648 z"
       style="fill:#0a7952;fill-opacity:1;stroke-width:0.26458335" />
    <path
       inkscape:connector-curvature="0"
       id="path3898"
       d="m 39.798341,-188.5511 c -1.056675,-4.76581 -1.980468,-8.87347 -2.052874,-9.12813 -0.119071,-0.41879 0.120066,-0.46302 2.503333,-0.46302 2.513457,0 2.641631,0.0274 2.77918,0.59531 0.07931,0.32742 0.518753,2.55974 0.976541,4.96071 0.457789,2.40096 0.860924,4.39397 0.895858,4.42891 0.03493,0.0349 0.701455,-2.19739 1.481158,-4.96071 l 1.417643,-5.02422 h 2.587869 2.587868 l 0.273712,0.99219 c 1.974637,7.15792 2.593423,9.08453 2.731907,8.50587 0.08352,-0.34898 0.530745,-2.62882 0.993834,-5.06629 l 0.841981,-4.43177 h 2.621604 c 2.58436,0 2.619589,0.008 2.479699,0.59531 -0.330856,1.38798 -3.836924,17.40246 -3.836924,17.52572 0,0.0744 -1.23506,0.13522 -2.744577,0.13522 h -2.744576 l -1.584114,-5.59075 c -0.871263,-3.07491 -1.645712,-5.48592 -1.720999,-5.35781 -0.126024,0.21445 -2.146442,7.21463 -2.835464,9.82408 l -0.296917,1.12448 h -2.717257 -2.717258 z"
       style="fill:#0a7952;fill-opacity:1;stroke-width:0.26458335" />
    <path
       inkscape:connector-curvature="0"
       id="path3896"
       d="m 72.945485,-198.1423 c -1.659252,0 -3.016869,0.049 -3.016869,0.10852 0,0.0595 -1.534954,4.16667 -3.411162,9.12761 l -3.411162,9.02012 h 2.846856 2.847369 l 0.447519,-1.59525 0.448035,-1.59577 3.216341,0.0744 3.215825,0.0739 0.437698,1.45521 0.4377,1.45521 2.936256,0.0749 2.936253,0.0744 -0.629417,-1.66192 c -0.346149,-0.91423 -1.782506,-4.69853 -3.192055,-8.4093 -1.40955,-3.71079 -2.682164,-7.07429 -2.827735,-7.47448 l -0.264583,-0.72761 z m -0.03204,4.89479 1.015442,3.175 c 0.558491,1.74625 1.018024,3.20475 1.021125,3.24115 0.0031,0.0363 -0.887285,0.0661 -1.978689,0.0661 -1.091406,0 -1.984375,-0.0806 -1.984375,-0.17932 0,-0.0987 0.433475,-1.55719 0.963247,-3.24115 z"
       style="fill:#0a7952;fill-opacity:1;stroke-width:0.26458335" />
    <path
       inkscape:connector-curvature="0"
       id="path3892"
       d="m 84.745282,-198.1609 v 9.13742 9.13743 h 2.778125 2.778125 v -3.70416 -3.70417 h 0.765845 c 1.068003,0 1.705411,0.75884 3.580659,4.26227 l 1.613339,3.01377 3.105753,0.0744 c 1.708012,0.041 3.105242,-0.004 3.105242,-0.0992 0,-0.31963 -2.728967,-5.25451 -3.396696,-6.14227 -0.362181,-0.48151 -1.004734,-1.05451 -1.427822,-1.2733 l -0.769461,-0.39791 1.359607,-0.67748 c 1.556766,-0.77577 2.539962,-2.06623 2.792592,-3.66593 0.37587,-2.38 -1.088499,-4.83119 -3.204453,-5.36349 -0.573294,-0.14422 -3.750985,-0.33775 -7.061584,-0.42995 z m 5.55625,3.72277 h 1.948717 c 1.57081,0 2.083882,0.10625 2.645834,0.54828 0.882221,0.69396 0.900321,1.65353 0.04754,2.50631 -0.57476,0.57473 -0.878975,0.64958 -2.645834,0.64958 h -1.99626 v -1.85209 z"
       style="fill:#0a7952;fill-opacity:1;stroke-width:0.26458335" />
    <path
       inkscape:connector-curvature="0"
       id="path3888"
       d="m 104.38715,-188.94798 0.0696,-9.06198 7.47448,-0.0703 7.47448,-0.0703 v 1.98849 1.9885 h -4.7625 -4.7625 v 1.45521 1.45521 h 4.36563 4.36562 v 1.85208 1.85208 h -4.37771 -4.37772 l 0.0782,1.78594 0.0782,1.78594 4.82865,0.0721 4.82865,0.0721 v 1.9784 1.97841 h -7.6764 -7.67639 z"
       style="fill:#0a7952;fill-opacity:1;stroke-width:0.26458335" />
    <path
       inkscape:connector-curvature="0"
       id="path3886"
       d="m 122.84531,-189.01408 v -9.12812 h 2.77813 2.77812 v 3.30729 3.30729 h 3.04271 3.04271 v -3.30729 -3.30729 h 2.77812 2.77813 v 9.12812 9.12813 h -2.77813 -2.77812 v -3.70417 -3.70416 h -3.04271 -3.04271 v 3.70416 3.70417 h -2.77812 -2.77813 z"
       style="fill:#0a7952;fill-opacity:1;stroke-width:0.26458335" />
    <path
       inkscape:connector-curvature="0"
       id="path3884"
       d="m 204.60156,-189.01408 v -9.12812 h 7.54063 7.54062 v 1.98437 1.98438 h -4.7625 -4.7625 v 1.45521 1.45521 h 4.36563 4.36562 v 1.85208 1.85208 h -4.36562 -4.36563 v 1.85209 1.85208 h 4.8948 4.89479 v 1.98437 1.98438 h -7.67292 -7.67292 z"
       style="fill:#0a7952;fill-opacity:1;stroke-width:0.26458335" />
    <text
       transform="scale(1.2242872,0.8168018)"
       id="text906"
       y="-247.08632"
       x="50.100063"
       style="font-style:italic;font-variant:normal;font-weight:bold;font-stretch:normal;font-size:30.94270325px;line-height:1.25;font-family:'Century Gothic';-inkscape-font-specification:'Century Gothic, Bold Italic';font-variant-ligatures:normal;font-variant-caps:normal;font-variant-numeric:normal;font-feature-settings:normal;text-align:start;letter-spacing:0px;word-spacing:0px;writing-mode:lr-tb;text-anchor:start;fill:#000000;fill-opacity:1;stroke:none;stroke-width:0.5801757"
       xml:space="preserve"><tspan
         style="font-style:normal;font-variant:normal;font-weight:bold;font-stretch:normal;font-size:30.94274902px;font-family:'Century Gothic';-inkscape-font-specification:'Century Gothic, Bold';font-variant-ligatures:normal;font-variant-caps:normal;font-variant-numeric:normal;font-feature-settings:normal;text-align:start;writing-mode:lr-tb;text-anchor:start;stroke-width:0.5801757"
         y="-247.08632"
         x="50.100063"
         id="tspan904"
         sodipodi:role="line">Y</tspan></text>
    <path
       inkscape:connector-curvature="0"
       id="path887"
       d="m 39.482844,-211.39807 c -1.056675,4.76581 -1.980468,8.87347 -2.052874,9.12813 -0.119071,0.41879 0.120066,0.46302 2.503333,0.46302 2.513456,0 2.64163,-0.0274 2.779179,-0.59531 0.07931,-0.32742 0.518753,-2.55974 0.976541,-4.96071 0.457789,-2.40096 0.860924,-4.39397 0.895858,-4.42891 0.03493,-0.0349 0.701455,2.19739 1.481158,4.96071 l 1.417643,5.02422 h 2.587869 2.587869 l 0.273712,-0.99219 c 1.974637,-7.15792 2.593423,-9.08453 2.731907,-8.50587 0.08352,0.34898 0.530745,2.62882 0.993834,5.06629 l 0.841981,4.43177 h 2.621604 c 2.58436,0 2.619589,-0.008 2.479699,-0.59531 -0.330856,-1.38798 -3.836924,-17.40246 -3.836924,-17.52572 0,-0.0744 -1.23506,-0.13522 -2.744577,-0.13522 H 53.27608 l -1.584114,5.59075 c -0.871264,3.07491 -1.645713,5.48592 -1.721,5.35781 -0.126024,-0.21445 -2.146442,-7.21463 -2.835465,-9.82408 l -0.296917,-1.12448 H 44.121328 41.40407 Z"
       style="fill:#1a1a1a;fill-opacity:1;stroke-width:0.26458341" />
    <text
       xml:space="preserve"
       style="font-style:italic;font-variant:normal;font-weight:bold;font-stretch:normal;font-size:30.94270325px;line-height:1.25;font-family:'Century Gothic';-inkscape-font-specification:'Century Gothic, Bold Italic';font-variant-ligatures:normal;font-variant-caps:normal;font-variant-numeric:normal;font-feature-settings:normal;text-align:start;letter-spacing:0px;word-spacing:0px;writing-mode:lr-tb;text-anchor:start;fill:#000000;fill-opacity:1;stroke:none;stroke-width:0.5801757"
       x="7.1073799"
       y="-83.741837"
       id="text1086"
       transform="scale(1.2242872,0.8168018)"><tspan
         sodipodi:role="line"
         id="tspan1084"
         x="7.1073799"
         y="-83.741837"
         style="font-style:normal;font-variant:normal;font-weight:bold;font-stretch:normal;font-size:30.94274902px;font-family:'Century Gothic';-inkscape-font-specification:'Century Gothic, Bold';font-variant-ligatures:normal;font-variant-caps:normal;font-variant-numeric:normal;font-feature-settings:normal;text-align:start;writing-mode:lr-tb;text-anchor:start;stroke-width:0.5801757">MY</tspan></text>
    <path
       style="fill:#333333;fill-opacity:1;stroke:#ffffff;stroke-width:0.11857602;stroke-miterlimit:4;stroke-dasharray:none"
       d="m 23.051129,42.121924 c -1.343,5.272227 -2.517125,9.816368 -2.609143,10.098089 -0.151335,0.46329 0.152593,0.51222 3.181665,0.51222 3.194541,0 3.357441,-0.03031 3.532264,-0.658568 0.100788,-0.362211 0.659317,-2.831738 1.241156,-5.487836 0.581839,-2.656087 1.094219,-4.860875 1.138614,-4.899528 0.04436,-0.03861 0.891524,2.430886 1.882514,5.487837 l 1.801783,5.558095 h 3.289113 3.289114 l 0.347878,-1.09762 c 2.509715,-7.918523 3.296167,-10.049855 3.472184,-9.409707 0.106127,0.386063 0.674557,2.90816 1.263132,5.604636 l 1.070134,4.902691 h 3.331996 c 3.284652,0 3.329416,-0.0088 3.151619,-0.658568 -0.420501,-1.535467 -4.876622,-19.251652 -4.876622,-19.388009 0,-0.08231 -1.569728,-0.149589 -3.488288,-0.149589 h -3.488275 l -2.013374,6.184826 C 37.461245,42.122544 36.47694,44.789749 36.381248,44.648026 36.22108,44.410788 33.65318,36.666767 32.777455,33.780035 L 32.400077,32.536067 H 28.946525 25.49296 Z"
       id="path1088"
       inkscape:connector-curvature="0" />
    <path
       style="fill:#0a7952;fill-opacity:1;stroke:#ffffff;stroke-width:0.1;stroke-miterlimit:4;stroke-dasharray:none"
       d="m 205.7387,33.033444 c -2.72101,0.0108 -5.33236,0.95574 -6.87813,2.5709 -3.19745,3.340921 -3.16104,10.221811 0.0718,13.550591 1.15827,1.19265 2.21367,1.76061 4.08089,2.19625 1.82138,0.42494 5.28277,0.2703 6.93084,-0.31006 1.81904,-0.64057 3.43131,-2.18756 4.32842,-4.15272 0.68975,-1.51101 0.76249,-1.94534 0.77049,-4.58473 0.008,-2.76935 -0.0348,-3.00389 -0.86041,-4.68137 -1.3292,-2.700801 -3.08197,-3.889491 -6.55412,-4.444171 -0.62782,-0.1003 -1.26188,-0.14719 -1.88981,-0.14469 z m 0.25063,4.146511 c 0.598,0.0153 1.18915,0.17226 1.70584,0.48731 1.33551,0.81431 1.74497,1.67316 1.87482,3.93619 0.14339,2.49934 -0.27169,4.14335 -1.28467,5.08962 -1.29939,1.21381 -3.6586,1.14128 -5.01003,-0.15348 -1.41071,-1.35154 -1.75597,-5.61546 -0.61495,-7.59179 0.66466,-1.15123 2.0134,-1.80159 3.32899,-1.76785 z"
       id="path1090"
       inkscape:connector-curvature="0" />
    <path
       style="fill:#0a7952;fill-opacity:1;stroke:#ffffff;stroke-width:0.1;stroke-miterlimit:4;stroke-dasharray:none"
       d="m 224.25423,51.450395 c -1.66722,-0.26342 -3.5286,-1.30564 -4.40543,-2.46668 -1.25539,-1.6623 -1.48964,-3.19796 -1.48964,-9.76556 v -6.037391 h 2.77812 2.77813 v 6.098551 c 0,7.70516 0.18443,8.18895 3.12192,8.18895 1.65141,0 2.57614,-0.68023 2.98666,-2.197 0.19492,-0.72021 0.26688,-3.01592 0.20481,-6.53425 l -0.0957,-5.423961 2.71198,-0.0754 2.71198,-0.0754 v 6.178941 c 0,7.42834 -0.18497,8.34102 -2.07042,10.21549 -0.68793,0.68392 -1.70657,1.38167 -2.2952,1.57216 -1.33535,0.43214 -5.12542,0.60782 -6.93722,0.32155 z"
       id="path1092"
       inkscape:connector-curvature="0" />
    <path
       style="fill:#0a7952;fill-opacity:1;stroke:#ffffff;stroke-width:0.1;stroke-miterlimit:4;stroke-dasharray:none"
       d="m 243.82986,51.440195 c -2.89164,-0.6162 -4.64112,-2.36589 -5.22811,-5.22874 l -0.1763,-0.8599 1.67466,-0.003 c 0.92107,-0.002 2.09873,-0.0731 2.61703,-0.15882 0.91287,-0.15103 0.95225,-0.12288 1.25864,0.89975 0.63941,2.13415 3.59433,2.90706 5.06772,1.32556 1.30436,-1.40006 0.24623,-2.58753 -3.13915,-3.52287 -5.01856,-1.38657 -6.65041,-2.80434 -6.63876,-5.76783 0.01,-2.533271 2.13227,-4.463751 5.41961,-4.929731 5.14119,-0.72876 8.39889,0.75412 9.41122,4.283911 0.267,0.93099 0.23875,0.94181 -2.73053,1.04534 -1.78788,0.0623 -2.31514,8e-4 -2.3151,-0.27035 1e-5,-0.1931 -0.34799,-0.69911 -0.77336,-1.12448 -0.62161,-0.62161 -1.00302,-0.773401 -1.94337,-0.773401 -0.79743,0 -1.3094,0.154071 -1.60785,0.483851 -1.07229,1.18486 -0.30823,1.89362 2.86941,2.66172 3.29432,0.79631 5.53502,1.92546 6.39266,3.22144 1.87042,2.8264 0.51178,6.72621 -2.84666,8.17098 -1.55148,0.66742 -5.39584,0.95475 -7.31176,0.54648 z"
       id="path1094"
       inkscape:connector-curvature="0" />
    <path
       style="fill:#0a7952;fill-opacity:1;stroke:#ffffff;stroke-width:0.1;stroke-miterlimit:4;stroke-dasharray:none"
       d="m 92.978839,42.771915 c -1.05668,-4.76581 -1.98047,-8.873471 -2.05288,-9.128131 -0.11907,-0.41879 0.12007,-0.46302 2.50334,-0.46302 2.51345,0 2.64163,0.0274 2.77918,0.59531 0.0793,0.32742 0.51875,2.55974 0.97654,4.960711 0.45779,2.40096 0.86092,4.39397 0.89586,4.42891 0.0349,0.0349 0.70145,-2.19739 1.48115,-4.96071 l 1.417661,-5.024221 h 2.58787 2.58786 l 0.27372,0.99219 c 1.97463,7.157921 2.59342,9.084531 2.7319,8.505871 0.0835,-0.34898 0.53075,-2.62882 0.99384,-5.06629 l 0.84198,-4.431771 h 2.6216 c 2.58436,0 2.61959,0.008 2.4797,0.59531 -0.33086,1.38798 -3.83692,17.402461 -3.83692,17.525721 0,0.0744 -1.23506,0.13522 -2.74458,0.13522 h -2.74458 l -1.58411,-5.59075 c -0.87126,-3.07491 -1.64571,-5.48592 -1.721,-5.35781 -0.12602,0.21445 -2.14644,7.21463 -2.83546,9.82408 l -0.29692,1.12448 h -2.717271 -2.71725 z"
       id="path1096"
       inkscape:connector-curvature="0" />
    <path
       style="fill:#0a7952;fill-opacity:1;stroke:#ffffff;stroke-width:0.1;stroke-miterlimit:4;stroke-dasharray:none"
       d="m 126.12599,33.180714 c -1.65925,0 -3.01686,0.049 -3.01686,0.10852 0,0.0595 -1.53496,4.166671 -3.41117,9.127611 l -3.41116,9.02012 h 2.84685 2.84737 l 0.44752,-1.59525 0.44804,-1.59577 3.21634,0.0744 3.21582,0.0739 0.4377,1.45521 0.4377,1.45521 2.93626,0.0749 2.93625,0.0744 -0.62942,-1.66192 c -0.34615,-0.91423 -1.7825,-4.69853 -3.19205,-8.4093 -1.40955,-3.71079 -2.68217,-7.074291 -2.82774,-7.474481 l -0.26458,-0.72761 z m -0.032,4.894791 1.01544,3.175 c 0.55849,1.74625 1.01803,3.20475 1.02113,3.24115 0.003,0.0363 -0.88729,0.0661 -1.97869,0.0661 -1.09141,0 -1.98438,-0.0806 -1.98438,-0.17932 0,-0.0987 0.43348,-1.55719 0.96325,-3.24115 z"
       id="path1098"
       inkscape:connector-curvature="0" />
    <path
       style="fill:#0a7952;fill-opacity:1;stroke:#ffffff;stroke-width:0.1;stroke-miterlimit:4;stroke-dasharray:none"
       d="m 137.92579,33.162114 v 9.137421 9.13743 h 2.77812 2.77813 v -3.70416 -3.70417 h 0.76584 c 1.06801,0 1.70541,0.75884 3.58066,4.26227 l 1.61334,3.01377 3.10575,0.0744 c 1.70801,0.041 3.10524,-0.004 3.10524,-0.0992 0,-0.31963 -2.72896,-5.25451 -3.39669,-6.14227 -0.36218,-0.48151 -1.00473,-1.05451 -1.42782,-1.2733 l -0.76946,-0.39791 1.3596,-0.67748 c 1.55677,-0.77577 2.53997,-2.06623 2.7926,-3.66593 0.37586,-2.38 -1.0885,-4.831191 -3.20446,-5.363491 -0.57329,-0.14422 -3.75098,-0.33775 -7.06158,-0.42995 z m 5.55625,3.722771 h 1.94872 c 1.57081,0 2.08388,0.10625 2.64583,0.54828 0.88222,0.69396 0.90032,1.65353 0.0475,2.50631 -0.57476,0.57473 -0.87898,0.64958 -2.64583,0.64958 H 143.482 v -1.85209 z"
       id="path1100"
       inkscape:connector-curvature="0" />
    <path
       style="fill:#0a7952;fill-opacity:1;stroke:#ffffff;stroke-width:0.1;stroke-miterlimit:4;stroke-dasharray:none"
       d="m 157.56766,42.375035 0.0696,-9.061981 7.47448,-0.0703 7.47448,-0.0703 v 1.98849 1.988501 h -4.7625 -4.7625 v 1.45521 1.45521 h 4.36562 4.36563 v 1.85208 1.85208 h -4.37772 -4.37771 l 0.0782,1.78594 0.0782,1.78594 4.82865,0.0721 4.82864,0.0721 v 1.9784 1.97841 h -7.67639 -7.67639 z"
       id="path1102"
       inkscape:connector-curvature="0" />
    <path
       style="fill:#0a7952;fill-opacity:1;stroke:#ffffff;stroke-width:0.1;stroke-miterlimit:4;stroke-dasharray:none"
       d="m 176.02582,42.308935 v -9.128121 h 2.77813 2.77812 v 3.30729 3.307291 h 3.04271 3.04271 v -3.307291 -3.30729 h 2.77812 2.77813 v 9.128121 9.12813 h -2.77813 -2.77812 v -3.70417 -3.70416 h -3.04271 -3.04271 v 3.70416 3.70417 h -2.77812 -2.77813 z"
       id="path1104"
       inkscape:connector-curvature="0" />
    <path
       style="fill:#0a7952;fill-opacity:1;stroke:#ffffff;stroke-width:0.1;stroke-miterlimit:4;stroke-dasharray:none"
       d="m 257.78207,42.308935 v -9.128121 h 7.54063 7.54062 v 1.98437 1.984381 h -4.7625 -4.7625 v 1.45521 1.45521 h 4.36563 4.36562 v 1.85208 1.85208 h -4.36562 -4.36563 v 1.85209 1.85208 h 4.8948 4.89479 v 1.98437 1.98438 h -7.67292 -7.67292 z"
       id="path1106"
       inkscape:connector-curvature="0" />
    <path
       inkscape:connector-curvature="0"
       id="path1110"
       d="m 63.735208,54.124275 -6.68073,-4.00157 v -7.891 -7.891001 l 6.63303,3.984391 c 3.64817,2.19141 6.68613,4.12277 6.75104,4.29191 0.0649,0.16913 0.0864,3.72782 0.0477,7.90818 l -0.0703,7.600669 z m 9.45885,-3.8678 v -7.89016 l 6.38652,-3.29599 c 3.51258,-1.8128 6.48914,-3.335681 6.61458,-3.384191 0.12544,-0.0485 0.22807,3.431331 0.22807,7.732961 v 7.82116 l -0.59532,0.36712 c -0.32742,0.20192 -3.30398,1.75586 -6.61458,3.45319 l -6.01927,3.086069 z m -7.89152,-14.075551 c -3.39445,-2.1529 -6.16698,-4.01809 -6.16118,-4.14486 0.0181,-0.39672 11.98727,-6.485148 12.42147,-6.318528 0.69796,0.26783 13.00845,7.649608 13.00564,7.798608 -0.004,0.18706 -12.55386,6.630341 -12.85847,6.601481 -0.12965,-0.0123 -3.01301,-1.7838 -6.40746,-3.936701 z"
       style="fill:#333333;stroke-width:0.26458332"
       sodipodi:nodetypes="cccccccccccccscccccsccccs" />
    <text
       xml:space="preserve"
       style="font-style:normal;font-weight:normal;font-size:14.11111069px;line-height:1.25;font-family:sans-serif;letter-spacing:0px;word-spacing:0px;fill:#000000;fill-opacity:1;stroke:none;stroke-width:0.26458332"
       x="76.706352"
       y="167.37428"
       id="text1116"><tspan
         sodipodi:role="line"
         id="tspan1114"
         x="76.706352"
         y="180.24828"
         style="stroke-width:0.26458332" /></text>
    <flowRoot
       xml:space="preserve"
       id="flowRoot1118"
       style="fill:black;fill-opacity:1;stroke:none;font-family:sans-serif;font-style:normal;font-weight:normal;font-size:53.33333333px;line-height:1.25;letter-spacing:0px;word-spacing:0px"><flowRegion
         id="flowRegion1120"><rect
           id="rect1122"
           width="793.97992"
           height="294.96454"
           x="244.45691"
           y="645.72766" /></flowRegion><flowPara
         id="flowPara1124"></flowPara></flowRoot>    <path
       sodipodi:nodetypes="cccccccccccccscccccsccccs"
       style="fill:#333333;stroke-width:0.26458332"
       d="m 78.503114,-66.296268 -6.680731,-4.00157 v -7.891004 -7.890996 l 6.633031,3.984386 c 3.64817,2.19141 6.686129,4.12277 6.751039,4.29191 0.0649,0.16913 0.0864,3.727824 0.0477,7.908184 l -0.0703,7.60067 z m 9.458849,-3.8678 v -7.890164 l 6.386517,-3.29599 c 3.51258,-1.8128 6.48915,-3.335676 6.61459,-3.384186 0.12544,-0.0485 0.22807,3.431326 0.22807,7.732956 v 7.821164 l -0.59532,0.36712 c -0.32742,0.20192 -3.30399,1.75586 -6.61459,3.45319 l -6.019267,3.08607 z m -7.891519,-14.07555 c -3.39445,-2.1529 -6.16698,-4.01809 -6.16118,-4.14486 0.0181,-0.39672 11.987269,-6.48515 12.421469,-6.31853 0.69796,0.26783 13.008457,7.64961 13.005647,7.79861 -0.004,0.18706 -12.553867,6.630336 -12.858477,6.601476 -0.12965,-0.0123 -3.01301,-1.7838 -6.407459,-3.936696 z"
       id="path1126"
       inkscape:connector-curvature="0" />
    <text
       transform="scale(1.2242872,0.8168018)"
       id="text1130"
       y="-153.00862"
       x="55.604717"
       style="font-style:italic;font-variant:normal;font-weight:bold;font-stretch:normal;font-size:30.94270325px;line-height:1.25;font-family:'Century Gothic';-inkscape-font-specification:'Century Gothic, Bold Italic';font-variant-ligatures:normal;font-variant-caps:normal;font-variant-numeric:normal;font-feature-settings:normal;text-align:start;letter-spacing:0px;word-spacing:0px;writing-mode:lr-tb;text-anchor:start;fill:#000000;fill-opacity:1;stroke:none;stroke-width:0.5801757"
       xml:space="preserve"><tspan
         style="font-style:normal;font-variant:normal;font-weight:bold;font-stretch:normal;font-size:30.94274902px;font-family:'Century Gothic';-inkscape-font-specification:'Century Gothic, Bold';font-variant-ligatures:normal;font-variant-caps:normal;font-variant-numeric:normal;font-feature-settings:normal;text-align:start;writing-mode:lr-tb;text-anchor:start;stroke-width:0.5801757"
         y="-153.00862"
         x="55.604717"
         id="tspan1128"
         sodipodi:role="line"
         dx="0 -3.2199988 -1.1800001 -0.9600001 -1.0700001 -0.9600001 -1.1800001 -1.0700001 -1.3">WAREHOUSE</tspan></text>
    <path
       inkscape:connector-curvature="0"
       id="path1132"
       d="m 222.89882,-87.23858 c -2.72101,0.0108 -5.33236,0.95574 -6.87813,2.5709 -3.19745,3.340921 -3.16104,10.221811 0.0718,13.550591 1.15827,1.19265 2.21367,1.76061 4.08089,2.19625 1.82138,0.42494 5.28277,0.2703 6.93084,-0.31006 1.81904,-0.64057 3.43131,-2.18756 4.32842,-4.15272 0.68975,-1.51101 0.76249,-1.94534 0.77049,-4.58473 0.008,-2.76935 -0.0348,-3.00389 -0.86041,-4.68137 -1.3292,-2.700801 -3.08197,-3.889491 -6.55412,-4.444171 -0.62782,-0.1003 -1.26188,-0.14719 -1.88981,-0.14469 z m 0.25063,4.14651 c 0.598,0.0153 1.18915,0.17226 1.70584,0.487311 1.33551,0.81431 1.74497,1.67316 1.87482,3.93619 0.14339,2.49934 -0.27169,4.14335 -1.28467,5.08962 -1.29939,1.21381 -3.6586,1.14128 -5.01003,-0.15348 -1.41071,-1.35154 -1.75597,-5.61546 -0.61495,-7.59179 0.66466,-1.15123 2.0134,-1.801591 3.32899,-1.767851 z"
       style="fill:#0a7952;fill-opacity:1;stroke:#ffffff;stroke-width:0.1;stroke-miterlimit:4;stroke-dasharray:none" />
    <path
       inkscape:connector-curvature="0"
       id="path1134"
       d="m 241.41435,-68.821629 c -1.66722,-0.26342 -3.5286,-1.30564 -4.40543,-2.46668 -1.25539,-1.6623 -1.48964,-3.19796 -1.48964,-9.76556 v -6.037391 h 2.77812 2.77813 v 6.098551 c 0,7.70516 0.18443,8.18895 3.12192,8.18895 1.65141,0 2.57614,-0.68023 2.98666,-2.197 0.19492,-0.72021 0.26688,-3.01592 0.20481,-6.53425 l -0.0957,-5.423961 2.71198,-0.0754 2.71198,-0.0754 v 6.178941 c 0,7.42834 -0.18497,8.34102 -2.07042,10.21549 -0.68793,0.68392 -1.70657,1.38167 -2.2952,1.57216 -1.33535,0.43214 -5.12542,0.60782 -6.93722,0.32155 z"
       style="fill:#0a7952;fill-opacity:1;stroke:#ffffff;stroke-width:0.1;stroke-miterlimit:4;stroke-dasharray:none" />
    <path
       inkscape:connector-curvature="0"
       id="path1136"
       d="m 260.98998,-68.831829 c -2.89164,-0.6162 -4.64112,-2.36589 -5.22811,-5.22874 l -0.1763,-0.8599 1.67466,-0.003 c 0.92107,-0.002 2.09873,-0.0731 2.61703,-0.15882 0.91287,-0.15103 0.95225,-0.12288 1.25864,0.89975 0.63941,2.13415 3.59433,2.90706 5.06772,1.32556 1.30436,-1.40006 0.24623,-2.58753 -3.13915,-3.52287 -5.01856,-1.38657 -6.65041,-2.80434 -6.63876,-5.76783 0.01,-2.533271 2.13227,-4.463751 5.41961,-4.929731 5.14119,-0.72876 8.39889,0.75412 9.41122,4.28391 0.267,0.930991 0.23875,0.941811 -2.73053,1.045341 -1.78788,0.0623 -2.31514,8e-4 -2.3151,-0.27035 10e-6,-0.1931 -0.34799,-0.699111 -0.77336,-1.124481 -0.62161,-0.62161 -1.00302,-0.7734 -1.94337,-0.7734 -0.79743,0 -1.3094,0.15407 -1.60785,0.48385 -1.07229,1.184861 -0.30823,1.893621 2.86941,2.661721 3.29432,0.79631 5.53502,1.92546 6.39266,3.22144 1.87042,2.8264 0.51178,6.72621 -2.84666,8.17098 -1.55148,0.66742 -5.39584,0.95475 -7.31176,0.54648 z"
       style="fill:#0a7952;fill-opacity:1;stroke:#ffffff;stroke-width:0.1;stroke-miterlimit:4;stroke-dasharray:none" />
    <path
       inkscape:connector-curvature="0"
       id="path1138"
       d="m 110.13896,-77.500109 c -1.05668,-4.76581 -1.98047,-8.873471 -2.05288,-9.128131 -0.11907,-0.41879 0.12007,-0.46302 2.50334,-0.46302 2.51346,0 2.64164,0.0274 2.77919,0.59531 0.0793,0.32742 0.51875,2.55974 0.97654,4.960711 0.45779,2.40096 0.86092,4.39397 0.89586,4.42891 0.0349,0.0349 0.70145,-2.19739 1.48115,-4.96071 l 1.41765,-5.024221 h 2.58787 2.58786 l 0.27372,0.99219 c 1.97463,7.157921 2.59342,9.084531 2.7319,8.505871 0.0835,-0.34898 0.53075,-2.62882 0.99384,-5.06629 l 0.84198,-4.431771 h 2.6216 c 2.58436,0 2.61959,0.008 2.4797,0.59531 -0.33086,1.38798 -3.83692,17.402461 -3.83692,17.525721 0,0.0744 -1.23506,0.13522 -2.74458,0.13522 h -2.74458 l -1.58411,-5.59075 c -0.87126,-3.07491 -1.64571,-5.48592 -1.721,-5.35781 -0.12602,0.21445 -2.14644,7.21463 -2.83546,9.82408 l -0.29692,1.12448 h -2.71726 -2.71725 z"
       style="fill:#0a7952;fill-opacity:1;stroke:#ffffff;stroke-width:0.1;stroke-miterlimit:4;stroke-dasharray:none" />
    <path
       inkscape:connector-curvature="0"
       id="path1140"
       d="m 143.28611,-87.09131 c -1.65925,0 -3.01686,0.049 -3.01686,0.10852 0,0.0595 -1.53496,4.16667 -3.41117,9.127611 l -3.41116,9.02012 h 2.84685 2.84737 l 0.44752,-1.59525 0.44804,-1.59577 3.21634,0.0744 3.21582,0.0739 0.4377,1.45521 0.4377,1.45521 2.93626,0.0749 2.93625,0.0744 -0.62942,-1.66192 c -0.34615,-0.91423 -1.7825,-4.69853 -3.19205,-8.4093 -1.40955,-3.71079 -2.68217,-7.074291 -2.82774,-7.474481 l -0.26458,-0.72761 z m -0.032,4.894791 1.01544,3.175 c 0.55849,1.74625 1.01803,3.20475 1.02113,3.24115 0.003,0.0363 -0.88729,0.0661 -1.97869,0.0661 -1.09141,0 -1.98438,-0.0806 -1.98438,-0.17932 0,-0.0987 0.43348,-1.55719 0.96325,-3.24115 z"
       style="fill:#0a7952;fill-opacity:1;stroke:#ffffff;stroke-width:0.1;stroke-miterlimit:4;stroke-dasharray:none" />
    <path
       inkscape:connector-curvature="0"
       id="path1142"
       d="m 155.08591,-87.10991 v 9.137421 9.13743 h 2.77812 2.77813 v -3.70416 -3.70417 h 0.76584 c 1.06801,0 1.70541,0.75884 3.58066,4.26227 l 1.61334,3.01377 3.10575,0.0744 c 1.70801,0.041 3.10524,-0.004 3.10524,-0.0992 0,-0.31963 -2.72896,-5.25451 -3.39669,-6.14227 -0.36218,-0.48151 -1.00473,-1.05451 -1.42782,-1.2733 l -0.76946,-0.39791 1.3596,-0.67748 c 1.55677,-0.77577 2.53997,-2.06623 2.7926,-3.66593 0.37586,-2.380001 -1.0885,-4.831191 -3.20446,-5.363491 -0.57329,-0.14422 -3.75098,-0.33775 -7.06158,-0.42995 z m 5.55625,3.72277 h 1.94872 c 1.57081,0 2.08388,0.10625 2.64583,0.54828 0.88222,0.693961 0.90032,1.653531 0.0475,2.506311 -0.57476,0.57473 -0.87898,0.64958 -2.64583,0.64958 h -1.99626 v -1.85209 z"
       style="fill:#0a7952;fill-opacity:1;stroke:#ffffff;stroke-width:0.1;stroke-miterlimit:4;stroke-dasharray:none" />
    <path
       inkscape:connector-curvature="0"
       id="path1144"
       d="m 174.72778,-77.896989 0.0696,-9.061981 7.47448,-0.0703 7.47448,-0.0703 v 1.98849 1.9885 h -4.7625 -4.7625 v 1.455211 1.45521 h 4.36562 4.36563 v 1.85208 1.85208 h -4.37772 -4.37771 l 0.0782,1.78594 0.0782,1.78594 4.82865,0.0721 4.82864,0.0721 v 1.9784 1.97841 h -7.67639 -7.67639 z"
       style="fill:#0a7952;fill-opacity:1;stroke:#ffffff;stroke-width:0.1;stroke-miterlimit:4;stroke-dasharray:none" />
    <path
       inkscape:connector-curvature="0"
       id="path1146"
       d="m 193.18594,-77.963089 v -9.128121 h 2.77813 2.77812 v 3.30729 3.307291 h 3.04271 3.04271 v -3.307291 -3.30729 h 2.77812 2.77813 v 9.128121 9.12813 h -2.77813 -2.77812 v -3.70417 -3.70416 h -3.04271 -3.04271 v 3.70416 3.70417 h -2.77812 -2.77813 z"
       style="fill:#0a7952;fill-opacity:1;stroke:#ffffff;stroke-width:0.1;stroke-miterlimit:4;stroke-dasharray:none" />
    <path
       inkscape:connector-curvature="0"
       id="path1148"
       d="m 274.94219,-77.963089 v -9.128121 h 7.54063 7.54062 v 1.98437 1.98438 h -4.7625 -4.7625 v 1.455211 1.45521 h 4.36563 4.36562 v 1.85208 1.85208 h -4.36562 -4.36563 v 1.85209 1.85208 h 4.8948 4.89479 v 1.98437 1.98438 h -7.67292 -7.67292 z"
       style="fill:#0a7952;fill-opacity:1;stroke:#ffffff;stroke-width:0.1;stroke-miterlimit:4;stroke-dasharray:none" />
    <flowRoot
       xml:space="preserve"
       id="flowRoot1154"
       style="font-style:normal;font-weight:normal;font-size:53.33333206px;line-height:1.25;font-family:sans-serif;letter-spacing:0px;word-spacing:0px;fill:#666666;fill-opacity:1;stroke:none"
       transform="matrix(0.26458333,0,0,0.26458333,218.55406,188.69587)"><flowRegion
         id="flowRegion1156"
         style="fill:#666666"><rect
           id="rect1158"
           width="948.21759"
           height="80.418404"
           x="-507.14285"
           y="-516.05176"
           style="fill:#666666" /></flowRegion><flowPara
         id="flowPara1160"
         style="font-style:italic;font-variant:normal;font-weight:300;font-stretch:normal;font-size:42.66666794px;font-family:Calibri;-inkscape-font-specification:'Calibri, Light Italic';font-variant-ligatures:normal;font-variant-caps:normal;font-variant-numeric:normal;font-feature-settings:normal;text-align:start;writing-mode:lr-tb;text-anchor:start;fill:#666666">ASP.NET Core + Clean + DDD sample project</flowPara></flowRoot>    <path
       inkscape:connector-curvature="0"
       id="path1162"
       d="m 29.8547,-19.488196 c -1.343,5.272227 -2.517125,9.8163685 -2.609143,10.0980895 -0.151335,0.46329 0.152593,0.51222 3.181665,0.51222 3.194541,0 3.357441,-0.03031 3.532264,-0.658568 0.100788,-0.362211 0.659317,-2.8317385 1.241156,-5.4878365 0.581839,-2.656087 1.094219,-4.860875 1.138614,-4.899528 0.04436,-0.03861 0.891524,2.430886 1.882514,5.487837 l 1.801783,5.5580955 h 3.289113 3.289114 l 0.347878,-1.09762 c 2.509715,-7.9185235 3.296167,-10.0498555 3.472184,-9.4097075 0.106127,0.386063 0.674557,2.90816 1.263132,5.604636 l 1.070134,4.9026915 h 3.331996 c 3.284652,0 3.329416,-0.0088 3.151619,-0.658568 -0.420501,-1.5354675 -4.876622,-19.2516515 -4.876622,-19.3880085 0,-0.08231 -1.569728,-0.149589 -3.488288,-0.149589 h -3.488275 l -2.013374,6.184825 c -1.107348,3.401651 -2.091653,6.068856 -2.187345,5.927133 -0.160168,-0.237238 -2.728068,-7.981259 -3.603793,-10.86799 l -0.377378,-1.243968 h -3.453552 -3.453565 z"
       style="fill:#333333;fill-opacity:1;stroke:#ffffff;stroke-width:0.11857602;stroke-miterlimit:4;stroke-dasharray:none"
       inkscape:export-xdpi="240"
       inkscape:export-ydpi="240" />
    <path
       inkscape:connector-curvature="0"
       id="path1164"
       d="m 212.54227,-28.576675 c -2.72101,0.0108 -5.33236,0.95574 -6.87813,2.5709 -3.19745,3.34092 -3.16104,10.22181 0.0718,13.55059 1.15827,1.19265 2.21367,1.76061 4.08089,2.19625 1.82138,0.4249405 5.28277,0.2703005 6.93084,-0.31006 1.81904,-0.64057 3.43131,-2.18756 4.32842,-4.15272 0.68975,-1.51101 0.76249,-1.94534 0.77049,-4.58473 0.008,-2.76935 -0.0348,-3.00389 -0.86041,-4.68137 -1.3292,-2.7008 -3.08197,-3.88949 -6.55412,-4.44417 -0.62782,-0.1003 -1.26188,-0.14719 -1.88981,-0.14469 z m 0.25063,4.14651 c 0.598,0.0153 1.18915,0.17226 1.70584,0.48731 1.33551,0.81431 1.74497,1.67316 1.87482,3.93619 0.14339,2.49934 -0.27169,4.14335 -1.28467,5.08962 -1.29939,1.21381 -3.6586,1.14128 -5.01003,-0.15348 -1.41071,-1.35154 -1.75597,-5.61546 -0.61495,-7.59179 0.66466,-1.15123 2.0134,-1.80159 3.32899,-1.76785 z"
       style="fill:#0a7952;fill-opacity:1;stroke:#ffffff;stroke-width:0.1;stroke-miterlimit:4;stroke-dasharray:none"
       inkscape:export-xdpi="240"
       inkscape:export-ydpi="240" />
    <path
       inkscape:connector-curvature="0"
       id="path1166"
       d="m 231.0578,-10.159725 c -1.66722,-0.26342 -3.5286,-1.30564 -4.40543,-2.46668 -1.25539,-1.6623 -1.48964,-3.19796 -1.48964,-9.76556 v -6.03739 h 2.77812 2.77813 v 6.09855 c 0,7.70516 0.18443,8.18895 3.12192,8.18895 1.65141,0 2.57614,-0.68023 2.98666,-2.197 0.19492,-0.72021 0.26688,-3.01592 0.20481,-6.53425 l -0.0957,-5.42396 2.71198,-0.0754 2.71198,-0.0754 v 6.17894 c 0,7.42834 -0.18497,8.34102 -2.07042,10.21549 -0.68793,0.68392 -1.70657,1.38167 -2.2952,1.57216 -1.33535,0.43214 -5.12542,0.6078205 -6.93722,0.32155 z"
       style="fill:#0a7952;fill-opacity:1;stroke:#ffffff;stroke-width:0.1;stroke-miterlimit:4;stroke-dasharray:none"
       inkscape:export-xdpi="240"
       inkscape:export-ydpi="240" />
    <path
       inkscape:connector-curvature="0"
       id="path1168"
       d="m 250.63343,-10.169925 c -2.89164,-0.6162 -4.64112,-2.36589 -5.22811,-5.22874 l -0.1763,-0.8599 1.67466,-0.003 c 0.92107,-0.002 2.09873,-0.0731 2.61703,-0.15882 0.91287,-0.15103 0.95225,-0.12288 1.25864,0.89975 0.63941,2.13415 3.59433,2.90706 5.06772,1.32556 1.30436,-1.40006 0.24623,-2.58753 -3.13915,-3.52287 -5.01856,-1.38657 -6.65041,-2.80434 -6.63876,-5.76783 0.01,-2.53327 2.13227,-4.46375 5.41961,-4.92973 5.14119,-0.72876 8.39889,0.75412 9.41122,4.28391 0.267,0.93099 0.23875,0.94181 -2.73053,1.04534 -1.78788,0.0623 -2.31514,8e-4 -2.3151,-0.27035 10e-6,-0.1931 -0.34799,-0.69911 -0.77336,-1.12448 -0.62161,-0.62161 -1.00302,-0.7734 -1.94337,-0.7734 -0.79743,0 -1.3094,0.15407 -1.60785,0.48385 -1.07229,1.18486 -0.30823,1.89362 2.86941,2.66172 3.29432,0.79631 5.53502,1.92546 6.39266,3.22144 1.87042,2.8264 0.51178,6.72621 -2.84666,8.17098 -1.55148,0.66742 -5.39584,0.9547505 -7.31176,0.54648 z"
       style="fill:#0a7952;fill-opacity:1;stroke:#ffffff;stroke-width:0.1;stroke-miterlimit:4;stroke-dasharray:none"
       inkscape:export-xdpi="240"
       inkscape:export-ydpi="240" />
    <path
       inkscape:connector-curvature="0"
       id="path1170"
       d="m 99.78241,-18.838205 c -1.05668,-4.76581 -1.98047,-8.87347 -2.05288,-9.12813 -0.11907,-0.41879 0.12007,-0.46302 2.50334,-0.46302 2.51345,0 2.64163,0.0274 2.77918,0.59531 0.0793,0.32742 0.51875,2.55974 0.97654,4.96071 0.45779,2.40096 0.86092,4.39397 0.89586,4.42891 0.0349,0.0349 0.70145,-2.19739 1.48115,-4.96071 l 1.41766,-5.02422 h 2.58787 2.58786 l 0.27372,0.99219 c 1.97463,7.15792 2.59342,9.08453 2.7319,8.50587 0.0835,-0.34898 0.53075,-2.62882 0.99384,-5.06629 l 0.84198,-4.43177 h 2.6216 c 2.58436,0 2.61959,0.008 2.4797,0.59531 -0.33086,1.38798 -3.83692,17.40246 -3.83692,17.52572 0,0.0744 -1.23506,0.13522 -2.74458,0.13522 h -2.74458 l -1.58411,-5.59075 c -0.87126,-3.07491 -1.64571,-5.48592 -1.721,-5.35781 -0.12602,0.21445 -2.14644,7.21463 -2.83546,9.82408 l -0.29692,1.12448 h -2.71727 -2.71725 z"
       style="fill:#0a7952;fill-opacity:1;stroke:#ffffff;stroke-width:0.1;stroke-miterlimit:4;stroke-dasharray:none"
       inkscape:export-xdpi="240"
       inkscape:export-ydpi="240" />
    <path
       inkscape:connector-curvature="0"
       id="path1172"
       d="m 132.92956,-28.429405 c -1.65925,0 -3.01686,0.049 -3.01686,0.10852 0,0.0595 -1.53496,4.16667 -3.41117,9.12761 l -3.41116,9.02012 h 2.84685 2.84737 l 0.44752,-1.59525 0.44804,-1.59577 3.21634,0.0744 3.21582,0.0739 0.4377,1.45521 0.4377,1.45521 2.93626,0.0749 2.93625,0.0744 -0.62942,-1.66192 c -0.34615,-0.91423 -1.7825,-4.69853 -3.19205,-8.4093 -1.40955,-3.71079 -2.68217,-7.07429 -2.82774,-7.47448 l -0.26458,-0.72761 z m -0.032,4.89479 1.01544,3.175 c 0.55849,1.74625 1.01803,3.20475 1.02113,3.24115 0.003,0.0363 -0.88729,0.0661 -1.97869,0.0661 -1.09141,0 -1.98438,-0.0806 -1.98438,-0.17932 0,-0.0987 0.43348,-1.55719 0.96325,-3.24115 z"
       style="fill:#0a7952;fill-opacity:1;stroke:#ffffff;stroke-width:0.1;stroke-miterlimit:4;stroke-dasharray:none"
       inkscape:export-xdpi="240"
       inkscape:export-ydpi="240" />
    <path
       inkscape:connector-curvature="0"
       id="path1174"
       d="m 144.72936,-28.448005 v 9.13742 9.13743 h 2.77812 2.77813 v -3.70416 -3.70417 h 0.76584 c 1.06801,0 1.70541,0.75884 3.58066,4.26227 l 1.61334,3.01377 3.10575,0.0744 c 1.70801,0.041 3.10524,-0.004 3.10524,-0.0992 0,-0.31963 -2.72896,-5.25451 -3.39669,-6.14227 -0.36218,-0.48151 -1.00473,-1.05451 -1.42782,-1.2733 l -0.76946,-0.39791 1.3596,-0.67748 c 1.55677,-0.77577 2.53997,-2.06623 2.7926,-3.66593 0.37586,-2.38 -1.0885,-4.83119 -3.20446,-5.36349 -0.57329,-0.14422 -3.75098,-0.33775 -7.06158,-0.42995 z m 5.55625,3.72277 h 1.94872 c 1.57081,0 2.08388,0.10625 2.64583,0.54828 0.88222,0.69396 0.90032,1.65353 0.0475,2.50631 -0.57476,0.57473 -0.87898,0.64958 -2.64583,0.64958 h -1.99626 v -1.85209 z"
       style="fill:#0a7952;fill-opacity:1;stroke:#ffffff;stroke-width:0.1;stroke-miterlimit:4;stroke-dasharray:none"
       inkscape:export-xdpi="240"
       inkscape:export-ydpi="240" />
    <path
       inkscape:connector-curvature="0"
       id="path1176"
       d="m 164.37123,-19.235085 0.0696,-9.06198 7.47448,-0.0703 7.47448,-0.0703 v 1.98849 1.9885 h -4.7625 -4.7625 v 1.45521 1.45521 h 4.36562 4.36563 v 1.85208 1.85208 h -4.37772 -4.37771 l 0.0782,1.78594 0.0782,1.78594 4.82865,0.0721 4.82864,0.0721 v 1.9784 1.97841 h -7.67639 -7.67639 z"
       style="fill:#0a7952;fill-opacity:1;stroke:#ffffff;stroke-width:0.1;stroke-miterlimit:4;stroke-dasharray:none"
       inkscape:export-xdpi="240"
       inkscape:export-ydpi="240" />
    <path
       inkscape:connector-curvature="0"
       id="path1178"
       d="m 182.82939,-19.301185 v -9.12812 h 2.77813 2.77812 v 3.30729 3.30729 h 3.04271 3.04271 v -3.30729 -3.30729 h 2.77812 2.77813 v 9.12812 9.12813 h -2.77813 -2.77812 v -3.70417 -3.70416 h -3.04271 -3.04271 v 3.70416 3.70417 h -2.77812 -2.77813 z"
       style="fill:#0a7952;fill-opacity:1;stroke:#ffffff;stroke-width:0.1;stroke-miterlimit:4;stroke-dasharray:none"
       inkscape:export-xdpi="240"
       inkscape:export-ydpi="240" />
    <path
       inkscape:connector-curvature="0"
       id="path1180"
       d="m 264.58564,-19.301185 v -9.12812 h 7.54063 7.54062 v 1.98437 1.98438 h -4.7625 -4.7625 v 1.45521 1.45521 h 4.36563 4.36562 v 1.85208 1.85208 h -4.36562 -4.36563 v 1.85209 1.85208 h 4.8948 4.89479 v 1.98437 1.98438 h -7.67292 -7.67292 z"
       style="fill:#0a7952;fill-opacity:1;stroke:#ffffff;stroke-width:0.1;stroke-miterlimit:4;stroke-dasharray:none"
       inkscape:export-xdpi="240"
       inkscape:export-ydpi="240" />
    <path
       sodipodi:nodetypes="cccccccccccccscccccsccccs"
       style="fill:#333333;stroke-width:0.26458332"
       d="m 70.538779,-7.4858445 -6.68073,-4.0015705 v -7.891 -7.891 l 6.63303,3.98439 c 3.64817,2.19141 6.68613,4.12277 6.75104,4.29191 0.0649,0.16913 0.0864,3.72782 0.0477,7.90818 l -0.0703,7.6006705 z m 9.45885,-3.8678005 v -7.89016 l 6.38652,-3.29599 c 3.51258,-1.8128 6.48914,-3.33568 6.61458,-3.38419 0.12544,-0.0485 0.22807,3.43133 0.22807,7.73296 v 7.82116 l -0.59532,0.36712 c -0.32742,0.2019205 -3.30398,1.7558605 -6.61458,3.4531905 l -6.01927,3.08607 z m -7.89152,-14.07555 c -3.39445,-2.1529 -6.16698,-4.01809 -6.16118,-4.14486 0.0181,-0.39672 11.98727,-6.485148 12.42147,-6.318528 0.69796,0.26783 13.00845,7.649608 13.00564,7.798608 -0.004,0.18706 -12.55386,6.63034 -12.85847,6.60148 -0.12965,-0.0123 -3.01301,-1.7838 -6.40746,-3.9367 z"
       id="path1182"
       inkscape:connector-curvature="0"
       inkscape:export-xdpi="240"
       inkscape:export-ydpi="240" />
    <path
       inkscape:export-ydpi="240"
       inkscape:export-xdpi="240"
       style="fill:#ffffff;fill-opacity:1;stroke:#ffffff;stroke-width:0.119;stroke-miterlimit:4;stroke-dasharray:none"
       d="m 14.357676,130.94633 c -1.343,5.27222 -2.517125,9.81637 -2.609143,10.09809 -0.151335,0.46329 0.152593,0.51222 3.181665,0.51222 3.194541,0 3.357441,-0.0303 3.532264,-0.65857 0.100788,-0.36221 0.659317,-2.83174 1.241156,-5.48784 0.581839,-2.65608 1.094219,-4.86087 1.138614,-4.89953 0.04436,-0.0386 0.891524,2.43089 1.882514,5.48784 l 1.801783,5.5581 h 3.289113 3.289114 l 0.347878,-1.09762 c 2.509715,-7.91853 3.296167,-10.04986 3.472184,-9.40971 0.106127,0.38606 0.674557,2.90816 1.263132,5.60464 l 1.070134,4.90269 h 3.331996 c 3.284652,0 3.329416,-0.009 3.151619,-0.65857 -0.420501,-1.53547 -4.876622,-19.25165 -4.876622,-19.38801 0,-0.0823 -1.569728,-0.14959 -3.488288,-0.14959 h -3.488275 l -2.013374,6.18483 c -1.107348,3.40165 -2.091653,6.06885 -2.187345,5.92713 -0.160168,-0.23724 -2.728068,-7.98126 -3.603793,-10.86799 l -0.377378,-1.24397 h -3.453552 -3.453565 z"
       id="path1184"
       inkscape:connector-curvature="0" />
    <path
       inkscape:export-ydpi="240"
       inkscape:export-xdpi="240"
       style="fill:#ffffff;fill-opacity:1;stroke:#ffffff;stroke-width:0.1;stroke-miterlimit:4;stroke-dasharray:none"
       d="m 197.04525,121.85785 c -2.72101,0.0108 -5.33236,0.95574 -6.87813,2.5709 -3.19745,3.34092 -3.16104,10.22181 0.0718,13.55059 1.15827,1.19265 2.21367,1.76061 4.08089,2.19625 1.82138,0.42494 5.28277,0.2703 6.93084,-0.31006 1.81904,-0.64057 3.43131,-2.18756 4.32842,-4.15272 0.68975,-1.51101 0.76249,-1.94534 0.77049,-4.58473 0.008,-2.76935 -0.0348,-3.00389 -0.86041,-4.68137 -1.3292,-2.7008 -3.08197,-3.88949 -6.55412,-4.44417 -0.62782,-0.1003 -1.26188,-0.14719 -1.88981,-0.14469 z m 0.25063,4.14651 c 0.598,0.0153 1.18915,0.17226 1.70584,0.48731 1.33551,0.81431 1.74497,1.67316 1.87482,3.93619 0.14339,2.49934 -0.27169,4.14335 -1.28467,5.08962 -1.29939,1.21381 -3.6586,1.14128 -5.01003,-0.15348 -1.41071,-1.35154 -1.75597,-5.61546 -0.61495,-7.59179 0.66466,-1.15123 2.0134,-1.80159 3.32899,-1.76785 z"
       id="path1186"
       inkscape:connector-curvature="0" />
    <path
       inkscape:export-ydpi="240"
       inkscape:export-xdpi="240"
       style="fill:#ffffff;fill-opacity:1;stroke:#ffffff;stroke-width:0.1;stroke-miterlimit:4;stroke-dasharray:none"
       d="m 215.56078,140.2748 c -1.66722,-0.26342 -3.5286,-1.30564 -4.40543,-2.46668 -1.25539,-1.6623 -1.48964,-3.19796 -1.48964,-9.76556 v -6.03739 h 2.77812 2.77813 v 6.09855 c 0,7.70516 0.18443,8.18895 3.12192,8.18895 1.65141,0 2.57614,-0.68023 2.98666,-2.197 0.19492,-0.72021 0.26688,-3.01592 0.20481,-6.53425 l -0.0957,-5.42396 2.71198,-0.0754 2.71198,-0.0754 v 6.17894 c 0,7.42834 -0.18497,8.34102 -2.07042,10.21549 -0.68793,0.68392 -1.70657,1.38167 -2.2952,1.57216 -1.33535,0.43214 -5.12542,0.60782 -6.93722,0.32155 z"
       id="path1188"
       inkscape:connector-curvature="0" />
    <path
       inkscape:export-ydpi="240"
       inkscape:export-xdpi="240"
       style="fill:#ffffff;fill-opacity:1;stroke:#ffffff;stroke-width:0.1;stroke-miterlimit:4;stroke-dasharray:none"
       d="m 235.13641,140.2646 c -2.89164,-0.6162 -4.64112,-2.36589 -5.22811,-5.22874 l -0.1763,-0.8599 1.67466,-0.003 c 0.92107,-0.002 2.09873,-0.0731 2.61703,-0.15882 0.91287,-0.15103 0.95225,-0.12288 1.25864,0.89975 0.63941,2.13415 3.59433,2.90706 5.06772,1.32556 1.30436,-1.40006 0.24623,-2.58753 -3.13915,-3.52287 -5.01856,-1.38657 -6.65041,-2.80434 -6.63876,-5.76783 0.01,-2.53327 2.13227,-4.46375 5.41961,-4.92973 5.14119,-0.72876 8.39889,0.75412 9.41122,4.28391 0.267,0.93099 0.23875,0.94181 -2.73053,1.04534 -1.78788,0.0623 -2.31514,8e-4 -2.3151,-0.27035 1e-5,-0.1931 -0.34799,-0.69911 -0.77336,-1.12448 -0.62161,-0.62161 -1.00302,-0.7734 -1.94337,-0.7734 -0.79743,0 -1.3094,0.15407 -1.60785,0.48385 -1.07229,1.18486 -0.30823,1.89362 2.86941,2.66172 3.29432,0.79631 5.53502,1.92546 6.39266,3.22144 1.87042,2.8264 0.51178,6.72621 -2.84666,8.17098 -1.55148,0.66742 -5.39584,0.95475 -7.31176,0.54648 z"
       id="path1190"
       inkscape:connector-curvature="0" />
    <path
       inkscape:export-ydpi="240"
       inkscape:export-xdpi="240"
       style="fill:#ffffff;fill-opacity:1;stroke:#ffffff;stroke-width:0.1;stroke-miterlimit:4;stroke-dasharray:none"
       d="m 84.285386,131.59632 c -1.05668,-4.76581 -1.98047,-8.87347 -2.05288,-9.12813 -0.11907,-0.41879 0.12007,-0.46302 2.50334,-0.46302 2.51345,0 2.64163,0.0274 2.77918,0.59531 0.0793,0.32742 0.51875,2.55974 0.97654,4.96071 0.45779,2.40096 0.86092,4.39397 0.89586,4.42891 0.0349,0.0349 0.70145,-2.19739 1.48115,-4.96071 l 1.41766,-5.02422 h 2.58787 2.58786 l 0.27372,0.99219 c 1.97463,7.15792 2.593424,9.08453 2.731904,8.50587 0.0835,-0.34898 0.53075,-2.62882 0.99384,-5.06629 l 0.84198,-4.43177 h 2.6216 c 2.58436,0 2.61959,0.008 2.4797,0.59531 -0.33086,1.38798 -3.83692,17.40246 -3.83692,17.52572 0,0.0744 -1.23506,0.13522 -2.74458,0.13522 h -2.744584 l -1.58411,-5.59075 c -0.87126,-3.07491 -1.64571,-5.48592 -1.721,-5.35781 -0.12602,0.21445 -2.14644,7.21463 -2.83546,9.82408 l -0.29692,1.12448 h -2.71727 -2.71725 z"
       id="path1192"
       inkscape:connector-curvature="0" />
    <path
       inkscape:export-ydpi="240"
       inkscape:export-xdpi="240"
       style="fill:#ffffff;fill-opacity:1;stroke:#ffffff;stroke-width:0.1;stroke-miterlimit:4;stroke-dasharray:none"
       d="m 117.43254,122.00512 c -1.65925,0 -3.01686,0.049 -3.01686,0.10852 0,0.0595 -1.53496,4.16667 -3.41117,9.12761 l -3.41116,9.02012 h 2.84685 2.84737 l 0.44752,-1.59525 0.44804,-1.59577 3.21634,0.0744 3.21582,0.0739 0.4377,1.45521 0.4377,1.45521 2.93626,0.0749 2.93625,0.0744 -0.62942,-1.66192 c -0.34615,-0.91423 -1.7825,-4.69853 -3.19205,-8.4093 -1.40955,-3.71079 -2.68217,-7.07429 -2.82774,-7.47448 l -0.26458,-0.72761 z m -0.032,4.89479 1.01544,3.175 c 0.55849,1.74625 1.01803,3.20475 1.02113,3.24115 0.003,0.0363 -0.88729,0.0661 -1.97869,0.0661 -1.09141,0 -1.98438,-0.0806 -1.98438,-0.17932 0,-0.0987 0.43348,-1.55719 0.96325,-3.24115 z"
       id="path1194"
       inkscape:connector-curvature="0" />
    <path
       inkscape:export-ydpi="240"
       inkscape:export-xdpi="240"
       style="fill:#ffffff;fill-opacity:1;stroke:#ffffff;stroke-width:0.1;stroke-miterlimit:4;stroke-dasharray:none"
       d="m 129.23234,121.98652 v 9.13742 9.13743 h 2.77812 2.77813 v -3.70416 -3.70417 h 0.76584 c 1.06801,0 1.70541,0.75884 3.58066,4.26227 l 1.61334,3.01377 3.10575,0.0744 c 1.70801,0.041 3.10524,-0.004 3.10524,-0.0992 0,-0.31963 -2.72896,-5.25451 -3.39669,-6.14227 -0.36218,-0.48151 -1.00473,-1.05451 -1.42782,-1.2733 l -0.76946,-0.39791 1.3596,-0.67748 c 1.55677,-0.77577 2.53997,-2.06623 2.7926,-3.66593 0.37586,-2.38 -1.0885,-4.83119 -3.20446,-5.36349 -0.57329,-0.14422 -3.75098,-0.33775 -7.06158,-0.42995 z m 5.55625,3.72277 h 1.94872 c 1.57081,0 2.08388,0.10625 2.64583,0.54828 0.88222,0.69396 0.90032,1.65353 0.0475,2.50631 -0.57476,0.57473 -0.87898,0.64958 -2.64583,0.64958 h -1.99626 v -1.85209 z"
       id="path1196"
       inkscape:connector-curvature="0" />
    <path
       inkscape:export-ydpi="240"
       inkscape:export-xdpi="240"
       style="fill:#ffffff;fill-opacity:1;stroke:#ffffff;stroke-width:0.1;stroke-miterlimit:4;stroke-dasharray:none"
       d="m 148.87421,131.19944 0.0696,-9.06198 7.47448,-0.0703 7.47448,-0.0703 v 1.98849 1.9885 h -4.7625 -4.7625 v 1.45521 1.45521 h 4.36562 4.36563 v 1.85208 1.85208 h -4.37772 -4.37771 l 0.0782,1.78594 0.0782,1.78594 4.82865,0.0721 4.82864,0.0721 v 1.9784 1.97841 h -7.67639 -7.67639 z"
       id="path1198"
       inkscape:connector-curvature="0" />
    <path
       inkscape:export-ydpi="240"
       inkscape:export-xdpi="240"
       style="fill:#ffffff;fill-opacity:1;stroke:#ffffff;stroke-width:0.1;stroke-miterlimit:4;stroke-dasharray:none"
       d="m 167.33237,131.13334 v -9.12812 h 2.77813 2.77812 v 3.30729 3.30729 h 3.04271 3.04271 v -3.30729 -3.30729 h 2.77812 2.77813 v 9.12812 9.12813 h -2.77813 -2.77812 v -3.70417 -3.70416 h -3.04271 -3.04271 v 3.70416 3.70417 h -2.77812 -2.77813 z"
       id="path1200"
       inkscape:connector-curvature="0" />
    <path
       inkscape:export-ydpi="240"
       inkscape:export-xdpi="240"
       style="fill:#ffffff;fill-opacity:1;stroke:#ffffff;stroke-width:0.1;stroke-miterlimit:4;stroke-dasharray:none"
       d="m 249.08862,131.13334 v -9.12812 h 7.54063 7.54062 v 1.98437 1.98438 h -4.7625 -4.7625 v 1.45521 1.45521 h 4.36563 4.36562 v 1.85208 1.85208 h -4.36562 -4.36563 v 1.85209 1.85208 h 4.8948 4.89479 v 1.98437 1.98438 h -7.67292 -7.67292 z"
       id="path1202"
       inkscape:connector-curvature="0" />
    <path
       inkscape:export-ydpi="240"
       inkscape:export-xdpi="240"
       inkscape:connector-curvature="0"
       id="path1204"
       d="m 55.041755,142.94868 -6.68073,-4.00157 v -7.891 -7.891 l 6.63303,3.98439 c 3.64817,2.19141 6.68613,4.12277 6.75104,4.29191 0.0649,0.16913 0.0864,3.72782 0.0477,7.90818 l -0.0703,7.60067 z m 9.45885,-3.8678 v -7.89016 l 6.38652,-3.29599 c 3.51258,-1.8128 6.48914,-3.33568 6.61458,-3.38419 0.12544,-0.0485 0.22807,3.43133 0.22807,7.73296 v 7.82116 l -0.59532,0.36712 c -0.32742,0.20192 -3.30398,1.75586 -6.61458,3.45319 l -6.01927,3.08607 z m -7.89152,-14.07555 c -3.39445,-2.1529 -6.16698,-4.01809 -6.16118,-4.14486 0.0181,-0.39672 11.98727,-6.48515 12.42147,-6.31853 0.69796,0.26783 13.00845,7.64961 13.00564,7.79861 -0.004,0.18706 -12.55386,6.63034 -12.85847,6.60148 -0.12965,-0.0123 -3.01301,-1.7838 -6.40746,-3.9367 z"
       style="fill:#ffffff;stroke-width:0.26458332"
       sodipodi:nodetypes="cccccccccccccscccccsccccs" />
  </g>
</svg>
