<?xml version="1.0" encoding="UTF-8" standalone="no"?>
<svg
   xmlns:dc="http://purl.org/dc/elements/1.1/"
   xmlns:cc="http://creativecommons.org/ns#"
   xmlns:rdf="http://www.w3.org/1999/02/22-rdf-syntax-ns#"
   xmlns:svg="http://www.w3.org/2000/svg"
   xmlns="http://www.w3.org/2000/svg"
   id="svg8"
   version="1.1"
   viewBox="0 0 210 295"
   height="295mm"
   width="210mm">
  <defs
     id="defs2" />
  <metadata
     id="metadata5">
    <rdf:RDF>
      <cc:Work
         rdf:about="">
        <dc:format>image/svg+xml</dc:format>
        <dc:type
           rdf:resource="http://purl.org/dc/dcmitype/StillImage" />
        <dc:title></dc:title>
      </cc:Work>
    </rdf:RDF>
  </metadata>
  <g
     transform="translate(0,-2)"
     id="layer1">
    <g
       transform="translate(-11.319018,166.36556)"
       id="g3965">
      <g
         style="fill:#0a7952;fill-opacity:1"
         id="g3938">
        <path
           id="path3906"
           transform="scale(0.26458333)"
           d="m 476.81055,423.45508 c -10.28413,0.0408 -20.1538,3.61228 -25.9961,9.7168 -12.08485,12.62709 -11.94723,38.63362 0.27149,51.21484 4.37771,4.50765 8.36662,6.65427 15.42383,8.30078 6.88395,1.60607 19.96638,1.02161 26.19531,-1.17188 6.87511,-2.42105 12.96872,-8.26793 16.35937,-15.69531 2.60693,-5.7109 2.88188,-7.35248 2.91211,-17.32812 0.0313,-10.46684 -0.13165,-11.35328 -3.25195,-17.69336 -5.02375,-10.20775 -11.6484,-14.70045 -24.77149,-16.79688 -2.37285,-0.37907 -4.76931,-0.55629 -7.14257,-0.54687 z m 0.94726,15.67187 c 2.26014,0.058 4.49442,0.65107 6.44727,1.8418 5.04759,3.07771 6.59516,6.32377 7.08594,14.87695 0.54194,9.44633 -1.02689,15.65988 -4.85547,19.23633 -4.91108,4.58763 -13.82778,4.3135 -18.93555,-0.58008 -5.33182,-5.10818 -6.63674,-21.22376 -2.32422,-28.69336 2.51211,-4.35111 7.60973,-6.80916 12.58203,-6.68164 z"
           style="fill:#0a7952;fill-opacity:1;stroke-width:1.00000012" />
        <path
           id="path3902"
           d="m 144.67165,130.45611 c -1.66722,-0.26342 -3.5286,-1.30564 -4.40543,-2.46668 -1.25539,-1.6623 -1.48964,-3.19796 -1.48964,-9.76556 v -6.03739 h 2.77812 2.77813 v 6.09855 c 0,7.70516 0.18443,8.18895 3.12192,8.18895 1.65141,0 2.57614,-0.68023 2.98666,-2.197 0.19492,-0.72021 0.26688,-3.01592 0.20481,-6.53425 l -0.0957,-5.42396 2.71198,-0.0754 2.71198,-0.0754 v 6.17894 c 0,7.42834 -0.18497,8.34102 -2.07042,10.21549 -0.68793,0.68392 -1.70657,1.38167 -2.2952,1.57216 -1.33535,0.43214 -5.12542,0.60782 -6.93722,0.32155 z"
           style="fill:#0a7952;fill-opacity:1;stroke-width:0.26458335" />
        <path
           id="path3900"
           d="m 164.24728,130.44591 c -2.89164,-0.6162 -4.64112,-2.36589 -5.22811,-5.22874 l -0.1763,-0.8599 1.67466,-0.003 c 0.92107,-0.002 2.09873,-0.0731 2.61703,-0.15882 0.91287,-0.15103 0.95225,-0.12288 1.25864,0.89975 0.63941,2.13415 3.59433,2.90706 5.06772,1.32556 1.30436,-1.40006 0.24623,-2.58753 -3.13915,-3.52287 -5.01856,-1.38657 -6.65041,-2.80434 -6.63876,-5.76783 0.01,-2.53327 2.13227,-4.46375 5.41961,-4.92973 5.14119,-0.72876 8.39889,0.75412 9.41122,4.28391 0.267,0.93099 0.23875,0.94181 -2.73053,1.04534 -1.78788,0.0623 -2.31514,8e-4 -2.3151,-0.27035 1e-5,-0.1931 -0.34799,-0.69911 -0.77336,-1.12448 -0.62161,-0.62161 -1.00302,-0.7734 -1.94337,-0.7734 -0.79743,0 -1.3094,0.15407 -1.60785,0.48385 -1.07229,1.18486 -0.30823,1.89362 2.86941,2.66172 3.29432,0.79631 5.53502,1.92546 6.39266,3.22144 1.87042,2.8264 0.51178,6.72621 -2.84666,8.17098 -1.55148,0.66742 -5.39584,0.95475 -7.31176,0.54648 z"
           style="fill:#0a7952;fill-opacity:1;stroke-width:0.26458335" />
        <path
           id="path3898"
           d="m 13.396268,121.77763 c -1.056675,-4.76581 -1.980468,-8.87347 -2.052874,-9.12813 -0.119071,-0.41879 0.120066,-0.46302 2.503333,-0.46302 2.513457,0 2.641631,0.0274 2.77918,0.59531 0.07931,0.32742 0.518753,2.55974 0.976541,4.96071 0.457789,2.40096 0.860924,4.39397 0.895858,4.42891 0.03493,0.0349 0.701455,-2.19739 1.481158,-4.96071 l 1.417643,-5.02422 h 2.587869 2.587868 l 0.273712,0.99219 c 1.974637,7.15792 2.593423,9.08453 2.731907,8.50587 0.08352,-0.34898 0.530745,-2.62882 0.993834,-5.06629 l 0.841981,-4.43177 h 2.621604 c 2.58436,0 2.619589,0.008 2.479699,0.59531 -0.330856,1.38798 -3.836924,17.40246 -3.836924,17.52572 0,0.0744 -1.23506,0.13522 -2.744577,0.13522 h -2.744576 l -1.584114,-5.59075 c -0.871263,-3.07491 -1.645712,-5.48592 -1.720999,-5.35781 -0.126024,0.21445 -2.146442,7.21463 -2.835464,9.82408 l -0.296917,1.12448 h -2.717257 -2.717258 z"
           style="fill:#0a7952;fill-opacity:1;stroke-width:0.26458335" />
        <path
           id="path3896"
           transform="scale(0.26458333)"
           d="m 175.91211,424.01172 c -6.27119,0 -11.40234,0.18527 -11.40234,0.41016 0,0.22495 -5.8014,15.74803 -12.89258,34.49804 l -12.89258,34.0918 h 10.75977 10.76171 l 1.69141,-6.0293 1.69336,-6.03125 12.15625,0.28125 12.1543,0.2793 1.65429,5.5 1.6543,5.5 11.09766,0.2832 11.09765,0.28125 -2.3789,-6.28125 c -1.30828,-3.45536 -6.73703,-17.75821 -12.06446,-31.7832 -5.32743,-14.025 -10.13731,-26.73747 -10.6875,-28.25 l -1,-2.75 z m -0.12109,18.5 3.83789,12 c 2.11083,6.6 3.84765,12.11242 3.85937,12.25 0.0119,0.1372 -3.35352,0.25 -7.47851,0.25 -4.125,0 -7.5,-0.3047 -7.5,-0.67774 0,-0.37288 1.63833,-5.88542 3.64062,-12.25 z"
           style="fill:#0a7952;fill-opacity:1;stroke-width:1.00000012" />
        <path
           id="path3892"
           transform="scale(0.26458333)"
           d="m 220.50977,423.94141 v 34.53515 34.53516 h 10.5 10.5 v -14 -14 h 2.89453 c 4.03655,0 6.44565,2.86806 13.5332,16.10937 l 6.09766,11.39063 11.73828,0.28125 c 6.45547,0.15511 11.73633,-0.0133 11.73633,-0.375 0,-1.20805 -10.31419,-19.85957 -12.83789,-23.21485 -1.36887,-1.81991 -3.79742,-3.98557 -5.39649,-4.8125 l -2.9082,-1.5039 5.13867,-2.56055 c 5.88384,-2.93204 9.59987,-7.80939 10.55469,-13.85547 1.42059,-8.99531 -4.11402,-18.25964 -12.11133,-20.27148 -2.16678,-0.54508 -14.17695,-1.27653 -26.68945,-1.625 z m 21,14.07031 h 7.36523 c 5.93692,0 7.87609,0.40156 10,2.07226 3.33438,2.62281 3.40279,6.24956 0.17969,9.47266 -2.17232,2.17221 -3.32211,2.45508 -10,2.45508 h -7.54492 v -7 z"
           style="fill:#0a7952;fill-opacity:1;stroke-width:1.00000012" />
        <path
           id="path3888"
           d="m 77.985079,121.38075 0.06962,-9.06198 7.47448,-0.0703 7.474479,-0.0703 v 1.98849 1.9885 h -4.7625 -4.7625 v 1.45521 1.45521 h 4.365625 4.365625 v 1.85208 1.85208 H 87.832194 83.45448 l 0.07823,1.78594 0.07823,1.78594 4.828646,0.0721 4.828646,0.0721 v 1.9784 1.97841 h -7.676391 -7.67639 z"
           style="fill:#0a7952;fill-opacity:1;stroke-width:0.26458335" />
        <path
           id="path3886"
           d="m 96.443239,121.31465 v -9.12812 h 2.77813 2.778121 v 3.30729 3.30729 h 3.04271 3.04271 v -3.30729 -3.30729 h 2.77812 2.77813 v 9.12812 9.12813 h -2.77813 -2.77812 v -3.70417 -3.70416 h -3.04271 -3.04271 v 3.70416 3.70417 h -2.778121 -2.77813 z"
           style="fill:#0a7952;fill-opacity:1;stroke-width:0.26458335" />
        <path
           id="path3884"
           d="m 178.19949,121.31465 v -9.12812 h 7.54063 7.54062 v 1.98437 1.98438 h -4.7625 -4.7625 v 1.45521 1.45521 h 4.36563 4.36562 v 1.85208 1.85208 h -4.36562 -4.36563 v 1.85209 1.85208 h 4.8948 4.89479 v 1.98437 1.98438 h -7.67292 -7.67292 z"
           style="fill:#0a7952;fill-opacity:1;stroke-width:0.26458335" />
      </g>
      <g
         style="fill:#5a595a;fill-opacity:1"
         id="g3927">
        <path
           id="path3882"
           transform="scale(0.26458333)"
           d="m 238.66797,256.16602 c -16.52504,-10e-4 -38.00131,4.33767 -42.17383,9.36523 -1.16204,1.4002 -0.88942,3.06516 1.89453,11.55859 3.69802,11.28216 4.04874,11.49772 12.94727,7.99024 14.4206,-5.68407 28.8563,-6.10973 34.55468,-1.01953 2.98418,2.6657 3.13408,3.17015 3.4629,11.71093 l 0.34375,8.92579 -11.41016,0.65039 c -20.57334,1.17501 -32.98282,5.73257 -41.75977,15.33593 -5.58532,6.11127 -7.91132,11.96764 -8.71289,21.9375 -1.57135,19.54418 8.55281,34.61085 26.19532,38.98243 12.82089,3.17684 24.98915,0.19205 35.76171,-8.76954 l 4.76172,-3.96093 0.61914,3.09961 c 0.34094,1.70475 1.74599,3.98713 3.12305,5.07031 2.25627,1.77482 4.10256,1.96875 18.66992,1.96875 11.23955,0 16.53089,-0.3649 17.36524,-1.19922 1.25465,-1.25465 1.72317,-17.27044 0.59179,-20.21875 -0.46441,-1.21024 -2.08303,-1.58203 -6.89257,-1.58203 -5.00998,0 -6.45093,-0.35528 -7.09961,-1.75 -0.44764,-0.9625 -1.07304,-16.82499 -1.39063,-35.25 -0.64479,-37.40474 -1.26635,-41.55032 -7.51562,-50.16016 -4.15512,-5.72466 -12.8358,-10.24137 -22.96094,-11.94726 -3.01257,-0.50756 -6.56153,-0.73801 -10.375,-0.73828 z m 10.8418,68.54882 v 13.47461 c 0,15.29458 -0.20922,15.75292 -9,19.73828 -11.42588,5.18001 -22.66358,-0.78946 -23.70508,-12.59179 -1.02695,-11.63743 7.61209,-18.85043 23.95703,-20.00391 z"
           style="fill:#5a595a;fill-opacity:1;stroke-width:1.00000012" />
        <path
           id="path3878"
           d="m 89.696366,100.93551 c -0.727604,-0.20204 -1.411869,-0.3726 -1.520592,-0.37902 -0.403474,-0.0238 -2.36446,-1.983997 -2.771085,-2.769917 -1.08168,-2.09067 -1.19126,-3.181153 -1.324737,-13.182913 l -0.129764,-9.72344 -2.286286,-0.004 c -1.257456,-0.002 -2.439501,-0.10126 -2.626762,-0.22007 -0.250384,-0.15887 -0.320395,-0.94543 -0.264584,-2.97252 l 0.07589,-2.75648 2.579688,-0.0757 2.579687,-0.0757 v -4.60177 c 0,-3.83062 0.06967,-4.67141 0.415775,-5.01751 0.330975,-0.33097 1.045982,-0.41504 3.505729,-0.41216 4.729755,0.006 4.28058,-0.53872 4.28058,5.18662 v 4.86394 h 2.460625 c 1.561049,0 2.576699,0.11607 2.778129,0.3175 0.39586,0.39586 0.43019,4.5338 0.0436,5.25614 -0.24118,0.45064 -0.57306,0.51177 -2.778131,0.51177 h -2.504233 l 0.0016,8.26823 c 0.0016,8.64518 0.146765,10.03012 1.105535,10.54324 0.692698,0.37072 2.557449,0.14117 4.621239,-0.56888 1.92143,-0.66107 1.894,-0.69192 2.729081,3.070363 l 0.63106,2.84307 -0.60693,0.49147 c -0.776031,0.628387 -2.785911,1.210667 -5.306461,1.537337 -2.653988,0.34395 -4.102068,0.31098 -5.688542,-0.12954 z"
           style="fill:#5a595a;fill-opacity:1;stroke-width:0.26458335" />
        <path
           id="path3876"
           d="m 181.20164,101.04891 c -5.54789,-0.92688 -9.13515,-4.383077 -10.59843,-10.21119 -0.6426,-2.5594 -0.62585,-9.04279 0.0299,-11.59187 1.4812,-5.75745 4.99035,-9.58985 10.07989,-11.00837 1.97179,-0.54957 6.99891,-0.47069 9.07541,0.14239 3.05073,0.90073 2.96313,0.70773 2.96313,6.52795 v 5.01628 l -3.10886,-0.0745 -3.10885,-0.0745 -0.0751,-2.68555 c -0.0738,-2.63772 -0.0872,-2.68858 -0.75547,-2.8563 -1.81932,-0.45662 -4.17997,0.53002 -5.32169,2.22423 -1.21298,1.79994 -1.52065,3.4883 -1.52065,8.3447 0,4.93519 0.32165,6.51716 1.64478,8.08961 1.66341,1.976863 5.05332,2.443613 8.45316,1.16392 1.43129,-0.53874 1.83673,-0.60287 2.09069,-0.33073 0.17328,0.18569 0.70323,1.381483 1.17767,2.657313 0.83531,2.24625 0.84751,2.33639 0.38533,2.8471 -0.59472,0.65716 -3.12636,1.454087 -5.80104,1.826097 -2.31349,0.32178 -3.65424,0.32022 -5.6099,-0.007 z"
           style="fill:#5a595a;fill-opacity:1;stroke-width:0.26458335" />
        <path
           id="path3874"
           d="M 12.626722,100.0561 C 12.37634,99.897243 12.306327,99.110673 12.362138,97.083583 l 0.07589,-2.756483 1.91823,-0.0777 1.918229,-0.0777 -0.02637,-8.9181 c -0.0145,-4.90495 -0.108725,-9.21575 -0.209377,-9.57955 -0.167641,-0.60593 -0.3256,-0.66819 -1.881709,-0.74168 -0.934289,-0.0441 -1.8521,-0.20754 -2.039581,-0.36313 -0.355292,-0.29487 -0.497792,-4.52841 -0.180277,-5.35584 0.138419,-0.36072 0.835095,-0.41852 5.044478,-0.41852 2.724756,0 5.100761,0.11607 5.374461,0.26255 0.269821,0.14441 0.628225,0.70995 0.796453,1.25677 0.168228,0.54683 0.355423,1.15035 0.415988,1.34118 0.07333,0.23104 0.597521,-0.0501 1.568992,-0.84143 2.736806,-2.22939 5.779647,-3.24698 8.98447,-3.0046 2.316491,0.1752 3.674015,0.71263 4.956437,1.96222 1.24446,1.2126 2.015152,3.01131 2.330501,5.43913 0.137059,1.05521 0.252875,5.75311 0.257368,10.43978 l 0.0082,8.52122 1.918229,0.0777 1.918229,0.0777 0.07589,2.756483 c 0.05581,2.02709 -0.01421,2.81366 -0.264583,2.972517 -0.430427,0.2731 -11.077814,0.28632 -11.505753,0.0143 -0.23666,-0.150437 -0.337604,-3.093587 -0.396897,-11.57149 -0.07195,-10.28774 -0.124103,-11.45132 -0.548042,-12.22713 -0.753258,-1.37846 -1.525405,-1.73403 -3.493503,-1.60871 -1.46842,0.0935 -1.929449,0.25848 -3.240599,1.15959 l -1.528627,1.05058 -0.06976,8.66078 -0.06976,8.66079 h 1.959683 c 1.542899,0 1.993838,0.089 2.120282,0.41851 0.299342,0.780073 0.175057,5.017453 -0.156901,5.349413 -0.370118,0.370117 -15.191162,0.457887 -15.765685,0.0934 z"
           style="fill:#5a595a;fill-opacity:1;stroke-width:0.26458335" />
        <path
           id="path3872"
           d="m 104.9324,99.910453 c -0.19953,-0.24041 -0.28028,-1.28175 -0.23084,-2.97656 l 0.0761,-2.606793 2.44739,-0.0761 2.4474,-0.0761 v -9.64737 -9.64736 l -2.18281,-0.004 c -1.20055,-0.002 -2.33603,-0.10126 -2.52329,-0.22008 -0.25039,-0.15886 -0.3204,-0.94542 -0.26459,-2.97251 l 0.0759,-2.75649 6.33135,-0.071 c 4.88869,-0.0549 6.3799,0.005 6.54439,0.26459 0.11717,0.18459 0.21485,5.89716 0.21708,12.6946 l 0.004,12.35897 2.3151,0.0764 2.31511,0.0764 0.0759,2.756483 c 0.0558,2.02709 -0.0142,2.81366 -0.26458,2.972517 -0.18726,0.11881 -4.10613,0.21785 -8.7086,0.22008 -6.84668,0.003 -8.42392,-0.0632 -8.67501,-0.365727 z"
           style="fill:#5a595a;fill-opacity:1;stroke-width:0.26458335" />
        <path
           id="path3870"
           d="m 127.02152,99.864453 c -0.52108,-0.52108 -0.60057,-4.84985 -0.0983,-5.352143 0.19884,-0.19884 1.18769,-0.3175 2.64584,-0.3175 h 2.32833 v -9.65729 -9.6573 h -2.59292 c -1.66393,0 -2.70667,-0.11375 -2.91041,-0.3175 -0.20043,-0.20042 -0.3175,-1.20532 -0.3175,-2.72521 0,-1.51988 0.11707,-2.52478 0.3175,-2.7252 0.20374,-0.20375 1.24648,-0.3175 2.91041,-0.3175 h 2.59292 V 66.1913 c 0,-2.69525 0.61213,-5.82032 1.46197,-7.46373 0.76418,-1.47777 2.58528,-3.05413 4.25122,-3.67992 2.78462,-1.046 6.70096,-0.99132 10.19684,0.14237 2.10314,0.68204 2.179,0.8997 1.38032,3.96044 -0.37787,1.44809 -0.7898,2.74442 -0.9154,2.88075 -0.14068,0.15267 -0.76315,0.0827 -1.62093,-0.18232 -2.21492,-0.68421 -3.21494,-0.79102 -4.40521,-0.47051 -1.7334,0.46675 -2.14452,1.36813 -2.14574,4.70445 l -9.9e-4,2.71198 h 2.63653 c 3.16141,0 3.18431,0.0226 3.18431,3.1387 0,2.83949 -0.12103,2.94671 -3.32619,2.94671 h -2.49465 v 9.6573 9.65729 h 2.46063 c 1.56104,0 2.5767,0.11607 2.77812,0.3175 0.20126,0.201253 0.3175,1.215013 0.3175,2.768813 0,2.15276 -0.0623,2.48468 -0.51177,2.725217 -0.32266,0.17268 -3.68876,0.27389 -9.10923,0.27389 -7.46308,0 -8.65231,-0.0549 -9.01322,-0.415777 z"
           style="fill:#5a595a;fill-opacity:1;stroke-width:0.26458335" />
        <path
           id="path3868"
           d="m 150.21006,100.0561 c -0.25038,-0.158857 -0.3204,-0.945427 -0.26458,-2.972517 l 0.0759,-2.756483 2.44739,-0.0761 2.4474,-0.0761 v -9.63744 -9.63743 l -2.4474,-0.0761 -2.44739,-0.0761 V 71.83741 68.927 l 6.21757,-0.0712 c 5.61115,-0.0642 6.24985,-0.0271 6.54844,0.38129 0.25348,0.34665 0.33086,3.3159 0.33086,12.69474 v 12.24226 l 2.31511,0.0765 2.3151,0.0764 0.0759,2.756483 c 0.0558,2.02709 -0.0142,2.81366 -0.26458,2.972517 -0.4446,0.28209 -16.9051,0.28209 -17.3497,0 z"
           style="fill:#5a595a;fill-opacity:1;stroke-width:0.26458335" />
        <path
           id="path3866"
           d="m 108.77732,63.88527 c -0.31198,-0.81302 -0.18144,-7.13727 0.15426,-7.47296 0.36549,-0.3655 7.00367,-0.44866 7.56139,-0.0947 0.2549,0.16175 0.32011,1.15529 0.26459,4.03084 l -0.0737,3.81618 -3.87165,0.073 c -3.35618,0.0633 -3.89339,0.0164 -4.0349,-0.35237 z"
           style="fill:#5a595a;fill-opacity:1;stroke-width:0.26458335" />
        <path
           id="path3864"
           d="m 155.03233,63.95347 c -0.0725,-0.18891 -0.0985,-2.00461 -0.0578,-4.03489 l 0.074,-3.69143 3.70195,-0.074 c 3.24981,-0.065 3.74262,-0.0184 4.0349,0.3813 0.34821,0.47621 0.4765,6.00925 0.16618,7.16721 -0.15609,0.58245 -0.24194,0.59531 -3.97344,0.59531 -2.8825,0 -3.84609,-0.0839 -3.94571,-0.34347 z"
           style="fill:#5a595a;fill-opacity:1;stroke-width:0.26458335" />
      </g>
      <g
         id="g3916">
        <path
           id="path3862"
           d="m 71.992804,46.19267 c -4.352687,-2.38636 -8.023265,-4.53412 -8.156837,-4.77281 -0.156517,-0.27968 -0.135469,-0.56336 0.0592,-0.79792 0.472411,-0.56922 15.683884,-8.84289 16.591887,-9.02449 0.531405,-0.10628 1.208828,0.0146 1.967203,0.351 1.927738,0.85514 14.879242,8.03451 15.414812,8.54485 0.27488,0.26193 0.43279,0.65082 0.35091,0.8642 -0.0819,0.21338 -2.21179,1.52358 -4.733121,2.91155 -11.137971,6.13139 -11.414342,6.26971 -12.519848,6.26601 -0.86895,-0.003 -2.488009,-0.78633 -8.974206,-4.34239 z"
           style="fill:#0a7952;fill-opacity:1;stroke-width:0.26458335" />
        <path
           id="path3860"
           d="M 99.089079,39.29381 C 84.902989,31.48996 81.849134,29.9055 80.99036,29.9035 c -0.841716,-0.002 -2.500051,0.80631 -8.952151,4.36323 -4.355481,2.40109 -8.134337,4.36562 -8.397454,4.36562 -0.675585,0 -0.799733,-0.50721 -0.798608,-3.26278 7.94e-4,-1.90092 0.107294,-2.59749 0.492323,-3.21951 0.673712,-1.08837 15.772072,-9.40409 17.420694,-9.59478 1.057727,-0.12234 1.944105,0.32854 17.859375,9.0848 9.210531,5.06744 17.180661,9.36379 17.711411,9.54744 0.63618,0.22013 1.23811,0.25558 1.76655,0.10403 0.44086,-0.12644 4.17379,-2.08064 8.29542,-4.34267 4.12163,-2.26203 7.68687,-4.18469 7.92277,-4.27258 0.89653,-0.33401 1.29089,0.56577 1.29089,2.94538 0,2.38423 -0.28368,3.26286 -1.36393,4.22441 -0.34124,0.30376 -4.02839,2.41712 -8.19366,4.69636 -6.52788,3.57206 -7.73306,4.14374 -8.73125,4.14167 -1.02325,-0.002 -3.14435,-1.09508 -18.223661,-9.39031 z"
           style="fill:#5a595a;fill-opacity:1;stroke-width:0.26458335" />
        <path
           id="path3858"
           d="m 115.09426,38.98798 c -0.72644,-0.3865 -8.43487,-4.61322 -17.129831,-9.39271 -13.976284,-7.68257 -15.943417,-8.69 -16.968277,-8.69 -1.001856,0 -2.247112,0.59781 -9.171515,4.40294 -6.198018,3.40598 -8.107238,4.34319 -8.431723,4.13906 -0.328237,-0.20649 -0.434708,-0.8332 -0.48955,-2.88159 -0.09886,-3.69236 -0.09491,-3.6972 5.536205,-6.7971 11.250713,-6.19345 11.407582,-6.27164 12.581094,-6.27164 0.971931,0 3.345883,1.22473 18.206266,9.39271 14.024281,7.7084 17.269171,9.3927 18.095551,9.3927 0.80469,0 2.60179,-0.87685 8.94727,-4.36562 4.36718,-2.40109 8.13017,-4.36563 8.36219,-4.36563 0.68393,0 0.96964,0.89391 0.96964,3.03382 0,2.11202 -0.3862,3.42385 -1.22026,4.14494 -0.27474,0.23753 -4.01297,2.35089 -8.30718,4.69635 -8.63035,4.71384 -8.74472,4.75094 -10.97988,3.56177 z"
           style="fill:#5a595a;fill-opacity:1;stroke-width:0.26458335" />
        <path
           id="path3854"
           d="m 114.43491,29.54717 c -8.9619,-4.76454 -14.16033,-7.79772 -14.23603,-8.30643 -0.10753,-0.72266 0.10381,-0.85788 8.77453,-5.61435 7.065,-3.87562 7.42175,-4.03816 8.59896,-3.91794 0.95897,0.0979 2.88093,1.03821 8.76879,4.28997 4.14734,2.29049 7.6952,4.29137 7.88412,4.4464 0.93782,0.76953 0.22564,1.2916 -7.75183,5.68257 -4.48776,2.47015 -8.33997,4.42252 -8.86354,4.49219 -0.73356,0.0976 -1.39349,-0.12528 -3.175,-1.07241 z"
           style="fill:#0a7952;fill-opacity:1;stroke-width:0.26458335" />
      </g>
    </g>
  </g>
</svg>
